<svg xmlns="http://www.w3.org/2000/svg" viewBox="0 0 244 94">
  <path d="M0,34.74H11.49C20.62,34.74,27,29,27,20.19S20.62,5.6,11.49,5.6H0Zm6.2-5.47V11.06h5.29c6,0,9.13,4,9.13,9.13a8.72,8.72,0,0,1-9.13,9.08Zm23.67-5.11c0,6.77,4.85,11.1,11.28,11.1a13.12,13.12,0,0,0,8.69-2.93l-2.45-3.58a8.62,8.62,0,0,1-5.63,2.1c-3.59,0-5.73-2.23-6.08-4.9H51.37V24.73c0-6.9-4.28-11.62-10.57-11.62A10.74,10.74,0,0,0,29.87,24.16ZM40.8,17.52A4.88,4.88,0,0,1,46,22.2H35.6A5.07,5.07,0,0,1,40.8,17.52ZM54,24.16c0,6.51,4.68,11.1,11.19,11.1,4.32,0,6.94-1.88,8.34-3.84l-3.63-3.37a5.3,5.3,0,0,1-4.45,2.27c-3.37,0-5.73-2.49-5.73-6.16s2.36-6.11,5.73-6.11a5.09,5.09,0,0,1,4.45,2.27l3.63-3.41c-1.4-1.92-4-3.8-8.34-3.8C58.7,13.11,54,17.7,54,24.16Zm21.8,0c0,6.77,4.85,11.1,11.28,11.1a13.12,13.12,0,0,0,8.69-2.93l-2.45-3.58a8.62,8.62,0,0,1-5.63,2.1c-3.59,0-5.73-2.23-6.08-4.9H97.32V24.73c0-6.9-4.28-11.62-10.57-11.62A10.74,10.74,0,0,0,75.82,24.16Zm10.93-6.64a4.88,4.88,0,0,1,5.19,4.68H81.55A5.07,5.07,0,0,1,86.75,17.52Zm28.82,17.22h5.55V19.84c0-4.11-2.23-6.73-6.86-6.73a9.68,9.68,0,0,0-7.39,3.28V13.63h-5.54V34.74h5.54V20.54a6,6,0,0,1,4.81-2.49c2.36,0,3.89,1,3.89,3.93Zm18.13.52a6.85,6.85,0,0,0,4.63-1.35l-1.17-4.2a3,3,0,0,1-1.93.61c-1.22,0-1.92-1-1.92-2.31V18.48h4.28V13.63h-4.28V7.87h-5.59v5.76h-3.5v4.85h3.5v11C127.72,33.25,129.82,35.26,133.7,35.26Zm7.69-.52h5.55V20.8a7,7,0,0,1,5.2-2.4,6.8,6.8,0,0,1,1.52.17V13.15a9,9,0,0,0-6.72,3.37V13.63h-5.55Zm28.41,0h5.55V21.11c0-6.08-4.41-8-9.22-8a13.86,13.86,0,0,0-9.22,3.32l2.1,3.71a8.88,8.88,0,0,1,6.16-2.49c2.8,0,4.63,1.4,4.63,3.54v2.93c-1.4-1.7-3.89-2.58-6.68-2.58-3.37,0-7.34,1.79-7.34,6.73,0,4.72,4,7,7.34,7a8.7,8.7,0,0,0,6.68-2.71Zm0-5.07a5.55,5.55,0,0,1-4.45,1.83c-2.19,0-4-1.13-4-3.1s1.79-3.19,4-3.19a5.52,5.52,0,0,1,4.45,1.84Zm11,5.07h5.55V5.6h-5.55Zm13.81-24.21a3.32,3.32,0,1,0-3.32-3.32A3.32,3.32,0,0,0,194.66,10.53ZM191.9,34.74h5.55V13.63H191.9Zm10.14,0h17.21V29.89h-9.83l9.65-12.24v-4H202v4.85h9.52L202,30.59Zm20.47-10.58c0,6.77,4.84,11.1,11.27,11.1a13.12,13.12,0,0,0,8.69-2.93L240,28.75a8.62,8.62,0,0,1-5.63,2.1c-3.58,0-5.72-2.23-6.07-4.9H244V24.73c0-6.9-4.28-11.62-10.57-11.62A10.74,10.74,0,0,0,222.51,24.16Zm10.92-6.64a4.89,4.89,0,0,1,5.2,4.68h-10.4A5.07,5.07,0,0,1,233.43,17.52ZM19.9,81.55h6.21V71.1h7.42c6.3,0,9.79-4.23,9.79-9.3s-3.45-9.4-9.79-9.4H19.9ZM37,61.75a4,4,0,0,1-4.29,4H26.11v-8H32.7A4,4,0,0,1,37,61.75Zm24.29,19.8h5.55V60.44H61.28V74.73a6.23,6.23,0,0,1-4.81,2.4c-2.36,0-3.89-1-3.89-3.89V60.44H47v15c0,4.11,2.19,6.64,6.82,6.64a9.87,9.87,0,0,0,7.43-3.19Zm11.06,0h5.54V78.84a8.22,8.22,0,0,0,6.51,3.23c5.33,0,9.35-4,9.35-11s-4-11.1-9.35-11.1a8.13,8.13,0,0,0-6.51,3.23V52.4H72.34Zm5.54-6.78V67.3a6.12,6.12,0,0,1,4.77-2.44C85.88,64.86,88,67.35,88,71s-2.14,6.11-5.37,6.11A6.16,6.16,0,0,1,77.88,74.77Zm20.05,6.78h5.55V52.4H97.93Zm13.81-24.21A3.32,3.32,0,1,0,108.42,54,3.32,3.32,0,0,0,111.74,57.34ZM109,81.55h5.55V60.44H109Zm9.22-2.76a14.18,14.18,0,0,0,9.44,3.28c5.85,0,9.13-2.93,9.13-6.77,0-5.24-4.85-6.21-8.48-6.9-2.36-.49-4-1-4-2.28s1.31-2,3.32-2a8.93,8.93,0,0,1,6.25,2.44l2.23-3.8a13.49,13.49,0,0,0-8.52-2.88c-5.55,0-8.65,3.1-8.65,6.64,0,5,4.67,5.9,8.3,6.6,2.4.48,4.24,1,4.24,2.49,0,1.31-1.14,2.14-3.54,2.14a12,12,0,0,1-7.3-2.89Zm36.94,2.76h5.55v-15c0-4.11-2.23-6.64-6.86-6.64a9.77,9.77,0,0,0-7.43,3.28V52.4h-5.54V81.55h5.54V67.35a6.15,6.15,0,0,1,4.81-2.49c2.4,0,3.93.91,3.93,3.84ZM169,57.34a3.32,3.32,0,1,0,0-6.64,3.32,3.32,0,1,0,0,6.64ZM166.2,81.55h5.55V60.44H166.2Zm25.29,0H197V66.65c0-4.11-2.23-6.73-6.86-6.73a9.64,9.64,0,0,0-7.38,3.28V60.44h-5.55V81.55h5.55V67.35a6,6,0,0,1,4.8-2.49c2.36,0,3.89,1,3.89,3.93ZM202.11,87a12.78,12.78,0,0,0,9.09,3.15c5.2,0,11.4-2,11.4-10V60.44H217v2.71a8.13,8.13,0,0,0-6.51-3.23c-5.33,0-9.31,3.84-9.31,10.75s4,10.74,9.31,10.74A8.21,8.21,0,0,0,217,78.09v2.14c0,4.16-3.15,5.33-5.81,5.33a8.39,8.39,0,0,1-6.6-2.62ZM217,74.07a6.14,6.14,0,0,1-4.76,2.41c-3.15,0-5.33-2.19-5.33-5.81s2.18-5.81,5.33-5.81a6,6,0,0,1,4.76,2.4Z"/>
</svg>
