<svg xmlns="http://www.w3.org/2000/svg" viewBox="0 0 244 94">
  <path d="M22.4,28.4c.1.1.1.1.1.3s-1.4,5.7-1.6,6.5c-.9,0-10.3-.1-13.7-.1-3,0-4.1.1-4.5.1s-.3-.1-.3-.3v-.8c0-.2,0-.3.2-.3H3.9c1.2,0,1.4-.5,1.4-.9,0-.6.1-8.8.1-10.8V20.3c0-2.1-.1-5.6-.1-6.2-.1-.9-.2-1.2-1.1-1.2H2.8a.32.32,0,0,1-.3-.3v-.8a.27.27,0,0,1,.3-.3c.3,0,1.5.1,4.5.1,3.6,0,4.9-.1,5.2-.1s.3.1.3.3v.8a.32.32,0,0,1-.3.3H10.7c-1,0-1.1.3-1.1,1.2,0,.5-.1,5.4-.1,7.7v2.8c0,.6,0,7.7.1,9.1h1.8a46.14,46.14,0,0,0,5.5-.2c1.8-.3,3.9-4.2,4.4-5.5.1-.1.2-.2.4-.1Z"/>
  <path d="M28.9,27.9c0,3.4,2.4,5.3,4.3,5.3a4.68,4.68,0,0,0,4-1.9.4.4,0,0,1,.4-.2l.5.3c.2.1.2.2,0,.7a6.67,6.67,0,0,1-6,3.5c-2.1,0-3.6-.5-4.7-1.8a7.4,7.4,0,0,1-1.8-5.4,7,7,0,0,1,1.6-4.9c1.4-1.8,2.9-2.4,5.7-2.4,3.8,0,5,3.9,5,5.3,0,.5-.3.5-.9.5H29v1ZM33,25.7c.7,0,1.1-.2,1.1-.5,0-1-.3-2.9-2-2.9s-2.6,1.2-3,3.4Z"/>
  <path d="M40.9,31a.37.37,0,0,1,.1-.3l.6-.2a.37.37,0,0,1,.3.1L43,32.4a2.92,2.92,0,0,0,2.8,1.8,2.09,2.09,0,0,0,2.3-2c0-1.3-.9-1.9-3.2-2.6s-4-1.8-4-4.1A4.13,4.13,0,0,1,42.6,22,5.52,5.52,0,0,1,46,20.9a6.85,6.85,0,0,1,3.2.7c.5.3.6.4.6.6l.4,2.2v.4l-.6.3a.37.37,0,0,1-.3-.1l-1.6-1.8a2.79,2.79,0,0,0-2.1-1,2.07,2.07,0,0,0-2.3,1.9c0,1.3,1,1.7,3,2.3a6.5,6.5,0,0,1,3.3,1.7,3.39,3.39,0,0,1,1,2.6c0,2.8-2.2,4.7-5.5,4.7a7.26,7.26,0,0,1-3.6-.9,1.38,1.38,0,0,1-.3-.4Z"/>
  <path d="M53.9,31a.37.37,0,0,1,.1-.3l.6-.2a.37.37,0,0,1,.3.1L56,32.4a2.92,2.92,0,0,0,2.8,1.8,2.09,2.09,0,0,0,2.3-2c0-1.3-.9-1.9-3.2-2.6s-4-1.8-4-4.1A4.13,4.13,0,0,1,55.6,22,5.52,5.52,0,0,1,59,20.9a6.85,6.85,0,0,1,3.2.7c.5.3.6.4.6.6l.4,2.2v.4l-.6.3a.37.37,0,0,1-.3-.1l-1.6-1.8a2.79,2.79,0,0,0-2.1-1,2.07,2.07,0,0,0-2.3,1.9c0,1.3,1,1.7,3,2.3a6.5,6.5,0,0,1,3.3,1.7,3.39,3.39,0,0,1,1,2.6c0,2.8-2.2,4.7-5.5,4.7a7.26,7.26,0,0,1-3.6-.9,1.38,1.38,0,0,1-.3-.4Z"/>
  <path d="M76.6,35.5a.76.76,0,0,1-.4.1l-.5-.1c-.1-.1-.1-.1-.1-.3.1-.5.1-3.2.1-5.6l-.1-12c0-2.2-.4-2.6-1.4-3l-.4-.1c-.4-.1-.5-.1-.5-.3v-.3q0-.15.3-.3c1.3-.5,3.2-1.3,4.3-1.8a1.85,1.85,0,0,1,1-.4c.3,0,.4.2.3.5s-.1,4-.2,6.9v3.9A6.44,6.44,0,0,1,83.5,21a5.81,5.81,0,0,1,4.8,2.8,7.48,7.48,0,0,1,1,4.1c0,3.6-3.2,7.6-7.2,7.6a8.45,8.45,0,0,1-4.2-.9Zm2.5-7.4c0,2.8.1,3.8.5,4.8A2.74,2.74,0,0,0,82,34.4a3.32,3.32,0,0,0,3-1.7,6.57,6.57,0,0,0,.9-3.7c0-3.8-1.6-6-4.2-6a3.88,3.88,0,0,0-2.6,1Z"/>
  <path d="M94.2,26.7c0-1.5-.3-2-1.2-2.6l-.6-.3c-.2-.1-.3-.1-.3-.3v-.2q0-.15.3-.3l4-1.9a.9.9,0,0,1,.5-.1c.2,0,.3.2.3.4l.3,2.4h.1c1.1-1.8,2.5-3,3.9-3a1.55,1.55,0,0,1,1.7,1.6,1.94,1.94,0,0,1-1.8,1.8,1.61,1.61,0,0,1-1.1-.3,1.61,1.61,0,0,0-.9-.3,1.79,1.79,0,0,0-1.4,1,3.43,3.43,0,0,0-.4,1.6v6.3c0,1.1.3,1.4.9,1.4h1.4c.2,0,.3.1.3.2v.8c0,.2-.1.2-.2.2s-1.7-.1-4.1-.1-3.6.1-3.8.1-.2-.1-.2-.2v-.7a.27.27,0,0,1,.3-.3h1.2a.84.84,0,0,0,.9-.9V26.7Z"/>
  <path d="M116.9,23a7.31,7.31,0,0,1,2.3,5.2,7.89,7.89,0,0,1-2,5,7.24,7.24,0,0,1-5.5,2.4,6.33,6.33,0,0,1-5.3-2.4,7.13,7.13,0,0,1-1.8-5.1,7.38,7.38,0,0,1,2.8-5.5,7.21,7.21,0,0,1,4.7-1.6A7.1,7.1,0,0,1,116.9,23Zm-1.7,5.1c0-3.6-1.9-5.7-3.4-5.7a2.72,2.72,0,0,0-2.1.9c-1,1.2-1.4,2.5-1.4,4.9a7.66,7.66,0,0,0,1,4.6,2.79,2.79,0,0,0,2.6,1.4C114.1,34.2,115.2,31.5,115.2,28.1Z"/>
  <path d="M126.9,35l-4.5-11.5a1.22,1.22,0,0,0-1.2-.9h-.6c-.2,0-.2-.1-.2-.2v-.7a.27.27,0,0,1,.3-.3c.4,0,1.1.1,3.4.1,1.6,0,2.4-.1,2.8-.1a.27.27,0,0,1,.3.3v.7c0,.2-.1.2-.3.2h-.3c-.3,0-.5.3-.3.8l2.4,7.7h.2l2.6-6.4a1.63,1.63,0,0,0-.3-1.5c-.2-.3-.5-.3-.9-.3h-.4c-.2,0-.2-.1-.2-.2V22a.27.27,0,0,1,.3-.3c.2,0,1.3.1,3.4.1,1.5,0,2.2-.1,2.5-.1a.27.27,0,0,1,.3.3v.7a.27.27,0,0,1-.3.3h-.5c-.3,0-.6.3-.5.8l2.4,7.1h.1l2.2-6c.5-1.4.1-2.1-.7-2.1h-.5a.22.22,0,0,1-.2-.2v-.7a.27.27,0,0,1,.3-.3c.2,0,1.2.1,2.8.1,1.4,0,2-.1,2.4-.1.2,0,.3.1.3.2v.7c0,.2-.1.3-.2.3h-.5c-.5,0-1.1.2-1.2.6-.3.6-4.5,11-5,12.1a.62.62,0,0,1-.7.4c-.3,0-.5-.2-.7-.7l-3.3-8.9h-.2l-3.8,9a.94.94,0,0,1-.8.6A2.18,2.18,0,0,1,126.9,35Z"/>
  <path d="M145.3,31a.37.37,0,0,1,.1-.3l.6-.2a.37.37,0,0,1,.3.1l1.1,1.8a2.92,2.92,0,0,0,2.8,1.8,2.09,2.09,0,0,0,2.3-2c0-1.3-.9-1.9-3.2-2.6s-4-1.8-4-4.1A4.13,4.13,0,0,1,147,22a5.52,5.52,0,0,1,3.4-1.1,6.85,6.85,0,0,1,3.2.7c.5.3.6.4.6.6l.4,2.2v.4l-.6.3a.37.37,0,0,1-.3-.1l-1.6-1.8a2.79,2.79,0,0,0-2.1-1,2.07,2.07,0,0,0-2.3,1.9c0,1.3,1,1.7,3,2.3a6.5,6.5,0,0,1,3.3,1.7,3.39,3.39,0,0,1,1,2.6c0,2.8-2.2,4.7-5.5,4.7a7.26,7.26,0,0,1-3.6-.9,1.38,1.38,0,0,1-.3-.4Z"/>
  <path d="M160,25.8c0-1-.2-1.6-1.7-2-.3-.1-.3-.2-.3-.3v-.4c0-.1.1-.2.2-.3.5-.2,3.7-1.3,4.3-1.6a3.09,3.09,0,0,1,.8-.2c.2,0,.3.1.3.4-.1.5-.1,2.6-.1,5.4v3.6a19.47,19.47,0,0,0,.1,2.8c.1.6.2.9.5.9h1.3c.3,0,.3.1.3.2V35a.27.27,0,0,1-.3.3c-.3,0-1.8-.1-4-.1-1.9,0-3.2.1-3.6.1a.27.27,0,0,1-.3-.3v-.6a.27.27,0,0,1,.3-.3h1.4c.3,0,.5-.1.5-.7,0-1,.1-2,.1-3V25.8Zm1.1-8.1a1.9,1.9,0,0,1-2-1.8,2,2,0,0,1,2.2-1.8,1.8,1.8,0,0,1,1.9,1.7A1.89,1.89,0,0,1,161.1,17.7Z"/>
  <path d="M171.8,21.3c.3-.1.5-.3.7-.3s.3.1.4.4l.3,1.7h.2a5.09,5.09,0,0,1,1.6-1.3,4.7,4.7,0,0,1,2.6-.8,4.52,4.52,0,0,1,2.9.8,3.82,3.82,0,0,1,1.8,3.4v8c0,.7.4.9.8.9h.9c.3,0,.4.1.4.2v.8c0,.2-.1.2-.3.2s-1.2-.1-3.6-.1c-2,0-3,.1-3.2.1s-.3-.1-.3-.4v-.6c0-.2.1-.3.4-.3h.7c.3,0,.5-.2.6-.8a28.18,28.18,0,0,0,.1-3.1V26.3c0-1.3-.1-2.2-.9-2.8a2.52,2.52,0,0,0-2-.6,2.84,2.84,0,0,0-2.1.9,3.33,3.33,0,0,0-.7,2.3V33c0,.7.2,1.1.6,1.1h.6c.3,0,.3.1.3.3V35a.27.27,0,0,1-.3.3c-.2,0-1.1-.1-3.1-.1s-3.1.1-3.3.1-.2-.1-.2-.3v-.6a.27.27,0,0,1,.3-.3h.7c.4,0,.9-.1.9-.7V26a2,2,0,0,0-1.4-1.9l-.3-.1q-.3-.15-.3-.3v-.3a.32.32,0,0,1,.3-.3Z"/>
  <path d="M25.7,65.3c0-1,0-9.1-.1-9.3h-.1c-.3.5-4.4,10.1-4.8,10.9-.5,1.1-3.8,8.8-4,9.1s-.4.7-.7.7-.4-.2-.5-.6c-.1-.2-4.4-10.5-4.6-11-.6-1.5-3.6-8.9-4-9.3-.1.5-.2,8.8-.2,9.1s0,6,.2,8.1c.1,1.7.5,3,1.5,3H9.8c.2,0,.3.1.3.2V77a.32.32,0,0,1-.3.3c-.3,0-1.2-.1-3.8-.1-2.8,0-3.9.1-4.3.1s-.3-.1-.3-.3v-.8c0-.1,0-.2.2-.2H3.1c1.1,0,1.5-1.2,1.6-2.3.3-2.3.5-10.4.5-11V57c0-1.2-.2-1.9-1.6-1.9H2.3c-.2,0-.3-.1-.3-.2V54c0-.1.1-.2.3-.2s1.2.1,4.7.1c1.6,0,2.5-.1,2.9-.1s.6.1.8.6c1.2,3.1,5.8,14,6.8,16.7.3-.6,2.6-6,3.5-8,.6-1.4,3.6-8.2,3.7-8.8.1-.3.5-.4,1.3-.4,4.8,0,5.9-.1,6.3-.1.1,0,.2.1.2.3v.7a.27.27,0,0,1-.3.3H30.8c-.9,0-.9.6-1,1.3V66.9c0,2,.1,6.8.1,7.3,0,1.3.3,1.8.9,1.8h1.8c.2,0,.2.1.2.2V77c0,.2,0,.3-.3.3s-2-.1-4.9-.1c-3.2,0-4.5.1-4.9.1a.27.27,0,0,1-.3-.3v-.8a.27.27,0,0,1,.3-.3h2c.6,0,.9-.2,1-1.2,0-.3.1-5.1.1-7.7V65.3Z"/>
  <path d="M48.2,65a7.31,7.31,0,0,1,2.3,5.2,7.89,7.89,0,0,1-2,5A7.24,7.24,0,0,1,43,77.6a6.33,6.33,0,0,1-5.3-2.4,7.13,7.13,0,0,1-1.8-5.1,7.38,7.38,0,0,1,2.8-5.5A7.21,7.21,0,0,1,43.4,63,7.54,7.54,0,0,1,48.2,65Zm-1.8,5.1c0-3.6-1.9-5.7-3.4-5.7a2.72,2.72,0,0,0-2.1.9c-1,1.2-1.4,2.5-1.4,4.9a7.66,7.66,0,0,0,1,4.6,2.79,2.79,0,0,0,2.6,1.4C45.3,76.2,46.4,73.5,46.4,70.1Z"/>
  <path d="M55.3,68.7c0-1.5-.3-2-1.2-2.6l-.6-.3c-.2-.1-.3-.1-.3-.3v-.2q0-.15.3-.3l4-1.9A.9.9,0,0,1,58,63c.2,0,.3.2.3.4l.3,2.4h.1c1.1-1.8,2.5-3,3.9-3a1.55,1.55,0,0,1,1.7,1.6,1.94,1.94,0,0,1-1.8,1.8,1.61,1.61,0,0,1-1.1-.3,1.61,1.61,0,0,0-.9-.3,1.79,1.79,0,0,0-1.4,1,3.43,3.43,0,0,0-.4,1.6v6.3c0,1.1.3,1.4.9,1.4H61c.2,0,.3.1.3.2v.8c0,.2-.1.2-.2.2S59.4,77,57,77s-3.6.1-3.8.1-.2-.1-.2-.2v-.7a.27.27,0,0,1,.3-.3h1.2a.84.84,0,0,0,.9-.9l-.1-6.3Z"/>
  <path d="M69.1,69.9c0,3.4,2.4,5.3,4.3,5.3a4.68,4.68,0,0,0,4-1.9.4.4,0,0,1,.4-.2l.5.3c.2.1.2.2,0,.7a6.5,6.5,0,0,1-6,3.5c-2.1,0-3.6-.5-4.7-1.8a7.4,7.4,0,0,1-1.8-5.4,7,7,0,0,1,1.6-4.9c1.4-1.8,2.9-2.4,5.7-2.4,3.8,0,5,3.9,5,5.3,0,.5-.3.5-.9.5h-8l-.1,1Zm4-2.2c.7,0,1.1-.2,1.1-.5,0-1-.3-2.9-2-2.9s-2.6,1.2-3,3.4Z"/>
  <path d="M90.4,68.7c0-1.5-.3-2-1.2-2.6l-.6-.3c-.2-.1-.3-.1-.3-.3v-.2q0-.15.3-.3l4-1.9a.9.9,0,0,1,.5-.1c.2,0,.3.2.3.4l.3,2.4h.1c1.1-1.8,2.5-3,3.9-3a1.55,1.55,0,0,1,1.7,1.6,1.94,1.94,0,0,1-1.8,1.8,1.61,1.61,0,0,1-1.1-.3,1.61,1.61,0,0,0-.9-.3,1.79,1.79,0,0,0-1.4,1,3.43,3.43,0,0,0-.4,1.6v6.3c0,1.1.3,1.4.9,1.4h1.4c.2,0,.3.1.3.2v.8c0,.2-.1.2-.2.2s-1.7-.1-4.1-.1-3.6.1-3.8.1-.2-.1-.2-.2v-.7a.27.27,0,0,1,.3-.3h1.2a.84.84,0,0,0,.9-.9V68.7Z"/>
  <path d="M104.2,69.9c0,3.4,2.4,5.3,4.3,5.3a4.68,4.68,0,0,0,4-1.9.4.4,0,0,1,.4-.2l.5.3c.2.1.2.2,0,.7a6.5,6.5,0,0,1-6,3.5c-2.1,0-3.6-.5-4.7-1.8a7.4,7.4,0,0,1-1.8-5.4,7,7,0,0,1,1.6-4.9c1.4-1.8,2.9-2.4,5.7-2.4,3.8,0,5,3.9,5,5.3,0,.5-.3.5-.9.5h-8l-.1,1Zm4-2.2c.7,0,1.1-.2,1.1-.5,0-1-.3-2.9-2-2.9s-2.6,1.2-3,3.4Z"/>
  <path d="M123.5,75.6a6.87,6.87,0,0,1-2.9,1.8,7.84,7.84,0,0,1-2.1.2c-1.2,0-2.3-1-2.3-2.8,0-1.5.7-3,3-4,2-1,3.3-1.5,4-2V67a3.2,3.2,0,0,0-.5-1.8,1.94,1.94,0,0,0-1.6-.5,3.29,3.29,0,0,0-1.9.6c-.5.3-.1.8-.1,1.6,0,1.2-.6,1.9-2,1.9a1,1,0,0,1-1.1-1.1,3.44,3.44,0,0,1,1.5-2.7,8.47,8.47,0,0,1,5.3-1.8,3.91,3.91,0,0,1,3,.9,3.29,3.29,0,0,1,.8,2.5l.1,5.2v1.6c0,1.8.3,2.3.9,2.3a1.63,1.63,0,0,0,1.1-.5c.1-.2.2-.2.3-.1l.4.3a.4.4,0,0,1,.1.5,3.22,3.22,0,0,1-3,1.9,2.84,2.84,0,0,1-2.8-2h-.2v-.2Zm-.2-5.7c-1.4.9-3.6,1.5-3.6,3.9,0,1.3.7,2,1.5,2s2.1-1,2.1-1.6Z"/>
  <path d="M144.8,71.8a9.29,9.29,0,0,0,.3,2.9,2.25,2.25,0,0,0,1.4.6c.5,0,.6.1.7.2l.1.4c.1.2,0,.3-.2.4l-4.4,1.2c-.2.1-.4-.1-.5-.3l-.5-1.5a7.28,7.28,0,0,1-4.6,1.9,5.35,5.35,0,0,1-3.9-1.6,5.93,5.93,0,0,1-2-4.8,8.27,8.27,0,0,1,2.3-6,6.35,6.35,0,0,1,4.9-2.1,9.14,9.14,0,0,1,3.1.5l-.1-6.4c0-1.1-.3-1.6-2.1-1.9-.2-.1-.3-.1-.3-.3v-.6q0-.15.3-.3c1.6-.2,3.8-.4,4.7-.6a3.08,3.08,0,0,1,.9-.1c.1,0,.3.2.2.6-.1,1.6-.1,6.4-.1,10.6v7.2Zm-3.5-4.3a4.53,4.53,0,0,0-.3-1.6,3.34,3.34,0,0,0-2.9-1.5,2.84,2.84,0,0,0-2.3,1,5.92,5.92,0,0,0-1.3,3.9c0,3.8,2,6.4,4,6.4a3,3,0,0,0,2.5-1.2,2.77,2.77,0,0,0,.3-1.3Z"/>
  <path d="M151.2,67.8c0-1-.2-1.6-1.7-2-.3-.1-.3-.2-.3-.3v-.4c0-.1.1-.2.2-.3.5-.2,3.7-1.3,4.3-1.6a3.09,3.09,0,0,1,.8-.2c.2,0,.3.1.3.4-.1.5-.1,2.6-.1,5.4v3.6a19.47,19.47,0,0,0,.1,2.8c.1.6.2.9.5.9h1.3c.3,0,.3.1.3.2V77a.27.27,0,0,1-.3.3c-.3,0-1.8-.1-4-.1-1.9,0-3.2.1-3.6.1a.27.27,0,0,1-.3-.3v-.6a.27.27,0,0,1,.3-.3h1.4c.3,0,.5-.1.5-.7,0-1,.1-2,.1-3V67.8Zm1.1-8.1a1.9,1.9,0,0,1-2-1.8,2,2,0,0,1,2.2-1.8,1.8,1.8,0,0,1,1.9,1.7A1.89,1.89,0,0,1,152.3,59.7Z"/>
  <path d="M163,63.3c.3-.1.5-.3.7-.3s.3.1.4.4l.3,1.7h.2a5.09,5.09,0,0,1,1.6-1.3,4.7,4.7,0,0,1,2.6-.8,4.52,4.52,0,0,1,2.9.8,3.82,3.82,0,0,1,1.8,3.4v8c0,.7.4.9.8.9h.9c.3,0,.4.1.4.2v.8c0,.2-.1.2-.3.2s-1.2-.1-3.6-.1c-2,0-3,.1-3.2.1s-.3-.1-.3-.4v-.6c0-.2.1-.3.4-.3h.7c.3,0,.5-.2.6-.8a28.18,28.18,0,0,0,.1-3.1V68.3c0-1.3-.1-2.2-.9-2.8a2.52,2.52,0,0,0-2-.6,2.84,2.84,0,0,0-2.1.9,3.33,3.33,0,0,0-.7,2.3V75c0,.7.2,1.1.6,1.1h.6c.3,0,.3.1.3.3V77a.27.27,0,0,1-.3.3c-.2,0-1.1-.1-3.1-.1s-3.1.1-3.3.1-.2-.1-.2-.3v-.6a.27.27,0,0,1,.3-.3h.7c.4,0,.9-.1.9-.7V68a2,2,0,0,0-1.4-1.9l-.3-.1q-.3-.15-.3-.3v-.3a.32.32,0,0,1,.3-.3Z"/>
  <path d="M178.8,85a2.74,2.74,0,0,1-1.6-2.6c0-1.8,1.8-3,3.4-3.7v-.2a2.61,2.61,0,0,1-2.2-2.4c0-1.8,1.8-2.9,2.8-3.3v-.1a5.37,5.37,0,0,1-2.8-4.9c0-2.2,1.8-4.8,6.1-4.8a5.8,5.8,0,0,1,4.5,1.9,5.34,5.34,0,0,1,2.8-1.2c1.2,0,1.8.7,1.7,1.6a1.32,1.32,0,0,1-1.3,1.3,1.37,1.37,0,0,1-1-.5c-.3-.2-.5-.4-.8-.4a1.34,1.34,0,0,0-.8.2,5.62,5.62,0,0,1-1,5.8,5.73,5.73,0,0,1-4.2,1.5,12.1,12.1,0,0,1-1.9-.1c-.6.3-1.4.9-1.4,1.6,0,1.3,1.2,1.3,4.1,1.2,2.5-.1,4.1.1,5.6,1.2a3.84,3.84,0,0,1,1.6,3.2,4.7,4.7,0,0,1-2,3.8,9.76,9.76,0,0,1-6.4,1.8A10.44,10.44,0,0,1,178.8,85Zm3.3-5.9a3,3,0,0,0-2,2.6,3.08,3.08,0,0,0,1.2,2.3,6.52,6.52,0,0,0,3.8.8c1.7,0,4.5-1,4.5-2.9s-1.4-3.1-4.5-3Zm4.5-11.6a4.5,4.5,0,0,0-.7-2.6,1.81,1.81,0,0,0-1.5-.7,2.17,2.17,0,0,0-1.8.8,6.37,6.37,0,0,0-.9,3.7,3.84,3.84,0,0,0,.8,2.6,2.35,2.35,0,0,0,1.9.7C186.1,72.1,186.6,69.8,186.6,67.5Z"/>
  <path d="M194.9,75.2a2.25,2.25,0,0,1,2.4-2.2,2.18,2.18,0,0,1,2.2,2.3,2.16,2.16,0,0,1-2.2,2.2A2.22,2.22,0,0,1,194.9,75.2Z"/>
  <path d="M187.6,43a2.74,2.74,0,0,1-1.6-2.6c0-1.8,1.8-3,3.4-3.7v-.2a2.61,2.61,0,0,1-2.2-2.4c0-1.8,1.8-2.9,2.8-3.3v-.1a5.37,5.37,0,0,1-2.8-4.9c0-2.2,1.8-4.8,6.1-4.8a5.8,5.8,0,0,1,4.5,1.9,5.34,5.34,0,0,1,2.8-1.2c1.2,0,1.8.7,1.7,1.6a1.32,1.32,0,0,1-1.3,1.3,1.37,1.37,0,0,1-1-.5c-.3-.2-.5-.4-.8-.4a1.34,1.34,0,0,0-.8.2,5,5,0,0,1,.4,2.2,5,5,0,0,1-1.4,3.6,5.73,5.73,0,0,1-4.2,1.5,12.1,12.1,0,0,1-1.9-.1c-.6.3-1.4.9-1.4,1.6,0,1.3,1.2,1.3,4.1,1.2,2.5-.1,4.1.1,5.6,1.2a3.84,3.84,0,0,1,1.6,3.2,4.7,4.7,0,0,1-2,3.8,9.76,9.76,0,0,1-6.4,1.8A10.44,10.44,0,0,1,187.6,43Zm3.3-5.9a3,3,0,0,0-2,2.6,3.08,3.08,0,0,0,1.2,2.3,6.52,6.52,0,0,0,3.8.8c1.7,0,4.5-1,4.5-2.9s-1.4-3.1-4.5-3Zm4.5-11.6a4.5,4.5,0,0,0-.7-2.6,1.81,1.81,0,0,0-1.5-.7,2.17,2.17,0,0,0-1.8.8,6.37,6.37,0,0,0-.9,3.7,3.84,3.84,0,0,0,.8,2.6,2.35,2.35,0,0,0,1.9.7C194.9,30.1,195.4,27.8,195.4,25.5Z"/>
  <path d="M203.7,33.2a2.25,2.25,0,0,1,2.4-2.2,2.18,2.18,0,0,1,2.2,2.3,2.16,2.16,0,0,1-2.2,2.2A2.22,2.22,0,0,1,203.7,33.2Z"/>
</svg>
