<svg xmlns="http://www.w3.org/2000/svg" viewBox="0 0 244 94">
  <path d="M8.65,20.18H7.41a14.09,14.09,0,0,0-3.8.4c-.78.34-1.67,1.73-2.27,2.75L1,23.89c-.09.14-.18.26-.32.2l-.58-.2A.23.23,0,0,1,0,23.6l.56-2.14h0c.23-.92.49-1.89.65-2.53l.18-.67c.06-.4.23-.52.35-.52a.44.44,0,0,1,.31.14l.3.29a2.64,2.64,0,0,0,1.83.61l2.57.12c.8,0,1.76.06,3.05.06h2.25c1.29,0,2.22,0,3-.07l2.08-.11A5.36,5.36,0,0,0,19.21,18l.1-.08h0a.72.72,0,0,1,.42-.21c.17,0,.23.12.29.46s.13.94.27,1.82l.6,3.69c0,.18,0,.24-.12.26l-.58.21c-.11,0-.17-.06-.26-.23l-.18-.35a10.44,10.44,0,0,0-2.11-2.9c-.81-.47-3.42-.52-4.46-.52h-.82V35.63c0,2.21.29,2.79,1,2.79H15c.12,0,.18.11.18.26v.61c0,.17-.06.29-.29.29h-.33c-.52,0-1.62-.07-4-.07H9.4l-1.57,0L6,39.58c-.17,0-.23-.06-.23-.26v-.67c0-.18.09-.23.21-.23H7.61a.87.87,0,0,0,1-.79c0-.44.07-3.72.08-6.45ZM21.49,38.5a.68.68,0,0,0,.76-.78V32c0-1.34-.24-1.8-1.11-2.27l-.52-.29c-.17-.05-.23-.11-.23-.23v-.17c0-.12.06-.18.23-.26l3.51-1.66.1,0a1.17,1.17,0,0,1,.36-.08c.18,0,.24.17.27.35l.26,2.08h.11c1-1.62,2.21-2.61,3.48-2.61a1.42,1.42,0,0,1,1.51,1.45,1.68,1.68,0,0,1-1.57,1.57,2.32,2.32,0,0,1-1-.23,1.28,1.28,0,0,0-.81-.23,1.51,1.51,0,0,0-1.22.84,3.3,3.3,0,0,0-.35,1.42v5.6c0,.92.23,1.21.81,1.21h1.28c.17,0,.23.06.23.21v.66c0,.15-.06.21-.2.21l-.32,0h0c-.54,0-1.66-.07-3.28-.07H23l-1.3,0-1.28.06c-.15,0-.2-.06-.2-.21v-.63c0-.18.05-.24.26-.24Zm17.45-.43a2.39,2.39,0,0,0,2.44,1.77A2.9,2.9,0,0,0,44,38.16c.11-.26.07-.38,0-.44l-.39-.26c-.12-.06-.18-.06-.29.12a1.12,1.12,0,0,1-.93.46c-.5,0-.73-.42-.75-1.82v-1.6L41.61,30a2.72,2.72,0,0,0-.7-2.18l-.16-.14a3.49,3.49,0,0,0-2.51-.67,7.6,7.6,0,0,0-4.69,1.62,3.1,3.1,0,0,0-1.34,2.38,1,1,0,0,0,1,1,1.52,1.52,0,0,0,1.74-1.69,3.47,3.47,0,0,0-.06-.6c-.06-.36-.1-.62.17-.82a3.11,3.11,0,0,1,1.69-.52,1.94,1.94,0,0,1,1.45.44,2.67,2.67,0,0,1,.45,1.56V32a15.52,15.52,0,0,1-2.27,1.19h0l-1.27.61c-2.09.93-2.67,2.23-2.67,3.56,0,1.63.93,2.5,2,2.5a5.85,5.85,0,0,0,1.85-.21,5.55,5.55,0,0,0,2.52-1.56Zm-2.15.17c.82-.06,1.86-.87,1.86-1.39v-3.8c-.25.16-.53.31-.82.47-1.14.61-2.37,1.26-2.37,2.95C35.46,37.66,36.1,38.24,36.79,38.24Zm21.11-3.3V25.12c0-2.64,0-5.05.11-6.08.06-.34,0-.52-.17-.52a2.54,2.54,0,0,0-.45.06l-.3.06c-.54.12-1.67.25-2.8.37L53,19.16c-.18.06-.23.12-.23.23v.52c0,.12,0,.18.23.24,1.56.29,1.8.69,1.83,1.68l.08,5.62a8.74,8.74,0,0,0-2.72-.4,5.7,5.7,0,0,0-4.3,1.85,7.17,7.17,0,0,0-2,5.25,5.43,5.43,0,0,0,1.8,4.27,4.83,4.83,0,0,0,3.48,1.42,6.26,6.26,0,0,0,4.06-1.68l.41,1.33c.06.23.23.35.4.29l3.89-1.1a.25.25,0,0,0,.17-.35L60,38c-.06-.11-.18-.17-.58-.17a2,2,0,0,1-1.22-.52A5.93,5.93,0,0,1,57.9,34.94Zm-3.25,2.23A2.51,2.51,0,0,0,54.88,36V30.93A2.57,2.57,0,0,0,52,28.18a2.39,2.39,0,0,0-2,.87,5.19,5.19,0,0,0-1.16,3.48c0,3.31,1.77,5.68,3.57,5.68A2.58,2.58,0,0,0,54.65,37.17Zm10.58-4.12v-.9h7c.52,0,.81,0,.81-.46,0-1.19-1.08-4.64-4.38-4.64-2.52,0-3.83.58-5.05,2.14a6,6,0,0,0-1.42,4.3,6.54,6.54,0,0,0,1.63,4.78A5,5,0,0,0,68,39.84a5.74,5.74,0,0,0,5.28-3.08c.2-.37.14-.49,0-.58l-.44-.26a.22.22,0,0,0-.3.08l0,.07A3.93,3.93,0,0,1,69,37.75C67.34,37.75,65.23,36,65.23,33.05ZM68,28.12c-1.42,0-2.29,1.05-2.67,3h3.51c.61,0,1-.18,1-.41C69.78,29.83,69.49,28.12,68,28.12Zm21.82,10a2.4,2.4,0,0,0,2.44,1.77,2.92,2.92,0,0,0,2.67-1.68c.1-.26.07-.38,0-.44l-.39-.26c-.12-.06-.17-.06-.29.12a1.12,1.12,0,0,1-.93.46c-.5,0-.73-.42-.75-1.82v-1.6L92.47,30a2.72,2.72,0,0,0-.7-2.18l-.16-.14a3.48,3.48,0,0,0-2.5-.67,7.63,7.63,0,0,0-4.7,1.62,3.1,3.1,0,0,0-1.34,2.38,1,1,0,0,0,1,1,1.52,1.52,0,0,0,1.74-1.69,3.47,3.47,0,0,0-.06-.6c0-.36-.1-.62.18-.82a3.07,3.07,0,0,1,1.68-.52,1.93,1.93,0,0,1,1.45.44,2.75,2.75,0,0,1,.46,1.56V32a15.52,15.52,0,0,1-2.27,1.19h0l-1.27.6c-2.08.93-2.66,2.23-2.66,3.56,0,1.63.92,2.5,2,2.5a5.82,5.82,0,0,0,1.85-.21,5.64,5.64,0,0,0,2.53-1.56Zm-2.14.17c.81-.06,1.85-.87,1.85-1.39v-3.8c-.25.16-.53.31-.82.47-1.14.61-2.37,1.26-2.37,2.95C86.32,37.66,87,38.24,87.66,38.24Zm35.71-3.91c-.09-.09-.2,0-.35.2a8.45,8.45,0,0,1-6.93,3.36h-.31a6.25,6.25,0,0,1-4.68-2.26,11.77,11.77,0,0,1-2.67-7.54c0-4.17,1.92-8.35,6.56-8.35a6.89,6.89,0,0,1,5,2.15,10.22,10.22,0,0,1,2.27,3.77c.08.23.17.34.31.29l.56-.18q.14,0,.12-.21l-.22-1.74c-.21-1.69-.48-4-.48-4.37s0-.45-.33-.46H122c-.18,0-.23,0-.27.17l-.24.75c0,.22-.15.24-.47.06l-.11-.06a12.61,12.61,0,0,0-5.85-1.39,10,10,0,0,0-7.54,3.08,11.24,11.24,0,0,0-3,7.77c0,2.55,1,5.92,3.13,7.83a10.84,10.84,0,0,0,16.24-2.15.22.22,0,0,0-.06-.29Zm5.82-5.89a6.28,6.28,0,0,1,4.12-1.39,6.14,6.14,0,0,1,4.38,1.71,6.26,6.26,0,0,1,2,4.58,6.67,6.67,0,0,1-1.8,4.41A6.45,6.45,0,0,1,133,39.84a5.65,5.65,0,0,1-4.7-2.09,6.09,6.09,0,0,1-1.57-4.5A6.47,6.47,0,0,1,129.19,28.44Zm4.06,10.18A2.42,2.42,0,0,1,131,37.37a6.71,6.71,0,0,1-.9-4c0-2.12.35-3.33,1.25-4.35a2.26,2.26,0,0,1,1.82-.78c1.34,0,3,1.85,3,5C136.15,36.21,135.16,38.62,133.25,38.62Zm19.19-1.1,0-8.67h-5v3c0,.52,0,1.07,0,1.61,0,1.63,0,3.23,0,4l0,.22c.06.52.29.81.81.81h.52c.29,0,.35.06.35.26v.53c0,.17-.06.29-.23.29l-.27,0c-.38,0-1.12-.06-2.16-.07h-.77c-.64,0-1.23,0-1.73,0l-1.51.06c-.17,0-.23-.06-.23-.24v-.66c0-.12.06-.18.29-.18h1.16c.52,0,.72-.34.72-1l0-8.67h-1.83a.22.22,0,0,1-.23-.29l.08-1c.06-.17.12-.17.35-.17h1.63v-.79a7.78,7.78,0,0,1,2.2-5.62,6.65,6.65,0,0,1,4.81-2.09h.2a3.6,3.6,0,0,1,3,1.59h.06A8.89,8.89,0,0,1,156.93,19a6.69,6.69,0,0,1,2.5-.44c1.56,0,2.84.58,2.84,1.8a1.55,1.55,0,0,1-1.45,1.39,1.74,1.74,0,0,1-.93-.23,1.69,1.69,0,0,1-.81-.75,1.42,1.42,0,0,0-1.16-.76,2.08,2.08,0,0,0-1.8.93c-.58.81-.64,2.38-.64,4.05V27.4H159c.13,0,.17.09.17.19v.1l-.12,1c-.06.12-.17.12-.4.12h-3.14v8.84a.74.74,0,0,0,.82.81h1.33c.23,0,.29.06.29.26v.53c0,.17-.06.29-.17.29h-.26c-.46,0-1.49-.08-3.11-.08h-.45l-.87,0-1.93.07c-.17,0-.23-.06-.23-.24v-.66c0-.12.06-.18.29-.18h.52C152.24,38.5,152.44,38.16,152.44,37.52Zm0-10.12h-5V25.22c0-1.45.08-3.11.73-3.94a2,2,0,0,1,1.85-.93,1.6,1.6,0,0,1,1.31.61,2.42,2.42,0,0,0,2.17.87l0,.06a9.12,9.12,0,0,0-1.13,4.72Zm11.5,4.75v.9c0,3,2.12,4.7,3.77,4.7a3.93,3.93,0,0,0,3.51-1.68l.05-.07a.22.22,0,0,1,.3-.08l.44.26c.14.09.2.21,0,.58a5.74,5.74,0,0,1-5.28,3.08,5.05,5.05,0,0,1-4.18-1.57,6.57,6.57,0,0,1-1.62-4.78,6,6,0,0,1,1.42-4.3c1.22-1.56,2.52-2.14,5.05-2.14,3.3,0,4.37,3.45,4.37,4.64,0,.43-.29.46-.81.46Zm.09-1c.38-1.94,1.25-3,2.67-3s1.8,1.71,1.8,2.58c0,.23-.35.41-1,.41Zm13.54,1v.9c0,3,2.11,4.7,3.77,4.7a3.94,3.94,0,0,0,3.51-1.68l0-.07a.22.22,0,0,1,.3-.08l.44.26c.14.09.2.21,0,.58a5.74,5.74,0,0,1-5.28,3.08,5.05,5.05,0,0,1-4.18-1.57,6.57,6.57,0,0,1-1.62-4.78,6,6,0,0,1,1.42-4.3c1.22-1.56,2.52-2.14,5.05-2.14,3.3,0,4.38,3.45,4.38,4.64,0,.43-.29.46-.82.46Zm.08-1c.38-1.94,1.25-3,2.67-3s1.8,1.71,1.8,2.58c0,.23-.35.41-1,.41Zm-169.9,25v9.28a25.56,25.56,0,0,0,3.11-.14,2.14,2.14,0,0,0,1.53-1.13,5.16,5.16,0,0,0,.53-1.48c0-.12.11-.23.23-.23l.64.06c.08,0,.11.08.11.17,0,.34,0,1.45,0,2.31v1.22c0,.78.07,1.69.12,2.32L14,69c0,.2-.06.26-.18.29l-.63.12c-.12,0-.21-.06-.24-.24a7,7,0,0,0-.43-1.36,2.24,2.24,0,0,0-1.45-1.19,18.19,18.19,0,0,0-2.44-.17h-.9v7.22c0,.81.24.93.93.93h1.57c.17,0,.23.06.23.2v.73c0,.17-.06.23-.23.23l-.38,0h0c-.46,0-1.33,0-2.8-.07H5.63c-.86,0-1.55,0-2.09,0l-1.73.06c-.12,0-.18-.06-.18-.21v-.78c0-.11.06-.17.18-.17H3.1c.59,0,.8-.15.83-.61S4,71,4,67.26V62.45L4,57c0-.52-.4-.81-1.16-.81H1.34c-.11,0-.23-.06-.23-.14v-.84c0-.12.12-.18.23-.18h.35c.47,0,1.41.06,3.18.07H6l10.08-.06c.29,0,.55-.06.73-.09H17l.11,0c.12.06.18.18.18.41s.14.62.29,1.22h0c.32,1.36.79,3.35.87,3.59s0,.21-.09.24l-.55.23c-.09,0-.14,0-.24-.09l-.11-.14a15,15,0,0,0-1.69-2.22l-.4-.45a3.58,3.58,0,0,0-2-1.34c-.63-.12-3.35-.22-4.88-.25Zm18.09,7.08a6.29,6.29,0,0,0-4.12,1.39,6.46,6.46,0,0,0-2.43,4.81,6.12,6.12,0,0,0,1.56,4.5A5.68,5.68,0,0,0,25.52,76a6.42,6.42,0,0,0,4.87-2.09,6.62,6.62,0,0,0,1.8-4.41,6.26,6.26,0,0,0-2-4.58A6.1,6.1,0,0,0,25.81,63.24ZM23.46,73.56a2.43,2.43,0,0,0,2.29,1.25c1.92,0,2.9-2.41,2.9-5.37,0-3.18-1.68-5-3-5a2.27,2.27,0,0,0-1.83.78c-.9,1-1.25,2.24-1.25,4.35A6.78,6.78,0,0,0,23.46,73.56Zm13.33.35a.68.68,0,0,1-.75.78H35c-.21,0-.27.06-.27.24v.63c0,.15.06.21.21.21l1.28-.06,1.3,0h.81c1.62,0,2.74,0,3.28.07h0l.32,0c.14,0,.2-.06.2-.21V74.9c0-.15-.06-.21-.23-.21H40.65c-.58,0-.81-.29-.81-1.21v-5.6a3.3,3.3,0,0,1,.35-1.42,1.51,1.51,0,0,1,1.22-.84,1.28,1.28,0,0,1,.81.23,2.18,2.18,0,0,0,1,.23,1.68,1.68,0,0,0,1.57-1.57,1.42,1.42,0,0,0-1.51-1.45c-1.27,0-2.49,1-3.48,2.61h-.11l-.27-2.08c0-.18-.08-.35-.26-.35a1.11,1.11,0,0,0-.36.08l-.1,0L35.17,65c-.17.08-.23.14-.23.26v.17c0,.12.06.18.23.23l.52.3c.87.46,1.1.92,1.1,2.26ZM62.91,76a2.4,2.4,0,0,1-2.44-1.77h-.11a5.74,5.74,0,0,1-2.53,1.57A6.09,6.09,0,0,1,56,76c-1.08,0-2-.87-2-2.5,0-1.33.58-2.63,2.66-3.56l1.27-.6h0a15.52,15.52,0,0,0,2.27-1.19V66.6A2.75,2.75,0,0,0,59.72,65a1.93,1.93,0,0,0-1.45-.44,3.07,3.07,0,0,0-1.68.52c-.28.2-.24.46-.18.82a3.47,3.47,0,0,1,.06.6,1.52,1.52,0,0,1-1.74,1.69,1,1,0,0,1-1-1,3.1,3.1,0,0,1,1.34-2.38,7.63,7.63,0,0,1,4.7-1.62,3.48,3.48,0,0,1,2.5.67l.16.14a2.72,2.72,0,0,1,.7,2.18l.06,4.58V72.2c0,1.57.23,2,.75,2a1.12,1.12,0,0,0,.93-.46c.12-.18.17-.18.29-.12l.35.23c.11.06.17.18.06.47A2.92,2.92,0,0,1,62.91,76Zm-2.73-3c0,.52-1,1.34-1.85,1.39S57,73.85,57,72.66c0-1.69,1.23-2.34,2.37-3,.29-.16.57-.31.82-.47Zm17.29-5.56V62.74c0-1.18,0-3.81-.08-4.61l0-.36c-.1-1.38-.51-1.53-1.4-1.55H74.81c-.17,0-.23-.06-.23-.23v-.67c0-.17.06-.26.23-.26l.54,0c.6,0,1.62.08,3.08.07h1l1.17,0c.82,0,1.76,0,2.65,0h.36a11.08,11.08,0,0,1,4.74.78,4,4,0,0,1,2.21,3.95c0,2.32-1.22,3.71-4,4.72v.15c3.31.87,5.22,2.61,5.22,5.68a5.38,5.38,0,0,1-2.26,4.41c-1.22.7-3.07,1-6.32,1-.58,0-1.35,0-2.12,0s-1.54,0-2.12,0c-1.49,0-2.52,0-3.23.06h0l-.56,0H75a.21.21,0,0,1-.2-.23v-.73a.18.18,0,0,1,.2-.2H76.2c.87,0,1.07-.35,1.16-1.25C77.41,72.76,77.46,69.8,77.47,67.48ZM81,71v-5.8h.75a8.65,8.65,0,0,1,3.31.52,4.51,4.51,0,0,1,2.78,4.53c0,3.54-2.09,4.61-4.35,4.61C81.65,74.84,81,73.71,81,71Zm0-10v3.28c.46,0,.87,0,1.33,0a5.08,5.08,0,0,0,3.07-.84A4.17,4.17,0,0,0,86.93,60a3.64,3.64,0,0,0-1.27-3,6.09,6.09,0,0,0-3.31-1,4.74,4.74,0,0,0-.87.05.6.6,0,0,0-.38.47C81.08,57,81,58.92,81,61Zm17.33,8.27v-.9h7c.52,0,.81,0,.81-.46,0-1.19-1.07-4.64-4.38-4.64-2.52,0-3.83.58-5,2.14a6,6,0,0,0-1.42,4.3A6.55,6.55,0,0,0,97,74.46,5,5,0,0,0,101.13,76,5.74,5.74,0,0,0,106.41,73c.2-.37.15-.49,0-.58l-.43-.26a.23.23,0,0,0-.31.08l0,.07a3.93,3.93,0,0,1-3.51,1.68C100.47,73.94,98.35,72.2,98.35,69.24Zm2.75-4.93c-1.42,0-2.29,1-2.66,3H102c.6,0,1-.17,1-.41C102.9,66,102.61,64.31,101.1,64.31Zm7.8.87h1.68V69c0,.56,0,1.43,0,2.29h0c0,.84,0,1.66,0,2.18A3,3,0,0,0,113.54,76a6,6,0,0,0,3.65-1.16.36.36,0,0,0,.12-.41l-.18-.35c0-.14-.14-.14-.34,0a4.12,4.12,0,0,1-1.69.34c-.58,0-1.53-.46-1.53-2.72V69.07c0-1.28,0-2.67.08-3.89h3.51c.18,0,.26-.06.29-.17l.29-1.22c0-.12,0-.23-.2-.23h-3.83l.12-2.87c0-.24-.12-.41-.35-.41a.47.47,0,0,0-.46.29,12.74,12.74,0,0,1-3.87,3.61l-.11,0c-.37.15-.55.32-.55.56A.37.37,0,0,0,108.9,65.18Zm12.31,0h-1.68a.36.36,0,0,1-.4-.4c0-.24.17-.41.55-.56l.1,0a12.52,12.52,0,0,0,3.87-3.61.48.48,0,0,1,.46-.29c.24,0,.35.17.35.41l-.11,2.87h3.82c.18,0,.24.11.21.23L128.09,65c0,.11-.12.17-.29.17h-3.51c-.06,1.22-.09,2.61-.09,3.89v2.61c0,2.26,1,2.72,1.54,2.72a4.07,4.07,0,0,0,1.68-.34c.2-.09.29-.09.35,0l.17.35a.37.37,0,0,1-.11.41A6.06,6.06,0,0,1,124.17,76a3,3,0,0,1-3-2.61c0-.52,0-1.34,0-2.18h0c0-.86,0-1.73,0-2.29Zm12,4.06v-.9h7c.52,0,.81,0,.81-.46,0-1.19-1.07-4.64-4.38-4.64-2.52,0-3.83.58-5,2.14a6,6,0,0,0-1.43,4.3,6.55,6.55,0,0,0,1.63,4.78A5,5,0,0,0,136,76,5.74,5.74,0,0,0,141.3,73c.21-.37.15-.49,0-.58l-.43-.26c-.12,0-.23,0-.35.15A3.93,3.93,0,0,1,137,73.94C135.36,73.94,133.24,72.2,133.24,69.24ZM136,64.31c-1.43,0-2.3,1-2.67,3h3.51c.61,0,.95-.17.95-.41C137.79,66,137.5,64.31,136,64.31Zm9.56,9.6a.68.68,0,0,1-.76.78h-1c-.2,0-.26.06-.26.24v.63c0,.15.06.21.2.21l1.28-.06,1.3,0h.81c1.62,0,2.74,0,3.28.07h0l.32,0c.14,0,.2-.06.2-.21V74.9c0-.15-.06-.21-.23-.21h-1.28c-.58,0-.81-.29-.81-1.21v-5.6a3.3,3.3,0,0,1,.35-1.42,1.51,1.51,0,0,1,1.22-.84,1.28,1.28,0,0,1,.81.23,2.19,2.19,0,0,0,1,.23,1.68,1.68,0,0,0,1.56-1.57A1.42,1.42,0,0,0,152,63.06c-1.27,0-2.49,1-3.48,2.61h-.11l-.26-2.08c0-.18-.09-.35-.26-.35a1.17,1.17,0,0,0-.37.08l-.1,0L143.93,65c-.17.08-.23.14-.23.26v.17c0,.12.06.18.23.23l.53.3c.87.46,1.1.92,1.1,2.26Zm24.54,2.35a.59.59,0,0,1-.58-.46L163,57.26c-.29-.81-.76-1-1.22-1H161a.18.18,0,0,1-.18-.2v-.76c0-.14.09-.2.24-.2h.27c.37,0,1.08.06,2.42.07h1c1.52,0,2.58,0,3.15-.07l.44,0h.07a.18.18,0,0,1,.17.2V56c0,.14-.06.23-.27.23h-.55a.69.69,0,0,0-.69,1l4.26,13.39.06,0c.23-.61,4.09-11.28,4.15-12.38a2.82,2.82,0,0,0-.53-1.54,1.22,1.22,0,0,0-1-.52h-.61a.18.18,0,0,1-.2-.2v-.73c0-.14,0-.23.23-.23h.3c.45,0,1.35.07,2.92.08h1.11c1.5,0,2.41,0,2.88-.08H181c.17,0,.2.09.2.26V56c0,.14-.06.23-.2.23h-1c-.58,0-.78.64-.64,1.13l4.18,13.4h.12l.18-.54c1.07-3.14,4-11.68,4-13.18,0-.4-.29-.81-1-.81h-.79c-.17,0-.2-.09-.2-.23v-.7a.2.2,0,0,1,.23-.23l.43,0c.38,0,1,.05,1.85.06h.8c1.17,0,2,0,2.38-.07l.24,0h.1c.12,0,.18.06.18.15V56c0,.14,0,.23-.21.23h-.61a1.43,1.43,0,0,0-1.27,1c-.15.33-1.83,4.89-3.48,9.38h0c-1.05,2.86-2.09,5.69-2.73,7.4l-.58,1.54c-.11.29-.35.75-.75.75s-.61-.29-.73-.64l-5.25-15.25h-.11l0,.12-5.47,15.22A.86.86,0,0,1,170.1,76.26Zm27.17-13a6.28,6.28,0,0,0-4.12,1.39,6.47,6.47,0,0,0-2.44,4.81,6.09,6.09,0,0,0,1.57,4.5A5.66,5.66,0,0,0,197,76a6.45,6.45,0,0,0,4.87-2.09,6.67,6.67,0,0,0,1.8-4.41,6.26,6.26,0,0,0-2-4.58A6.14,6.14,0,0,0,197.27,63.24Zm-2.35,10.32a2.42,2.42,0,0,0,2.29,1.25c1.91,0,2.9-2.41,2.9-5.37,0-3.18-1.68-5-3-5a2.26,2.26,0,0,0-1.82.78c-.9,1-1.25,2.24-1.25,4.35A6.78,6.78,0,0,0,194.92,73.56Zm13.33.35a.68.68,0,0,1-.75.78h-1c-.2,0-.26.06-.26.24v.63c0,.15.06.21.2.21l1.28-.06,1.3,0h.82c1.61,0,2.74,0,3.27.07h0l.32,0c.15,0,.21-.06.21-.21V74.9c0-.15-.06-.21-.24-.21h-1.27c-.58,0-.81-.29-.81-1.21v-5.6a3.28,3.28,0,0,1,.34-1.42,1.51,1.51,0,0,1,1.22-.84,1.28,1.28,0,0,1,.81.23,2.22,2.22,0,0,0,1,.23,1.69,1.69,0,0,0,1.57-1.57,1.42,1.42,0,0,0-1.51-1.45c-1.28,0-2.5,1-3.48,2.61h-.12l-.26-2.08c0-.18-.09-.35-.26-.35a1.05,1.05,0,0,0-.36.08l-.1,0L206.63,65c-.18.08-.23.14-.23.26v.17c0,.12,0,.18.23.23l.52.3c.87.46,1.1.92,1.1,2.26ZM220,73.65V64c0-1.54-.05-3.24-.09-4.2l0-.54a1.76,1.76,0,0,0-1.48-1.73l-.58-.18c-.17-.06-.17-.12-.17-.23V56.8c0-.06.06-.17.23-.23a24.42,24.42,0,0,0,4.35-1.68,2.55,2.55,0,0,1,.64-.18c.17,0,.29.12.29.53-.05,1.34-.1,6-.11,8.3v6.6c0,1.19,0,2.56,0,3.31l0,.32c.06.52.12.92.75.92H225c.29,0,.34.06.34.26v.53c0,.17,0,.29-.17.29l-.37,0c-.45,0-1.27,0-2.38-.07h-1.07c-.92,0-1.64,0-2.18,0l-1.13,0c-.18,0-.24-.12-.24-.29v-.55c0-.18.06-.24.41-.24h1.1C219.58,74.69,220,74.46,220,73.65Zm19.16-2.52V61.31c0-2.64,0-5.05.11-6.07.06-.35,0-.53-.17-.53a2.77,2.77,0,0,0-.46.06l-.29.06c-.54.12-1.67.25-2.8.37l-1.32.15c-.18.06-.23.12-.23.23v.52c0,.12,0,.18.23.24,1.56.29,1.8.69,1.82,1.68l.09,5.63a8.42,8.42,0,0,0-2.72-.41,5.7,5.7,0,0,0-4.3,1.85,7.17,7.17,0,0,0-2,5.25,5.43,5.43,0,0,0,1.8,4.27A4.82,4.82,0,0,0,232.39,76a6.26,6.26,0,0,0,4.06-1.68l.41,1.33c.06.23.23.35.4.29l3.89-1.1a.25.25,0,0,0,.17-.35l0-.35c-.06-.11-.18-.17-.58-.17a2,2,0,0,1-1.22-.52A5.93,5.93,0,0,1,239.18,71.13Zm-3.25,2.23a2.51,2.51,0,0,0,.23-1.16V67.13a2.58,2.58,0,0,0-2.84-2.76,2.39,2.39,0,0,0-2,.87,5.19,5.19,0,0,0-1.16,3.48c0,3.31,1.77,5.68,3.57,5.68A2.58,2.58,0,0,0,235.93,73.36Z" style="fill-rule: evenodd"/>
</svg>
