<svg xmlns="http://www.w3.org/2000/svg" viewBox="0 0 244 94">
  <path d="M45,5.3a57,57,0,0,1-3.6,6.9l2.4.9c-.1.4-.5.7-1.3.8V38.8c0,.3-1.8,1-3.3,1h-.8V16.6A62.48,62.48,0,0,1,20.7,32l-.4-.5C29,24.8,36.5,14.4,39.5,5.3H21.3L21,4.1H52.3L55,.6s3,2.3,5,4c-.1.5-.6.7-1.2.7ZM44.5,16c18.7,5.2,17.1,15.4,12.2,13-2.3-4.2-8.2-9.5-12.6-12.6Z"/>
  <path d="M89.8,35.2c1,.1,2.1.1,3.3.1,3.2,0,10.9,0,14.3-.1v.6c-1.4.3-2,1.6-2.1,3.2H93c-7.7,0-12-1.6-14.6-8.4a21.82,21.82,0,0,1-10.8,9.2l-.4-.5c6-4.2,8.4-10.8,9.2-16.4l5.9,1.2c-.2.6-.6.9-1.6.9a21.14,21.14,0,0,1-1.8,4.5,9.19,9.19,0,0,0,6.7,5V20.9H68.1l-.3-1.2h32.5l2.5-3.2s2.8,2.2,4.4,3.8c-.1.5-.6.7-1.2.7H89.8v5.9h6.5l2.6-3.4s2.8,2.3,4.6,3.9c-.1.5-.6.7-1.2.7H89.8ZM79.3,17c0,.4-1.9,1.3-3.6,1.3H75V.9l4.5,1.8H95.4L97.5.5l4.4,3.3a3.72,3.72,0,0,1-1.8.9v12c0,.3-2.2,1.1-3.5,1.1h-.7V15.7H79.3Zm0-13V8.6H95.9V4ZM95.8,14.5V9.8H79.3v4.7Z"/>
  <path d="M114.6,10.4c10,1.2,6.9,8.5,3.2,5.9a12.89,12.89,0,0,0-3.6-5.6Zm9.9-1.7c-1.1,5-3.2,14.1-3.5,16.2a13.29,13.29,0,0,0-.4,3.8c.1,2.1,1.6,3.9,1.4,7.6-.1,2-1.2,3.2-2.9,3.2-.9,0-1.6-.7-1.8-2.2.7-4.3.5-8.2-.4-8.8a4.35,4.35,0,0,0-2-.7v-.9h1.8c.6,0,.7,0,1.1-.9.7-1.5.7-1.5,6.2-17.6ZM117.1.3c10.5,1.3,7.4,8.8,3.5,6.2A14.53,14.53,0,0,0,116.7.6ZM134.8,17c10,1.2,7.9,6.9,5,5.7a18.65,18.65,0,0,0-5.8-5,39.63,39.63,0,0,1-11.1,6.5l-.4-.5a35.88,35.88,0,0,0,9.4-9.2l1,.3c1.7-2.7,2-6,2-9.4h-2l-.4-1.2h6.6l1.5-1.6,3.1,2.5a2.67,2.67,0,0,1-1.6.6c-.1,6.3-.6,8.5-1.8,9.5a5.07,5.07,0,0,1-3,.9,2.29,2.29,0,0,0-.4-1.7,3,3,0,0,0-1.5-.7V13c.7,0,1.7.1,2.3.1s.7,0,.9-.3c.5-.5.8-2.4.9-7.4h-1.8c-.3,4.1-1.5,7.3-3.8,9.7l3.1.9c-.2.5-.8.7-2,.7Zm6.5,13.1a1.62,1.62,0,0,1-1.7.6c-.9.9-1.9,2.1-3,3.3l5.6-.6V34c-3.6,1.2-8.7,2.7-15.7,4.6a1.53,1.53,0,0,1-1.2.9l-1.6-4.4c1.5-.1,4-.3,7-.6V28h-6.5l-.3-1.2h6.9V23.7h-3.5l-.3-1.2h7.1l1.7-2.2s1.9,1.6,3.1,2.8c-.1.5-.5.7-1.1.7h-3.6v3.1h2.5l1.7-2.1s2,1.5,3.2,2.6c-.1.5-.5.7-1.1.7h-6.3v6.2l.9-.1c.6-1.8,1.5-4.1,1.9-5.9Zm-17-16c1-.6,1.1-.9,1.1-1.5V3.2l3,.3c1.2-.9,2.3-1.9,3.4-2.9L135,3.4a1.29,1.29,0,0,1-1.5.1,29.46,29.46,0,0,1-5,1.7v7c.7-.5,1.5-1,2.3-1.5a15.1,15.1,0,0,0-1.4-3.4l.5-.3c5.9,3.5,3.2,8.3,1.1,6.2V11.9c-1,1.2-2.5,2.8-4,4.4a2.73,2.73,0,0,1-1,1.1Zm1.4,14.5c6.6,1.8,4.1,6.4,1.7,4.6a11,11,0,0,0-2.2-4.3Zm21-.4c0,.3-1.4,1.1-2.5,1.1h-.6V6.5L148,7c-.1.5-.4.8-1.2.9V28.2Zm7.5-26.8c-.1.6-.6,1-1.6,1.2V34.9c0,2.6-.5,4.2-4.8,4.6a3.77,3.77,0,0,0-.9-2.5,5.08,5.08,0,0,0-3.2-1.2v-.6s3.8.3,4.6.3.9-.2.9-.8V.8Z"/>
  <path d="M199.3,35.4c1.2.4,1.5.9,1.5,1.5,0,1.5-1.4,2-8.4,2h-4.5c-3.9,0-4.6-.7-4.6-3.2V31.9H180c-2,5.6-8.2,7.3-17.2,7.9l-.1-.7c7.2-1.2,11.4-3,12.8-7.2h-2.6v.5c0,.4-1.7,1.3-3.3,1.3H169V17.5l4.2,1.7h16.6l1.9-2.1,4,3.1a4,4,0,0,1-1.6.8V32.2c0,.3-2,1.1-3.2,1.1h-.7V31.8h-2.9v3.3c0,.5.1.6,1.5.6h7.5c.5,0,.7-.1.9-.5a26,26,0,0,0,1.6-3.9h.5ZM166.9,18.7l-3.8-2.5a12.7,12.7,0,0,1,1.2-1V.7l3.7,2h7.8l2-2.4S180,2,181.3,3.2c-.1.5-.5.7-1.1.7h-5.7v3h1.4l1.6-1.7L181,7.8a2.31,2.31,0,0,1-1.4.7V12c0,.3-1.7.9-2.8.9h-.6v-.7h-1.8v3.2h1.8l1.8-2.2s2.1,1.6,3.5,2.8c-.1.5-.5.7-1.1.7H168ZM171.3,7V4h-3.5V7Zm-3.4,1.2V11h8.4V8.2Zm3.4,4.1h-3.5v3.2h3.5Zm1.5,8.2V23h17.3V20.5Zm17.3,3.7H172.8v2.5h17.3Zm-17.3,6.4h17.3V27.9H172.8Zm7.5-21.4A24.73,24.73,0,0,0,184.8,0L190,1.9c-.2.5-.7.8-1.6.7a9.06,9.06,0,0,1-1.1,1.6H195l2.1-2.5s2.3,1.7,3.7,3c-.1.5-.5.7-1.1.7H186.4a17.94,17.94,0,0,1-5.5,4.2ZM196,17.6V16.3H185.4v.6c0,.3-1.4.9-2.5.9h-.4v-9l3.2,1.3h10l1.6-1.6,3.4,2.5a2.34,2.34,0,0,1-1.5.7v4.9c0,.3-1.6.9-2.6.9H196ZM194,5.4s1.8,1.4,3,2.4c-.1.5-.5.7-1.1.7H185.1l-.3-1.2h7.7ZM185.4,15h2.1V11.4h-2.1Zm4.2-3.6V15h2.1V11.4ZM196,15V11.4h-2.1V15Z"/>
  <path d="M216.5,18.6a4,4,0,0,1-2.1-3.4,3.06,3.06,0,0,1,3.2-3,3.84,3.84,0,0,1,2.8,1.1,6.06,6.06,0,0,1,.6,2.9,11.23,11.23,0,0,1-5.8,9.7l-.9-1.3a12,12,0,0,0,3.6-5Z"/>
  <path d="M55.3,55.7s3.1,2.2,4.9,3.8c-.1.5-.6.7-1.2.7H42.7A59.17,59.17,0,0,1,37.8,67H52.4l1.9-2.2,4.3,3.3a3.72,3.72,0,0,1-1.8.9V88.8c0,3-.6,4.7-5,5.2a7.35,7.35,0,0,0-.7-3,3.83,3.83,0,0,0-2.7-1.4V89s2.9.2,3.7.2c.6,0,.8-.3.8-.8V68.3H47V90.9c0,.3-1.2,1.1-3.1,1.1h-.7V68.3H37.3V91.6c0,.3-1.2,1-3.1,1h-.6V68.3H27.8V92.6c0,.4-1.6,1.4-3.3,1.4h-.6V65.3l4.3,1.8h8.2c.3-1.9.7-4.6,1-6.8H21.1L20.7,59h32Z"/>
  <path d="M89.8,89.5c1,.1,2.1.1,3.3.1,3.2,0,10.9,0,14.3-.1v.6c-1.4.3-2,1.6-2.1,3.2H93c-7.7,0-12-1.6-14.6-8.4a21.82,21.82,0,0,1-10.8,9.2l-.4-.5c6-4.2,8.4-10.8,9.2-16.4l5.9,1.2c-.2.6-.6.9-1.6.9a21.14,21.14,0,0,1-1.8,4.5,9.19,9.19,0,0,0,6.7,5V75.3H68.1L67.7,74h32.5l2.5-3.2s2.8,2.2,4.4,3.8c-.1.5-.6.7-1.2.7H89.8v5.9h6.5l2.6-3.4s2.8,2.3,4.6,3.9c-.1.5-.6.7-1.2.7H89.8ZM79.3,71.4c0,.4-1.9,1.3-3.6,1.3H75V55.3l4.5,1.8H95.4l2.1-2.2,4.4,3.3a3.72,3.72,0,0,1-1.8.9v12c0,.3-2.2,1.1-3.5,1.1h-.7V70H79.3Zm0-13.1V63H95.9V58.4H79.3ZM95.8,68.9V64.2H79.3v4.7Z"/>
  <path d="M120,66.1V92.6c0,.5-1.3,1.5-3,1.5h-.6V55l3.8,1.8h8.1L130,55l3.7,2.8a3.37,3.37,0,0,1-1.6.8v8c0,.3-1.8.9-2.9.9h-.6V66.1Zm0-8.1v2.9h8.7V58Zm8.7,6.8V62.1H120v2.7Zm16.7,21.6c.9.3,1.1.7,1.1,1.3,0,1.2-1.1,1.7-5.6,1.7h-2.6c-2.8,0-3.2-.7-3.2-2.7V81.8h-1.8c-1.2,5.4-5,7.9-11.8,9.2l-.2-.7c5.4-1.8,7.6-4.3,8.4-8.5h-.5v.5c0,.3-1.5,1-2.9,1h-.5V74.4a35.09,35.09,0,0,1-5.3,1.5l-.3-.6c3.7-1.8,8-4.9,10-7.6l4.4,2.6c-.3.4-.7.5-1.4.3a23,23,0,0,1-5.9,3.2l2.1.9h9.1l1.6-1.7,3.5,2.6a1.61,1.61,0,0,1-1.3.6v5.4c0,.3-1.7,1.1-2.8,1.1h-.6v-.9h-.4v4.3c0,.4.1.6.9.6h3.7a.71.71,0,0,0,.6-.3,16.64,16.64,0,0,0,1.1-3.4h.5Zm-16.2-5.9h9.6V75.8h-9.6Zm7.1-12.3c12.9,2.3,11.8,9.7,7.9,8.1-1.6-2.6-5.5-5.9-8.3-7.7Zm17.5-10.5a4.28,4.28,0,0,1-1.8.9v31c0,2.6-.6,4-5.4,4.4-.2-1-.4-1.8-1.1-2.2a8.9,8.9,0,0,0-4-1.2V90s4.8.3,5.8.3,1.1-.3,1.1-1V66.1h-8.7v.5c0,.3-1.6,1.1-3,1.1h-.5V55.1l3.8,1.6h8l1.8-2.1Zm-14.1.3v2.9h8.7V58Zm8.6,6.8V62.1h-8.7v2.7Z"/>
  <path d="M174.6,60s2.3,1.8,3.6,3a1,1,0,0,1-1.1.7H161.8l-.3-1.2h11.2Zm-3.3,8,1.8-2.3a41.47,41.47,0,0,1,3.4,2.9,1,1,0,0,1-1.1.7H163.5l-.3-1.2h8.1Zm1.8,3.2a41.47,41.47,0,0,1,3.4,2.9,1,1,0,0,1-1.1.7H163.5l-.3-1.2h8.1Zm2.4,19.7c0,.3-1.7,1.1-2.9,1.1H172V89.9h-5v2.6c0,.3-1.5,1.2-2.9,1.2h-.5V77.4l3.6,1.6h4.5l1.8-1.9,3.8,2.9a3.83,3.83,0,0,1-1.7.8V90.9ZM165.7,55c9.8,1.3,6.5,8.5,2.8,6a13.41,13.41,0,0,0-3.2-5.7Zm6.4,33.7V80.2H167v8.5Zm2.8,4.8a45.65,45.65,0,0,0,9.4-6.8l4.2,2.9c-.3.4-.7.6-1.6.3A48,48,0,0,1,175.4,94Zm1.8-35.3h9.7V54.4l5.1.5c-.1.6-.4,1-1.5,1.2v2.1h5.1l2.1-2.6s2.3,1.8,3.8,3.2c-.1.5-.5.7-1.1.7H190v3.1h3.4l2-2.4s2.2,1.7,3.6,3c-.1.5-.5.7-1.1.7H178.8l-.3-1.2h7.9V59.6H177Zm20.8,6,3.5,2.6a2,2,0,0,1-1.3.6v5.3c0,.3-1.8,1-2.9,1h-.1l2.5,1.9a2,2,0,0,1-1.4.7V86.4c0,.3-1.8,1.2-3,1.2h-.6V86.4H182.6v.7c0,.3-1.2,1.1-2.9,1.1H179V74.1a4.12,4.12,0,0,1-1.2.1h-.6V64.3l3.7,1.5h14.9Zm-1.3,9.2v-.9H180.7v.7c0,.1-.2.3-.6.5l2.7,1.1h10.9l1.8-1.8Zm-15.5-6.3v4.1h3.5V67.1Zm1.9,11.1h11.6V76H182.6Zm0,3.6h11.6V79.5H182.6Zm11.6,3.5V83H182.6v2.3Zm-4-14.1V67.1h-3.3v4.1Zm-.5,16.3c16.7,1.7,10.1,9,7,5.8a18.48,18.48,0,0,0-7.2-5.2Zm3.2-20.4v4.1h3.3V67.1Z"/>
  <path d="M211.6,74.2a6.05,6.05,0,0,1,12.1,0,6.05,6.05,0,1,1-12.1,0Zm1.6,0a4.48,4.48,0,0,0,4.5,4.5,4.5,4.5,0,1,0-4.5-4.5Z"/>
</svg>
