<svg xmlns="http://www.w3.org/2000/svg" viewBox="0 0 244 94">
  <path d="M21.05.87V24.31h.5c1.4,0,3.19-1.25,3.19-1.82V2.43c1-.16,1.33-.54,1.4-1.07ZM29,6.68,28.58,7c2.92,3,6.61,7.56,7.86,11.21C40.55,21,42.9,12.19,29,6.68ZM13.26,6.3c-1.25,5-4.21,12.12-8,16.8l.38.38c5.32-3.92,9.08-10,11.21-14.56,1,0,1.33-.19,1.48-.6ZM31.2,17.55C25.57,29.06,17.06,32.83,6.42,35.49l.16.64c12-1.48,20.7-4.56,27.7-15.73,1,.19,1.44,0,1.74-.38ZM73.64,4.21V8.28H62.21V4.21ZM62.21,13.14V9.38H73.64v3.76ZM49.1,23.93V5.47H53V23.93Zm27.81-7.52-1.78,1.86H63.73a24.48,24.48,0,0,0,1.74-2.13c1,.12,1.26,0,1.45-.38l-4.37-1.52H73.64v1.41h.57a4.26,4.26,0,0,0,2.85-.8V4.44a2.24,2.24,0,0,0,1.45-.68L75.16,1.17,73.53,3.11H62.62L58.9,1.59V16.11h.61a4.85,4.85,0,0,0,2.13-.42,30,30,0,0,1-5.48,7.9V6a2.82,2.82,0,0,0,1.6-.8L54.26,2.5,52.59,4.36h-3.3L46,2.88V30.13h.53c1.41,0,2.59-.76,2.59-1.14V25H53v3.11h.5c1.14,0,2.66-.83,2.69-1.14V24.28l.08.07a19.85,19.85,0,0,0,2.58-1.63v6.5c0,2.05.54,2.69,3.65,2.69h3.76c5.74,0,7-.38,7-1.67,0-.57-.34-.83-1.29-1.18l-.15,0h-.34a3.87,3.87,0,0,1-.91.19c-.19,0-.54,0-.88.07s-1.78,0-3.11,0H63.19c-1.25,0-1.36-.15-1.36-.65V23.55c.68-.11,1.06-.45,1.14-.91l-3.58-.34a40,40,0,0,0,3.31-2.93h4.1A16.84,16.84,0,0,1,62.55,28l.34.49A13.6,13.6,0,0,0,68,23.9a12.51,12.51,0,0,1,3,3.72c2.59,1.56,4.52-3.12-2.54-4.41a11.42,11.42,0,0,0,1-1.86c.91,0,1.22-.15,1.37-.57l-3.72-1.41h8.32c-.23,8-.65,12.35-1.52,13.19a1.6,1.6,0,0,1-1.26.38c-.68,0-2.88-.15-4.18-.27l0,.57a7.2,7.2,0,0,1,3.07,1.11,2.2,2.2,0,0,1,.61,1.82c1.79,0,3.27-.23,4.3-1.18,1.55-1.48,2.09-5.58,2.35-15.12a2.3,2.3,0,0,0,1.52-.65Zm7.53.27.38,1.25h33.63c.6,0,1.06-.15,1.17-.61-1.93-1.82-5.13-4.48-5.13-4.48l-2.81,3.84Zm49.09-5.82h5.55c.53,0,.95-.19,1-.61-1.3-1.25-3.46-3-3.46-3l-1.9,2.55h-1.22V2.46c1-.15,1.29-.53,1.41-1.1L130,.87V9.76h-5.86l.31,1.1h5c-1.14,5.7-3.23,11.71-6.2,16.08l.53.45A32.46,32.46,0,0,0,130,19.15V36.06h.68c1.33,0,2.81-.73,2.81-1.11V13.67a13,13,0,0,1,2.36,5.44c2.89,2.47,6.12-3.38-2.36-6.2ZM148.2,12.5a38.68,38.68,0,0,0,3.31-7h6.8c.57,0,.95-.19,1.06-.6-1.48-1.37-3.87-3.31-3.87-3.31L153.37,4.4H136.08l.3,1.1h11c-2.25,7.11-6.62,14.25-12.62,19l.42.46a37.61,37.61,0,0,0,10.18-8.44V35.94H146a4.27,4.27,0,0,0,2.85-1V13.9c.68-.11,1.06-.34,1.17-.72Zm1.48,2.09c2.47,2.35,5.59,6,6.65,9.08,3.84,2.47,6.12-5.44-6.27-9.39Zm17.9,9.72V6.91h3v17.4ZM182.21,9h-2.39V3c1-.15,1.25-.53,1.33-1.06l-4.41-.46V9h-3V7.29A2.27,2.27,0,0,0,175,6.64l-3.19-2.5-1.52,1.67h-2.55L164.69,4.4V31h.46c1.33,0,2.43-.76,2.43-1.06V25.38h3v3.3h.49a3.86,3.86,0,0,0,2.59-1V9.42l.23.72h2.81v3.57c0,7.72-.88,16-6.08,21.74l.49.42c7.22-5.29,8.63-14.06,8.67-22.12V10.14h2.77c0,13.72-.15,19.38-1.14,20.44-.27.35-.53.42-1.1.42s-2.21-.07-3.23-.19v.61a5.34,5.34,0,0,1,2.39,1.06,3.28,3.28,0,0,1,.53,2.28,4.63,4.63,0,0,0,3.84-1.67c1.52-1.82,1.71-6.91,1.79-22.49a2.42,2.42,0,0,0,1.52-.65L184,7.18Zm8.44,19.57V7.44h3.45V28.61Zm4.78-24L193.8,6.34h-3l-3.31-1.52V35.18h.57c1.41,0,2.59-.8,2.59-1.18V29.71h3.45v4h.54a4.3,4.3,0,0,0,2.85-1.14V7.78a1.89,1.89,0,0,0,1.17-.6Zm12.2,18V5.85h3.31V22.6Zm13-14.21h-5.55l.3,1.07h5.25v6.42H215.5l.34,1.1h4.83v3.15c0,.76,0,1.49-.08,2.17-2.66.72-5.09,1.37-6.35,1.63V6.26a2.38,2.38,0,0,0,1.3-.64L212.23,3,210.6,4.74h-2.82l-3.3-1.48v27.1H205c1.45,0,2.66-.73,2.66-1.11V23.71h3.31v4.06h.53a4.49,4.49,0,0,0,2.77-1V24.39l1.3,3.5a1.44,1.44,0,0,0,.91-1c1.56-1.1,2.89-2.13,4-3-.69,5.2-3,8.85-7.94,11.81l.38.46C221.2,33,224,27.89,224,20.13V3c1-.16,1.25-.54,1.37-1.07l-4.71-.45Zm12.8,15.81h-2.62V17h5.81a.86.86,0,0,0,1-.61c-1.14-1.29-3.23-3.15-3.23-3.15l-1.86,2.66h-1.67V9.49h6.27c.53,0,.91-.19,1-.6-1.26-1.26-3.35-3.2-3.35-3.2l-1.9,2.74h-2.05V3.07c1-.15,1.25-.53,1.33-1.06l-4.86-.53V36.09H228c1.37,0,2.89-.83,2.89-1.29V25.26h7c.53,0,.95-.19,1-.57-1.26-1.36-3.46-3.38-3.46-3.38ZM5.85,93.13a35.37,35.37,0,0,0,13.68-8.55c.88.15,1.22,0,1.45-.38l-4.53-2.62A36.51,36.51,0,0,1,5.51,92.68Zm20-10.33c3.38,2.39,7.71,6.46,9.46,9.8,4.45,2.24,6.12-6.73-9.12-10.18ZM18.2,68.43h8.67V79H18.2ZM34,79h-3.5V68.43h7.76c.53,0,.87-.19,1-.61-1.4-1.4-3.8-3.26-3.8-3.26l-2.09,2.77H30.51v-7.6c1-.15,1.33-.53,1.41-1.1l-5.05-.46v9.16H18.2v-7.6c1-.15,1.29-.53,1.37-1.1l-5-.46v9.16H6.39l.3,1.1h7.9V79H5.13l.31,1.1H39.37c.57,0,1-.19,1.1-.61C38.87,78,36.29,76,36.29,76ZM53.2,89.14V83.4h8.06v5.74ZM61,70.94v3H51.79v-3Zm-9.31,7c.07-1.06.07-2,.07-3H61v3Zm9.16,4.33H53.69l-2.43-.91c.15-.8.27-1.56.34-2.32H61v1.18h.57a5.74,5.74,0,0,0,2.81-.87V71.51a3.45,3.45,0,0,0,1.6-.76L62.28,68l-1.63,1.86H52.4l-3.53-1.37c.87-.68,1.71-1.37,2.51-2.13l.19.76h9.65c.53,0,.91-.19,1-.61C61,65.35,59,63.8,59,63.8L57.19,66H51.76a34.47,34.47,0,0,0,5-6,16,16,0,0,1,6.35,7.07c3,2.13,6.57-4.82-6-7.48,1-.08,1.4-.31,1.55-.76l-5.24-1.22a36.1,36.1,0,0,1-9.23,13.19l.38.34a28,28,0,0,0,4-2.43V75c0,5.28-.42,11.51-4.07,16.53l.42.42a15.87,15.87,0,0,0,5-6.27V93h.57c1.64,0,2.7-.72,2.7-1V90.24h8.06v2.25h.53a5.58,5.58,0,0,0,2.85-.84V84a2.32,2.32,0,0,0,1.48-.76l-3.61-2.66ZM71.29,62.47c.95-.12,1.25-.5,1.33-1L68.1,61V85.15h.6c1.22,0,2.59-.68,2.59-1.06Zm3.61-4v29.9c0,.53-.19.76-.8.76-.8,0-4.45-.26-4.45-.26v.57a4.88,4.88,0,0,1,3.12,1.21,4,4,0,0,1,.8,2.47c4.22-.42,4.75-1.9,4.75-4.44V60c.87-.12,1.25-.5,1.37-1Zm9.54,15.2.38,1.25h33.63c.6,0,1.06-.15,1.17-.61-1.93-1.82-5.13-4.48-5.13-4.48l-2.81,3.84Zm64.22,9.15h-4.83V76.22h4.83Zm4-12.84c.54,0,.88-.19,1-.61-1.06-1.14-2.85-2.7-2.85-2.7l-1.59,2.21h-1.6V64.67c.87-.15,1.18-.49,1.25-1l-4.18-.38v5.59h-5.24l.3,1.1h4.94v5.13H144l-2.85-1.25V86.41h.34c1.14,0,2.32-.61,2.32-.88V83.94h4.83v2h.49a3.28,3.28,0,0,0,2.24-.83V76.75a2.86,2.86,0,0,0,1.37-.6l-2.39-2.47-1.22,1.44h-1.52V70ZM138.59,88.88V62.05h15.27V88.88Zm16.72-29.95-1.83,2H138.81l-2.92-1.3,0-.11-5.1-1.71a66.79,66.79,0,0,1-7.44,18.92l.49.31a33.48,33.48,0,0,0,4.29-4.87V93h.65a3.94,3.94,0,0,0,2.77-1V69.34c.69-.15,1-.38,1.14-.72l-1.82-.72a55.2,55.2,0,0,0,3.5-7.68,4.68,4.68,0,0,0,.83-.07V92.9h.61c1.48,0,2.74-.79,2.74-1.25V90h15.27v2.54h.53c1.33,0,3-.83,3-1.17V62.69a3,3,0,0,0,1.6-.79ZM192,90.24h-9V79h11.44c.53,0,.95-.19,1-.61-1.64-1.41-4.3-3.38-4.3-3.38l-2.35,2.89h-5.82V68.2h12.66c.57,0,.95-.19,1.06-.6-1.71-1.49-4.29-3.35-4.29-3.35L190,67.1h-7.11V59.58c1-.15,1.29-.53,1.37-1.1L179,57.94V67.1H172.1a47.65,47.65,0,0,0,2.59-5.58c.87,0,1.33-.31,1.48-.76l-5.36-1.64a51.3,51.3,0,0,1-7.68,17.82l.5.35a31.92,31.92,0,0,0,7.86-9.09H179v9.66H167.85l.3,1.1H179V90.24H163.44l.34,1.11h34c.57,0,.95-.19,1.07-.61-1.68-1.48-4.41-3.54-4.41-3.54Zm44-15.42a.92.92,0,0,0,1-.61c-1.26-1.22-3.35-2.89-3.35-2.89l-1.82,2.39H226V71.24c.73-.11,1.07-.45,1.14-.95l-4.48-.41v8.7c0,2.2.61,2.85,3.88,2.85h3.68c5.74,0,7.15-.42,7.15-1.83,0-.57-.27-.95-1.3-1.29L236,75.88h-.42a8.89,8.89,0,0,1-1.21,2.43,1.12,1.12,0,0,1-.84.27c-.42,0-1.63,0-2.89,0h-3.3c-1.14,0-1.3-.12-1.3-.65V74.82ZM218.69,82a12.22,12.22,0,0,1,3.84,5.28c3.08,2,5.43-4.06-3.46-5.58Zm11.25-12.62c5.55,0,6.91-.3,6.91-1.67,0-.61-.34-.87-1.36-1.21l-.16,0H235a6.63,6.63,0,0,1-.95.19c-.19,0-.6,0-.87.07-.46,0-1.63,0-2.85,0h-3.15c-1.14,0-1.26-.19-1.26-.68V63.26h9.73c.53,0,.87-.19,1-.6-1.26-1.26-3.31-2.93-3.31-2.93l-1.86,2.43h-5.55v-3c.69-.12,1.07-.42,1.1-.91l-4.37-.42v8.66c0,2.13.57,2.81,3.77,2.81ZM208.13,82.87a6.06,6.06,0,0,1-3.08,5,2,2,0,0,0-1.26,2.39c.46,1.07,1.87,1.18,3,.54,1.63-1,3.19-3.73,2-7.91Zm.72-10.79A11.81,11.81,0,0,1,213.79,74c2.89.38,1.48-5-4.94-3V69.5h7.67v4.63a58.37,58.37,0,0,1-7.86,1.6,17.22,17.22,0,0,0,.19-2.7ZM216.52,78c0,.46-.11.68-.64.68-.69,0-3.12-.19-3.12-.19V79a4.13,4.13,0,0,1,2.36.88,3.07,3.07,0,0,1,.57,1.82c3.49-.3,3.95-1.48,3.95-3.49V70.1a2.73,2.73,0,0,0,1.6-.79l-3.58-2.7-1.52,1.78h-6.72l-3.65-1.48a2,2,0,0,0,.91-.87c4.49-.72,8.51-1.56,11.29-2.21a6.75,6.75,0,0,1,.8,2c3,2,5.32-4.1-3.27-5.55l-.34.27A14.43,14.43,0,0,1,217.4,63c-3.73.11-7.26.23-9.88.27a35.08,35.08,0,0,0,6.65-3.54c.83.15,1.33-.15,1.48-.53L211,57.22c-1,1.56-3.73,4.6-5.93,5.55-.34.11-1,.27-1,.27L205.69,67h0V73c0,3.19-.19,6.46-2.7,9l.38.46A8.83,8.83,0,0,0,208.35,77l1,2.28a1.33,1.33,0,0,0,.84-1,46.39,46.39,0,0,0,6.38-3.23Zm13.15,6.8h-.45a22.74,22.74,0,0,1-1.6,4.07c-.23.34-.42.45-1,.49s-2.39.08-4.37.08h-5c-1.6,0-1.79-.15-1.79-.69V83.78c.76-.11,1.1-.45,1.18-1l-4.79-.41v6.84c0,2.39.88,3,4.9,3H222c7.67,0,9.27-.34,9.27-1.9,0-.61-.3-1-1.44-1.41Zm.76-1.33c1.79,1.6,3.69,4.3,4,6.58,3.38,2.39,6-4.64-3.65-6.84Z"/>
</svg>
