<svg viewBox="0 0 244 94"><path d="M54.5 5.4c-1 2.3-2.2 4.6-3.7 6.9l2.4.9c-.1.4-.5.7-1.3.8v25.1c0 .3-1.8 1-3.4 1h-.8V16.7C43.1 22.8 37 28.4 30.1 32.3l-.4-.5C38.4 25 46 14.5 49 5.4H30.6l-.3-1.2h31.6L64.7.8s3.1 2.3 5 4c-.1.5-.6.7-1.2.7h-14zm-.4 10.8c18.8 5.3 17.3 15.5 12.3 13.1-2.4-4.3-8.3-9.6-12.7-12.7l.4-.4zM100.5 35.5c1 .1 2.2.1 3.4.1 3.2 0 11 0 14.4-.1v.6c-1.4.3-2 1.6-2.1 3.2h-12.4c-7.8 0-12.1-1.6-14.8-8.4-2.2 3.7-5.5 7-10.8 9.3l-.4-.5c6-4.3 8.5-10.9 9.3-16.5l5.9 1.2c-.2.6-.6.9-1.6.9-.4 1.5-1 3.1-1.8 4.6 1.6 2.9 3.7 4.4 6.7 5.1V21.1H78.7l-.3-1.2h32.8l2.5-3.3s2.8 2.2 4.4 3.8c-.1.5-.6.7-1.2.7h-16.3V27h6.6l2.6-3.4s2.8 2.3 4.6 3.9c-.1.5-.6.7-1.2.7h-12.6v7.3zM89.9 17.2c0 .4-1.9 1.3-3.7 1.3h-.6V1l4.5 1.8h16l2.1-2.2 4.4 3.3c-.3.3-.9.7-1.8.9v12c0 .3-2.2 1.1-3.6 1.1h-.7v-2.1H89.9v1.4zm0-13.1v4.6h16.7V4.1H89.9zm16.7 10.6V9.9H89.9v4.7h16.7zM126.4 10.5c10.1 1.2 7 8.5 3.2 6-.5-2-2.2-4.3-3.6-5.6l.4-.4zm10-1.7c-1.1 5-3.2 14.2-3.6 16.3-.3 1.4-.5 2.8-.4 3.9.1 2.1 1.6 4 1.4 7.7-.1 2-1.2 3.3-2.9 3.3-.9 0-1.6-.7-1.8-2.2.7-4.3.5-8.2-.4-8.9-.6-.4-1.2-.6-2.1-.7v-.9h1.8c.6 0 .7 0 1.1-.9.7-1.5.7-1.5 6.3-17.8l.6.2zM128.9.3c10.6 1.3 7.4 8.8 3.6 6.2-.6-2.1-2.4-4.4-3.9-5.9l.3-.3zm17.9 16.9c10 1.2 8 7 5 5.7-1-1.5-3.2-3.5-5.8-5-2.8 2.3-7 5-11.2 6.5l-.4-.5c3.7-2.3 7.7-6.5 9.5-9.3l1 .3c1.7-2.7 2.1-6 2-9.5h-2l-.4-1.2h6.6l1.5-1.6 3.1 2.5c-.3.3-.8.5-1.6.6-.1 6.4-.6 8.6-1.8 9.6-.8.6-1.9.9-3.1.9 0-.7 0-1.3-.4-1.7-.3-.3-.9-.6-1.5-.7v-.7c.7 0 1.7.1 2.3.1.5 0 .7 0 .9-.3.5-.5.8-2.5.9-7.5h-1.8c-.3 4.1-1.5 7.3-3.8 9.8l3.1.9c-.2.5-.8.7-2 .7l-.1.4zm6.5 13.2c-.2.4-.8.7-1.7.6-.9.9-1.9 2.2-3 3.3 1.8-.2 3.7-.4 5.7-.6v.6c-3.7 1.2-8.8 2.7-15.8 4.6-.3.5-.7.9-1.2.9l-1.6-4.4c1.5-.1 4-.3 7.1-.6v-6.6h-6.6l-.3-1.2h6.9v-3.1h-3.5l-.3-1.2h7.1l1.7-2.2s1.9 1.6 3.1 2.8c-.1.5-.5.7-1.1.7h-3.7v3h2.5l1.7-2.1s2 1.5 3.3 2.7c-.1.5-.5.7-1.1.7h-6.4v6.3l.9-.1c.6-1.8 1.5-4.2 1.9-5.9l4.4 1.8zm-17.1-16.1c1-.6 1.1-.9 1.1-1.5V3.3l3 .3c1.2-.9 2.4-1.9 3.4-3l3.2 2.8c-.3.3-.8.4-1.5.1-1.5.7-3.4 1.3-5 1.7v7.1c.7-.5 1.5-1 2.3-1.5-.3-1.2-.9-2.5-1.4-3.4l.5-.3c6 3.5 3.2 8.3 1.1 6.2V12c-1 1.2-2.5 2.8-4 4.4-.3.6-.7.9-1 1.1l-1.7-3.2zm1.4 14.5c6.6 1.8 4.1 6.4 1.7 4.6-.3-1.5-1.3-3.3-2.2-4.3l.5-.3zm21.1-.3c0 .3-1.4 1.1-2.5 1.1h-.6v-23l4.4.5c-.1.5-.4.8-1.2.9v20.5zm7.6-27.1c-.1.6-.6 1-1.6 1.2v32.6c0 2.7-.5 4.2-4.8 4.6-.1-1.1-.3-1.9-.9-2.5-.6-.6-1.5-1-3.3-1.2v-.6s3.8.3 4.6.3c.7 0 .9-.2.9-.8V1l5.1.4zM212.6 35.7c1.2.4 1.5.9 1.5 1.5 0 1.5-1.4 2-8.5 2H201c-3.9 0-4.6-.7-4.6-3.2v-3.8h-3.3c-2 5.6-8.3 7.4-17.3 7.9l-.1-.7c7.2-1.2 11.4-3.1 12.9-7.2h-2.7v.5c0 .4-1.7 1.3-3.3 1.3h-.6V17.7l4.2 1.7h16.7l1.9-2.1 4 3.1c-.3.3-.9.6-1.6.8v11.3c0 .3-2 1.1-3.3 1.1h-.7v-1.5h-2.9v3.4c0 .5.1.6 1.5.6h7.6c.5 0 .7-.1.9-.5.4-.6.9-2 1.6-4h.5l.2 4.1zM180 18.9l-3.9-2.5c.3-.3.8-.7 1.2-1V.8l3.7 2h7.8l2-2.4s2.2 1.7 3.6 3c0 .4-.4.6-1 .6h-5.8v3.1h1.4l1.6-1.7 3.5 2.6c-.2.3-.8.6-1.4.7v3.5c0 .3-1.7.9-2.8.9h-.6v-.7h-1.8v3.3h1.8l1.9-2.2s2.2 1.6 3.5 2.8c-.1.5-.5.7-1.1.7h-12.5l-1.1 1.9zm4.4-11.8V4h-3.5v3.1h3.5zm-3.5 1.2v2.8h8.4V8.3h-8.4zm3.5 4.1h-3.5v3.3h3.5v-3.3zm1.5 8.3v2.5h17.4v-2.5h-17.4zm17.4 3.7h-17.4v2.5h17.4v-2.5zm-17.4 6.5h17.4v-2.7h-17.4v2.7zm7.6-21.6c1.8-2.2 3.6-5.6 4.6-9.3l5.2 1.9c-.2.5-.7.8-1.6.7-.3.6-.7 1.1-1.1 1.6h7.7l2.1-2.5s2.3 1.7 3.7 3.1c-.1.5-.5.7-1.1.7h-13.4c-1.7 1.9-3.6 3.3-5.6 4.3l-.5-.5zm15.7 8.5v-1.3h-10.7v.5c0 .3-1.4.9-2.5.9h-.4V9l3.2 1.3h10.1l1.6-1.6 3.4 2.5c-.2.3-.8.6-1.5.7v4.9c0 .3-1.6.9-2.6.9h-.6zm-1.9-12.3s1.9 1.4 3.1 2.5c-.1.5-.5.7-1.1.7h-10.9l-.4-1.3h7.7l1.6-1.9zm-8.7 9.7h2.2v-3.7h-2.2v3.7zm4.2-3.7v3.7h2.2v-3.7h-2.2zm6.4 3.7v-3.7H207v3.7h2.2zM65 55.4s3.1 2.2 4.9 3.9c-.1.5-.6.7-1.2.7H52.2c-1.5 2.3-3.3 4.9-4.9 6.8H62l1.9-2.2 4.3 3.4c-.3.3-.9.7-1.8.9v20c0 3-.6 4.8-5 5.2-.1-1.3-.3-2.4-.7-3.1-.5-.6-1.2-1.2-2.8-1.4V89s2.9.2 3.7.2c.6 0 .8-.3.8-.8V68.1h-6v22.8c0 .3-1.2 1.1-3.1 1.1h-.7V68.1h-5.9v23.5c0 .3-1.2 1-3.1 1H43V68.1h-5.8v24.5c0 .4-1.6 1.4-3.3 1.4h-.6V65l4.3 1.8h8.3c.3-1.9.7-4.6 1-6.8H30.5l-.4-1.2h32.3l2.6-3.4zM100.5 89.4c1 .1 2.2.1 3.4.1 3.2 0 11 0 14.4-.1v.6c-1.4.3-2 1.6-2.1 3.2h-12.4c-7.8 0-12.1-1.6-14.8-8.4-2.2 3.7-5.5 7-10.8 9.3l-.4-.5c6-4.3 8.5-10.9 9.3-16.5l5.9 1.2c-.2.6-.6.9-1.6.9-.4 1.5-1 3.1-1.8 4.6 1.6 2.9 3.7 4.4 6.7 5.1V75.1H78.7l-.3-1.2h32.8l2.5-3.3s2.8 2.2 4.4 3.8c-.1.5-.6.7-1.2.7h-16.3V81h6.6l2.6-3.4s2.8 2.3 4.6 3.9c-.1.5-.6.7-1.2.7h-12.6v7.2zM89.9 71.2c0 .4-1.9 1.3-3.7 1.3h-.6V54.9l4.5 1.8h16l2.1-2.2 4.4 3.3c-.3.3-.9.7-1.8.9v12c0 .3-2.2 1.1-3.6 1.1h-.7v-2.1H89.9v1.5zm0-13.2v4.6h16.7V58H89.9zm16.7 10.6v-4.7H89.9v4.7h16.7zM131.9 65.8v26.7c0 .5-1.3 1.5-3 1.5h-.6V54.6l3.9 1.8h8.1l1.7-1.8 3.7 2.8c-.2.3-.9.6-1.6.8v8.1c0 .3-1.8.9-2.9.9h-.6v-1.4h-8.7zm0-8.2v3h8.7v-3h-8.7zm8.7 7v-2.7h-8.7v2.7h8.7zm16.8 21.7c.9.3 1.1.7 1.1 1.3 0 1.2-1.1 1.7-5.6 1.7h-2.6c-2.8 0-3.2-.7-3.2-2.8v-4.9h-1.8c-1.2 5.5-5 8-11.9 9.3l-.2-.7c5.4-1.9 7.7-4.3 8.4-8.6h-.5v.5c0 .3-1.5 1-2.9 1h-.5v-9c-1.8.6-3.6 1.2-5.3 1.5l-.3-.6c3.7-1.8 8-4.9 10.1-7.7l4.4 2.7c-.3.4-.7.5-1.4.3-1.4 1.2-3.6 2.2-5.9 3.2l2.1.9h9.1l1.6-1.7 3.5 2.6c-.2.3-.7.6-1.3.6v5.4c0 .3-1.7 1.1-2.8 1.1h-.6v-.9h-.4V86c0 .4.1.6.9.6h3.7c.3 0 .4-.1.6-.3.3-.5.7-1.8 1.1-3.4h.5l.1 3.4zm-16.3-5.9h9.7v-4.7h-9.7v4.7zm7.1-12.4c13 2.3 11.9 9.8 8 8.2-1.6-2.6-5.6-5.9-8.4-7.7l.4-.5zm17.7-10.6c-.3.3-1 .7-1.9.9v31.2c0 2.6-.6 4-5.5 4.4-.2-1-.4-1.8-1.1-2.2-.7-.5-1.8-.9-4-1.2V90s4.9.3 5.9.3c.9 0 1.1-.3 1.1-1V65.8h-8.7v.5c0 .3-1.6 1.1-3.1 1.1h-.5V54.8l3.8 1.6h8.1l1.8-2.2 4.1 3.2zm-14.2.2v3h8.7v-3h-8.7zm8.7 7v-2.7h-8.7v2.7h8.7zM187.7 59.7s2.3 1.8 3.7 3.1c-.1.5-.6.7-1.1.7h-15.4l-.3-1.2h11.3l1.8-2.6zm-3.3 8l1.8-2.3s2.1 1.6 3.4 2.9c-.1.5-.6.7-1.1.7h-12l-.3-1.2h8.2zm1.8 3.2s2.1 1.6 3.4 2.9c-.1.5-.6.7-1.1.7h-12l-.3-1.2h8.2l1.8-2.4zm2.5 20c0 .3-1.7 1.1-2.9 1.1h-.6v-2.2H180v2.6c0 .3-1.5 1.2-2.9 1.2h-.5V77.2l3.7 1.6h4.6l1.8-1.9 3.8 2.9c-.3.3-.9.6-1.7.8v10.3zm-10-36.3c9.9 1.3 6.6 8.5 2.8 6-.4-2-1.9-4.3-3.2-5.8l.4-.2zm6.5 34V80H180v8.6h5.2zm2.9 4.9c3.4-1.8 7.5-4.8 9.5-6.8l4.2 2.9c-.3.4-.7.6-1.6.3-2.8 1.5-7.5 3.2-11.6 4.2l-.5-.6zm1.7-35.6h9.8v-3.8l5.2.5c-.1.6-.4 1-1.5 1.2V58h5.1l2.2-2.6s2.4 1.9 3.8 3.2c-.1.5-.5.7-1.1.7h-10v3.1h3.4l2-2.5s2.2 1.7 3.6 3c-.1.5-.5.7-1.1.7H192l-.3-1.2h8v-3.1h-9.5l-.4-1.4zm21 6l3.5 2.7c-.2.3-.7.5-1.3.6v5.4c0 .3-1.8 1-2.9 1h-.1l2.5 1.9c-.2.3-.7.6-1.4.7v10.2c0 .3-1.8 1.2-3.1 1.2h-.6v-1.2h-11.7v.7c0 .3-1.2 1.1-2.9 1.1h-.6V73.9c-.3.1-.7.1-1.2.1h-.6v-9.9l3.7 1.5h15l1.7-1.7zm-1.3 9.3v-.9h-15.6v.7c0 .1-.2.3-.6.5l2.7 1.1h11l1.8-1.8.7.4zm-15.6-6.3V71h3.6v-4.1h-3.6zm1.9 11.2h11.7v-2.3h-11.7v2.3zm0 3.5h11.7v-2.3h-11.7v2.3zm11.6 3.5v-2.3h-11.7v2.3h11.7zM203.5 71v-4.1h-3.4V71h3.4zm-.6 16.4c16.8 1.7 10.2 9 7 5.8-1.2-1.6-3.7-3.7-7.3-5.2l.3-.6zm3.2-20.5V71h3.4v-4.1h-3.4z" /></svg>
