<svg xmlns="http://www.w3.org/2000/svg" viewBox="0 0 244 94">
  <path d="m17.3,42.96v-13.1L4.96,10.94h7.78l7.97,12.86,7.87-12.86h7.78l-12.24,18.91v13.1h-6.82Zm15.94-11.62c0-6.58,4.61-12.15,12.24-12.15s12.29,5.57,12.29,12.15-4.61,12.19-12.29,12.19-12.24-5.57-12.24-12.19Zm18.19,0c0-3.6-2.16-6.72-5.95-6.72s-5.9,3.12-5.9,6.72,2.11,6.77,5.9,6.77,5.95-3.12,5.95-6.77Zm25.86,11.62v-2.93c-1.58,1.78-4.37,3.5-8.16,3.5-5.09,0-7.49-2.78-7.49-7.3v-16.47h6.1v14.07c0,3.22,1.68,4.27,4.27,4.27,2.35,0,4.22-1.3,5.28-2.64v-15.7h6.1v23.19h-6.1Zm11.43,0v-23.19h6.1v3.17c1.63-2.06,4.51-3.7,7.39-3.7v5.95c-.43-.1-1.01-.14-1.68-.14-2.02,0-4.7,1.1-5.71,2.59v15.31h-6.1Zm54.19,0l-5.62-21.99-5.57,21.99h-7.25l-9.17-32.02h7.63l5.62,23.14,6.1-23.14h5.33l6.05,23.14,5.57-23.14h7.68l-9.12,32.02h-7.25Zm28.17-23.76c6.91,0,11.62,5.18,11.62,12.77v1.34h-17.23c.38,2.93,2.74,5.38,6.67,5.38,2.16,0,4.7-.86,6.19-2.3l2.69,3.94c-2.35,2.16-5.95,3.22-9.55,3.22-7.06,0-12.39-4.75-12.39-12.19,0-6.72,4.94-12.15,12-12.15Zm-5.71,9.98h11.42c-.14-2.21-1.68-5.14-5.71-5.14-3.79,0-5.42,2.83-5.71,5.14Zm21.16,13.78V10.94h6.1v11.81c1.82-2.35,4.42-3.55,7.15-3.55,5.9,0,10.27,4.61,10.27,12.19s-4.42,12.15-10.27,12.15c-2.78,0-5.33-1.25-7.15-3.5v2.93h-6.1Zm6.1-7.44c1.01,1.49,3.26,2.59,5.23,2.59,3.55,0,5.9-2.69,5.9-6.72s-2.35-6.77-5.9-6.77c-1.97,0-4.22,1.15-5.23,2.69v8.21Zm22.74-1.58c2.21,2.3,5.71,3.65,8.83,3.65,3.89,0,6.05-1.68,6.05-4.13,0-2.59-1.97-3.79-6.43-3.79-1.34,0-3.5,0-3.98.05v-5.95c.58.05,2.74.05,3.98.05,3.55,0,5.9-1.15,5.9-3.55,0-2.54-2.59-3.84-5.95-3.84-3.12,0-5.9,1.2-8.16,3.36l-3.36-4.22c2.59-2.93,6.62-5.09,12.24-5.09,7.49,0,12.1,3.36,12.1,8.69,0,4.03-3.46,6.67-7.01,7.3,3.26.34,7.49,2.88,7.49,7.68,0,5.52-4.94,9.41-12.62,9.41-5.9,0-10.27-2.26-12.62-5.14l3.55-4.46ZM15.7,82.96v-32.02h16.85c6.1,0,9.22,3.89,9.22,8.16,0,4.03-2.5,6.72-5.52,7.34,3.41.53,6.14,3.84,6.14,7.87,0,4.8-3.22,8.64-9.31,8.64H15.7Zm6.82-19.15h8.54c2.3,0,3.74-1.49,3.74-3.55s-1.44-3.5-3.74-3.5h-8.54v7.06Zm0,13.34h8.78c2.59,0,4.13-1.49,4.13-3.79,0-2.02-1.44-3.74-4.13-3.74h-8.78v7.54Zm22.92-5.81c0-6.58,4.61-12.14,12.24-12.14s12.29,5.57,12.29,12.14-4.61,12.19-12.29,12.19-12.24-5.57-12.24-12.19Zm18.19,0c0-3.6-2.16-6.72-5.95-6.72s-5.9,3.12-5.9,6.72,2.11,6.77,5.9,6.77,5.95-3.12,5.95-6.77Zm8.91,0c0-6.58,4.61-12.14,12.24-12.14s12.29,5.57,12.29,12.14-4.61,12.19-12.29,12.19-12.24-5.57-12.24-12.19Zm18.19,0c0-3.6-2.16-6.72-5.95-6.72s-5.9,3.12-5.9,6.72,2.11,6.77,5.9,6.77,5.95-3.12,5.95-6.77Zm25.32,11.62l-6.14-8.93-2.78,2.98v5.95h-6.1v-32.02h6.1v19.15l8.79-10.32h7.49l-9.17,10.51,9.46,12.67h-7.63Zm11.05-7.3c1.68,1.58,5.14,3.17,8.02,3.17,2.64,0,3.89-.91,3.89-2.35,0-1.63-2.02-2.21-4.66-2.74-3.98-.77-9.12-1.73-9.12-7.25,0-3.89,3.41-7.3,9.5-7.3,3.94,0,7.06,1.34,9.31,3.17l-2.4,4.18c-1.39-1.49-4.03-2.69-6.86-2.69-2.21,0-3.65.82-3.65,2.16,0,1.44,1.82,1.97,4.42,2.5,3.98.77,9.31,1.82,9.31,7.58,0,4.27-3.6,7.44-10.03,7.44-4.03,0-7.92-1.34-10.37-3.6l2.64-4.27Zm23.19,1.54v-12.1h-3.84v-5.33h3.84v-6.34h6.14v6.34h4.7v5.33h-4.7v10.46c0,1.44.77,2.54,2.11,2.54.91,0,1.78-.34,2.11-.67l1.3,4.61c-.91.82-2.54,1.49-5.09,1.49-4.27,0-6.58-2.21-6.58-6.34Zm12.87-5.86c0-6.58,4.61-12.14,12.24-12.14s12.29,5.57,12.29,12.14-4.61,12.19-12.29,12.19-12.24-5.57-12.24-12.19Zm18.19,0c0-3.6-2.16-6.72-5.95-6.72s-5.9,3.12-5.9,6.72,2.11,6.77,5.9,6.77,5.95-3.12,5.95-6.77Zm10.3,11.62v-23.19h6.1v3.17c1.63-2.06,4.51-3.7,7.39-3.7v5.95c-.43-.1-1.01-.14-1.68-.14-2.02,0-4.71,1.1-5.71,2.59v15.31h-6.1Zm27.03-23.76c6.91,0,11.62,5.18,11.62,12.77v1.34h-17.23c.38,2.93,2.74,5.38,6.67,5.38,2.16,0,4.7-.86,6.19-2.3l2.69,3.94c-2.35,2.16-5.95,3.22-9.55,3.22-7.06,0-12.38-4.75-12.38-12.19,0-6.72,4.94-12.14,12-12.14Zm-5.71,9.98h11.43c-.14-2.21-1.68-5.14-5.71-5.14-3.79,0-5.42,2.83-5.71,5.14Z"/>
</svg>
