<svg xmlns="http://www.w3.org/2000/svg" viewBox="0 0 244 94">
  <path d="m37.4,65.19l-5.62-21.99-5.57,21.99h-7.25l-9.17-32.02h7.63l5.62,23.14,6.1-23.14h5.33l6.05,23.14,5.57-23.14h7.68l-9.12,32.02h-7.25Zm28.03-23.76c6.91,0,11.62,5.18,11.62,12.77v1.34h-17.23c.38,2.93,2.74,5.38,6.67,5.38,2.16,0,4.71-.86,6.19-2.3l2.69,3.94c-2.35,2.16-5.95,3.22-9.55,3.22-7.06,0-12.38-4.75-12.38-12.19,0-6.72,4.94-12.15,12-12.15Zm-5.71,9.98h11.42c-.14-2.21-1.68-5.14-5.71-5.14-3.79,0-5.42,2.83-5.71,5.14Zm21.74,13.78v-32.02h6.1v11.81c1.82-2.35,4.42-3.55,7.15-3.55,5.9,0,10.27,4.61,10.27,12.19s-4.42,12.15-10.27,12.15c-2.78,0-5.33-1.25-7.15-3.5v2.93h-6.1Zm6.1-7.44c1.01,1.49,3.26,2.59,5.23,2.59,3.55,0,5.91-2.69,5.91-6.72s-2.35-6.77-5.91-6.77c-1.97,0-4.22,1.15-5.23,2.69v8.21Zm23.52-1.58c2.21,2.3,5.71,3.65,8.83,3.65,3.89,0,6.05-1.68,6.05-4.13,0-2.59-1.97-3.79-6.43-3.79-1.34,0-3.5,0-3.98.05v-5.95c.58.05,2.74.05,3.98.05,3.55,0,5.9-1.15,5.9-3.55,0-2.54-2.59-3.84-5.95-3.84-3.12,0-5.9,1.2-8.16,3.36l-3.36-4.22c2.59-2.93,6.62-5.09,12.24-5.09,7.49,0,12.1,3.36,12.1,8.69,0,4.03-3.46,6.67-7.01,7.3,3.26.34,7.49,2.88,7.49,7.68,0,5.52-4.94,9.41-12.62,9.41-5.9,0-10.27-2.26-12.62-5.14l3.55-4.46Zm67.2-14.98c0,.1-.14.19-.38.34.77.53,3.17,2.3,4.7,3.65-.14.53-.62.77-1.25.77h-15.46v3.79h12.05l2.83-3.36s3.12,2.26,5.09,3.94c-.14.53-.62.77-1.3.77h-43.01l-.38-1.34h19.15v-3.79h-14.98l-.38-1.39h15.36v-3.74h-13.39l-.43-1.39h13.83v-3.98h-18.82l-.38-1.34h19.2v-3.89h-13.11l-.43-1.39h13.54v-4.46l7.34.67c-.1.72-.48,1.15-1.78,1.39v2.4h6.53l2.45-2.69,5.23,3.94c-.29.34-.91.72-1.82.91v3.12h1.06l2.4-3.26s2.78,2.3,4.42,3.89c-.1.48-.58.72-1.25.72h-6.62v5.76Zm-3.31,10.51l5.52,4.08c-.34.38-.96.86-1.97,1.06v11.04c-.05.34-2.88,1.3-4.7,1.3h-.96v-2.64h-18.77v1.1c0,.53-2.5,1.73-4.75,1.73h-.82v-17.14l5.95,2.3h17.91l2.59-2.83Zm-20.88,4.18v3.79h18.77v-3.79h-18.77Zm18.77,9.31v-4.13h-18.77v4.13h18.77Zm-6.96-31.11h7.01v-3.89h-7.01v3.89Zm0,5.33h7.01v-3.98h-7.01v3.98Zm11.33,2.45c-.96.38-2.35.82-3.41.82h-.91v-1.87h-7.01v3.74h9.07l2.26-2.69Zm51.65-13.3s3.36,2.74,5.33,4.61c-.1.53-.62.77-1.3.77h-33.7v10.61c0,8.02-.58,18.34-9.94,25.11l-.48-.38c4.42-7.25,4.75-16.37,4.75-24.67v-14.35l6.53,2.35h12.96c-.24-.1-.48-.24-.72-.38-.62-2.69-2.64-5.66-4.37-7.58l.38-.29c10.42.77,10.56,6.72,7.68,8.26h9.89l2.98-4.03Zm-1.87,9.65s3.5,2.83,5.57,4.75c-.14.53-.62.77-1.34.77h-13.54v8.16h5.04l2.59-2.93,4.94,3.79c-.29.38-.77.67-1.82.91v14.26c0,.29-1.78,1.25-4.56,1.25h-.96v-4.27h-16.03v3.31c0,.38-1.63,1.3-4.32,1.3h-.96v-19.83l5.81,2.21h4.61v-17.38l7.44.62c-.1.67-.48,1.15-1.78,1.39v5.86h6.19l3.12-4.18Zm-20.11,15.07v10.22h16.03v-10.22h-16.03Z"/>
</svg>
