<svg xmlns="http://www.w3.org/2000/svg" viewBox="0 0 244 94">
  <path d="M13.12,26.88C11.2,33.33,6.54,41.51,0,46.59l.38.47a38.14,38.14,0,0,0,18.3-16.41c1.17.09,1.59-.29,1.83-.8ZM28.84,43.77H8l.42,1.32h6.82c-.33,7-1.65,15.28-13.45,22.72l.47.61c15.47-6.3,18.2-15.2,19.1-23.33h8c-.47,9.36-1.27,15.57-2.68,16.74a2.23,2.23,0,0,1-1.7.52c-1.13,0-4.75-.23-7.15-.47v.66a11.32,11.32,0,0,1,5.18,2c.8.76,1,2.12,1,3.72,3.11,0,5-.61,6.63-1.93,2.59-2.11,3.67-8.61,4.24-20.27a3.22,3.22,0,0,0,1.93-.85l-5-4.28ZM27.57,24.53l-1.65,2.73H21.54L22,28.58H27.1A28.55,28.55,0,0,0,39.61,45.37,7.32,7.32,0,0,1,44,40.52l.09-.56c-7.24-2-13.31-6.45-15.75-11.15,1.74-.14,3.29-.52,3.85-1.13Zm29.54,26a21.58,21.58,0,0,1,5.36,3.1C66,54.4,66.89,48,57.11,49V45.56h9v9.26c-3.62.71-7.05,1.32-9.12,1.7.09-1.32.14-2.59.14-3.72Zm14.06-4.33a2.49,2.49,0,0,0,1.55-.85L67.88,41.7l-2.21,2.49H57.91l-5.69-2.07V52.8c0,5.22,0,10.82-2.69,15.2l.43.42a14.18,14.18,0,0,0,6.72-10l1.18,2.73A1.8,1.8,0,0,0,59,60c2.77-1.41,5.17-2.68,7.1-3.72V61.6c0,.56-.14.8-.8.8s-4-.19-4-.19v.66c1.7.33,2.5.84,3,1.6A7.42,7.42,0,0,1,65.1,68c5.41-.43,6.07-2.4,6.07-5.88ZM85,36.57a54,54,0,0,1-2.77,15.24,41.15,41.15,0,0,1-4-10.86q1.05-2.12,2-4.38ZM59.88,32.48h3.77v6.59H59.88Zm33.31,4.09c.66,0,1.17-.23,1.31-.75-2-1.79-5.26-4.42-5.26-4.42l-3,3.81H80.72A63,63,0,0,0,83,27.49c1.08,0,1.6-.47,1.79-1.08L77.1,24.72A92.08,92.08,0,0,1,75,39.35c-1.46-1.46-3.67-3.44-3.67-3.44L69.1,39.07h-.47V32.48h4.42c.66,0,1.13-.24,1.23-.75-1.37-1.51-3.81-3.62-3.81-3.62l-1.84,2.58V26.32c1-.14,1.32-.57,1.41-1.13l-6.39-.57v6.5H59.88V26.27c1-.14,1.32-.52,1.37-1.08L55,24.62v6.5H50.8l.38,1.36H55v6.59H49.72l.38,1.36h24a1.58,1.58,0,0,0,.7-.14,62.75,62.75,0,0,1-2.39,7.9l.61.38a29,29,0,0,0,4.37-6,59.28,59.28,0,0,0,3.15,13.26A33.12,33.12,0,0,1,70,68.14l.38.42a31.91,31.91,0,0,0,12-8.56,25.82,25.82,0,0,0,7.34,8.7,5.83,5.83,0,0,1,4.85-4.37l.18-.47a28.7,28.7,0,0,1-9.59-7.62c3.48-5.65,5-12.38,5.74-19.67Zm22.2,9.5H123c.66,0,1.13-.23,1.27-.75C122.26,43.53,119,41,119,41l-3,3.81H101.61l.37,1.31h7.86v14c-4.09.76-7.48,1.37-9.5,1.65l3.57,6a2,2,0,0,0,1.18-1.22c9.69-3.76,16-6.63,20.41-8.8l-.14-.61c-3.43.71-6.82,1.37-10,2Zm27.8,8.38-.52-.1a53.33,53.33,0,0,1-2.91,5.79c-.43.8-.8.8-1.46.14-6.16-4.94-8.33-13.78-8.94-23.66h13c.66,0,1.23-.24,1.37-.75-1.51-1.23-3.58-2.83-4.8-3.72,2.11-1.65,1.36-6.4-7.43-5.93l-.33.38a15.8,15.8,0,0,1,4.56,5.64,3.59,3.59,0,0,0,1.13.38l-2.21,2.64h-5.37c-.14-2.73-.14-5.51-.09-8.28,1.18-.19,1.6-.76,1.69-1.37l-7.43-.75c0,3.57.1,7.06.28,10.4H100l.42,1.36h23.48c.84,12,3.53,22.25,11.15,29.16,2.11,1.93,6,4,8.18,1.79.8-.75.57-2.3-1.08-5.13Zm41.73-5.88V63H174.14V44.33h8.47V47h.94c2.07,0,4.42-.9,4.42-1.27V31.16c1.13-.19,1.51-.61,1.56-1.22l-6.92-.61V43h-8.47V27c1.27-.19,1.6-.66,1.7-1.36L168.55,25V43h-8.09v-12c1.22-.19,1.64-.61,1.74-1.13l-7-.66V42.45a8.6,8.6,0,0,0-1.46,1.41l5.41,3.2,1.65-2.73h7.76V63H158.24V50.21c1.23-.18,1.65-.56,1.75-1.08l-7.11-.7V62.49a8.35,8.35,0,0,0-1.5,1.37l5.5,3.24,1.69-2.73h26.35v3.95h.94c2,0,4.42-.94,4.42-1.31V50.4c1.13-.19,1.5-.61,1.55-1.17ZM216.2,50a3.22,3.22,0,0,0,1.93-.94l-4.94-3.82-2.4,2.59h-4.23V41.18h9.73c.61,0,1.08-.23,1.18-.75a23.18,23.18,0,0,0-1.74-2.12v-11c1.13-.19,1.5-.61,1.6-1.27l-6.45-.57v14.4h-4.32V28c1.17-.14,1.55-.65,1.64-1.31L201.76,26V48.1c0,7.95-.43,14.53-2.73,20.22l.56.38c5.13-4.89,6.78-11.57,7-19.52h4.7V66.73h.85c1.74,0,4-1.27,4.09-1.7Zm19.52-8.47a49.67,49.67,0,0,1-3.81,12.32,33.19,33.19,0,0,1-4.61-12.32Zm2.45-4.14-2.73,2.82H225v-10h17.49c.71,0,1.18-.23,1.32-.75-1.93-1.84-5.22-4.52-5.22-4.52l-2.92,3.95h-9.92L220,26.79v16c0,8.84-.38,18.16-4.85,25.4l.57.42C224.48,61.74,225,51.3,225,42.78V41.56h1.45a53,53,0,0,0,3.63,15.76,32.86,32.86,0,0,1-10.64,10.77l.43.56a33.34,33.34,0,0,0,12-7.85A24.77,24.77,0,0,0,239,68.47a6.22,6.22,0,0,1,4.9-4.14l.09-.47a29.72,29.72,0,0,1-9.36-6.5,40.63,40.63,0,0,0,6.49-15c1.08-.1,1.55-.29,1.88-.76Z"/>
</svg>
