<svg width="244" height="244" viewBox="0 0 244 244" fill="none" xmlns="http://www.w3.org/2000/svg">
<path d="M242 72V71.225C242 47.153 239.494 38.425 234.788 29.625C230.081 20.824 223.175 13.918 214.375 9.212C205.575 4.506 196.846 2 172.775 2H172" stroke="white" stroke-width="4" stroke-linecap="round"/>
<path d="M172 242H172.775C196.846 242 205.575 239.493 214.375 234.787C223.175 230.08 230.081 223.174 234.788 214.374C239.494 205.574 242 196.846 242 172.774V172" stroke="white" stroke-width="4" stroke-linecap="round"/>
<path d="M71.9998 2.00049H71.2248C47.1538 2.00049 38.4248 4.50649 29.6248 9.21249C20.8248 13.9185 13.9188 20.8245 9.21276 29.6255C4.50576 38.4255 1.99976 47.1535 1.99976 71.2255V72.0005" stroke="white" stroke-width="4" stroke-linecap="round"/>
<path d="M1.99976 172V172.774C1.99976 196.846 4.50576 205.574 9.21276 214.374C13.9188 223.174 20.8248 230.08 29.6248 234.787C38.4248 239.493 47.1538 242 71.2248 242H71.9998" stroke="white" stroke-width="4" stroke-linecap="round"/>
</svg>
