<svg xmlns="http://www.w3.org/2000/svg" viewBox="0 0 42 42">
  <title>civic-liker-halo-small</title>
  <path d="M1.16,16.57a.3.3,0,0,1-.13,0,.56.56,0,0,1-.41-.68A20.41,20.41,0,0,1,2.09,11.8a.56.56,0,0,1,.75-.26.57.57,0,0,1,.27.75,19.72,19.72,0,0,0-1.4,3.85.56.56,0,0,1-.55.43m5.16,19a.58.58,0,0,1-.41-.17A20.81,20.81,0,0,1,0,20.91a.57.57,0,0,1,.56-.57.57.57,0,0,1,.57.57A19.65,19.65,0,0,0,6.72,34.64a.57.57,0,0,1,0,.8.59.59,0,0,1-.39.16m1.61,1.5A.54.54,0,0,1,7.57,37l-.41-.35a.56.56,0,0,1,.74-.84l.39.33a.56.56,0,0,1,.07.79.54.54,0,0,1-.43.21M38,32.51a.59.59,0,0,1-.31-.09.56.56,0,0,1-.16-.78A19.71,19.71,0,0,0,39,12.79a.57.57,0,0,1,1-.47,20.82,20.82,0,0,1-1.54,19.93.56.56,0,0,1-.47.26M20.92,41.83A20.68,20.68,0,0,1,8.89,38a.56.56,0,0,1-.14-.79.57.57,0,0,1,.79-.13A19.63,19.63,0,0,0,34.81,35a.57.57,0,0,1,.8,0,.55.55,0,0,1,0,.79,20.76,20.76,0,0,1-14.68,6.08M37.81,10.12a.57.57,0,0,1-.47-.25A19.53,19.53,0,0,0,31.7,4.31a.56.56,0,0,1,.61-.95,20.77,20.77,0,0,1,6,5.88.56.56,0,0,1-.15.78.55.55,0,0,1-.32.1m-33.92.22a.5.5,0,0,1-.31-.1.56.56,0,0,1-.16-.78A20.87,20.87,0,0,1,20.92,0a20.64,20.64,0,0,1,9.42,2.24.55.55,0,0,1,.25.75.56.56,0,0,1-.76.25,19.85,19.85,0,0,0-18.16.18,19.91,19.91,0,0,0-7.31,6.66.56.56,0,0,1-.47.26" style="fill-rule: evenodd"/>
</svg>
