<svg xmlns="http://www.w3.org/2000/svg" viewBox="0 0 64 64">
  <title>civic-liker-halo</title>
  <path d="M18.16,3A1.09,1.09,0,0,1,19,2.94.06.06,0,0,1,19,3l-.11.34a.05.05,0,0,1-.07,0,.64.64,0,0,0-.45,0,.62.62,0,0,0-.27.85.61.61,0,0,0,.84.3.64.64,0,0,0,.31-.32.07.07,0,0,1,.07,0l.34.13a.06.06,0,0,1,0,.08,1.1,1.1,0,0,1-.55.61,1.14,1.14,0,1,1-1-2Zm2.08-.8a.06.06,0,0,1,0-.08L20.62,2a.07.07,0,0,1,.08,0L21.45,4a.06.06,0,0,1,0,.08l-.35.14a.07.07,0,0,1-.08,0ZM22,1.59a.05.05,0,0,1,0-.09l.4-.12s.05,0,.06,0l.82,1h0l.18-1.25a.05.05,0,0,1,0-.05l.4-.11C24,.92,24,1,24,1l-.35,2.31a.07.07,0,0,1,0,0h0a0,0,0,0,1-.06,0ZM25.3.69s0-.07,0-.07l.37-.08a.06.06,0,0,1,.07,0l.42,2a.06.06,0,0,1-.05.07l-.37.08a.08.08,0,0,1-.07,0Zm3-.58a1,1,0,0,1,.79.2.07.07,0,0,1,0,.09l-.22.28a.06.06,0,0,1-.08,0,.61.61,0,0,0-.44-.11.63.63,0,0,0-.54.71.64.64,0,0,0,.69.57.72.72,0,0,0,.41-.2.06.06,0,0,1,.08,0l.27.23a.06.06,0,0,1,0,.09,1.08,1.08,0,0,1-.73.39,1.14,1.14,0,0,1-1.26-1A1.14,1.14,0,0,1,28.34.11Zm2.73,1.25A.34.34,0,0,1,31.4,1a.34.34,0,0,1,.35.33.34.34,0,0,1-.34.34A.34.34,0,0,1,31.07,1.36ZM33.79.06s0-.06.07-.06l.37,0a.05.05,0,0,1,.05.06l-.12,1.68.75.06a.06.06,0,0,1,.05.06l0,.34a.07.07,0,0,1-.07.06L33.69,2.2s-.06,0-.06-.07Zm2.68.27a.06.06,0,0,1,.06,0l.38.06s.05,0,.05.07l-.32,2.06a.06.06,0,0,1-.06,0l-.38-.06s-.05,0-.05-.07Zm2.08.38a.07.07,0,0,1,.09,0L39,.74a.1.1,0,0,1,.06.1l-.2.8L39.75,1s0,0,.06,0L40.2,1a.08.08,0,0,1,0,.13l-.93.72.54,1.21a.08.08,0,0,1-.09.1l-.42-.1s0,0,0,0l-.48-1.13-.22.91a.08.08,0,0,1-.09.06l-.36-.09a.07.07,0,0,1,0-.09Zm3.12.83a.06.06,0,0,1,.07,0L43,1.93A.06.06,0,0,1,43,2l-.11.32a.06.06,0,0,1-.08,0L42,2.08l-.13.37.68.23a.07.07,0,0,1,0,.08l-.12.33a.05.05,0,0,1-.07,0l-.68-.23-.14.4.82.28a.06.06,0,0,1,0,.08L42.33,4a.06.06,0,0,1-.08,0L41,3.58a.06.06,0,0,1,0-.07Zm3.26,2.24a.27.27,0,0,0,.33-.13.25.25,0,0,0-.12-.32l-.43-.2-.2.45Zm-.5-1.21a.06.06,0,0,1,.08,0l.85.4A.67.67,0,0,1,45,4.22l.06.91s0,.09-.09.06L44.6,5a.07.07,0,0,1,0,0l0-.93L44.34,4,44,4.68a.06.06,0,0,1-.08,0l-.34-.15a.07.07,0,0,1,0-.08ZM5.7,15.35a.66.66,0,0,1-.35-.11.64.64,0,0,1-.19-.89A31.4,31.4,0,0,1,14.52,5a.64.64,0,0,1,.7,1.08,30.5,30.5,0,0,0-9,9A.65.65,0,0,1,5.7,15.35Zm-4.13,9.5a.44.44,0,0,1-.16,0,.64.64,0,0,1-.47-.78,31.78,31.78,0,0,1,2.25-6.21.64.64,0,0,1,.86-.3.65.65,0,0,1,.3.87A30.64,30.64,0,0,0,2.2,24.36.66.66,0,0,1,1.57,24.85ZM9.71,54.28a.67.67,0,0,1-.47-.2A31.64,31.64,0,0,1,0,31.72a.65.65,0,0,1,1.3,0,30.36,30.36,0,0,0,8.87,21.45.66.66,0,0,1-.46,1.11ZM12,56.34a.66.66,0,0,1-.42-.15l-.62-.54a.64.64,0,0,1,.85-1l.6.51a.64.64,0,0,1,.09.91A.65.65,0,0,1,12,56.34ZM31.88,63.6a31.51,31.51,0,0,1-18.58-6,.65.65,0,1,1,.76-1.05,30.35,30.35,0,0,0,39.28-3.09.66.66,0,0,1,.92,0,.65.65,0,0,1,0,.92A31.64,31.64,0,0,1,31.88,63.6ZM58.06,49.3a.66.66,0,0,1-.35-.11.65.65,0,0,1-.19-.9,30.37,30.37,0,0,0,2.24-29.12.65.65,0,1,1,1.18-.53A31.64,31.64,0,0,1,58.61,49,.68.68,0,0,1,58.06,49.3ZM57.79,15a.65.65,0,0,1-.54-.29,30.37,30.37,0,0,0-8.72-8.59A.65.65,0,1,1,49.24,5a31.63,31.63,0,0,1,9.09,9,.65.65,0,0,1-.18.9A.66.66,0,0,1,57.79,15Z" style="fill-rule: evenodd"/>
</svg>
