<svg xmlns="http://www.w3.org/2000/svg" viewBox="0 0 24 24">
  <path d="M18.9,4.75H5.1A1.85,1.85,0,0,0,3.25,6.6V8.4a1.87,1.87,0,0,0,1.5,1.82v7.23a1.89,1.89,0,0,0,2,1.8H17.28a1.89,1.89,0,0,0,2-1.8V10.22a1.87,1.87,0,0,0,1.5-1.82V6.6A1.85,1.85,0,0,0,18.9,4.75Zm-1.62,13H6.72c-.27,0-.47-.16-.47-.3v-7.2h11.5v7.2C17.75,17.59,17.55,17.75,17.28,17.75Zm2-9.35a.35.35,0,0,1-.35.35H5.1a.35.35,0,0,1-.35-.35V6.6a.35.35,0,0,1,.35-.35H18.9a.35.35,0,0,1,.35.35Z"/>
  <path d="M14,11.75H10a.75.75,0,0,0,0,1.5h4a.75.75,0,0,0,0-1.5Z"/>
</svg>
