<svg id="Layer_1" data-name="Layer 1" xmlns="http://www.w3.org/2000/svg" viewBox="0 0 24 24">
  <path d="M17.36,16.84H6.63a1.45,1.45,0,0,1-1.45-1.45,1.42,1.42,0,0,1,.67-1.21l.86-.56a.83.83,0,0,0,.39-.72V9.61A4.93,4.93,0,0,1,8.71,6,4.86,4.86,0,0,1,12,4.69h0l.49,0a5.1,5.1,0,0,1,4.43,5.15v3a.87.87,0,0,0,.39.72l.83.55a1.45,1.45,0,0,1,.66,1.21,1.47,1.47,0,0,1-1.46,1.46M12,20a1.62,1.62,0,0,1-1.59-1.39h3.18A1.62,1.62,0,0,1,12,20m7.11-7.24-.44-.29V9.86A6.84,6.84,0,0,0,12.89,3V2.36a.87.87,0,0,0-1.73,0V3A6.55,6.55,0,0,0,7.55,4.69,6.66,6.66,0,0,0,5.37,9.61v2.81l-.46.3a3.18,3.18,0,0,0,1.72,5.85h2a3.36,3.36,0,0,0,6.7,0h2a3.19,3.19,0,0,0,1.75-5.85" style="fill-rule: evenodd"/>
</svg>
