<svg xmlns="http://www.w3.org/2000/svg" viewBox="0 0 24 24">
  <title>bookmark-add</title>
  <path d="M10.14,5A2.21,2.21,0,0,0,8,7.28V7.7a.7.7,0,1,0,1.4,0V7.28a.82.82,0,0,1,.74-.88h5.62a.82.82,0,0,1,.74.88v9L13.36,14a.69.69,0,0,0-.82,0L9.4,16.32V15.2a.7.7,0,1,0-1.4,0v2.5a.71.71,0,0,0,.38.62.69.69,0,0,0,.73-.06L13,15.46l3.84,2.8a.68.68,0,0,0,.41.14.72.72,0,0,0,.32-.08.71.71,0,0,0,.38-.62V7.28A2.21,2.21,0,0,0,15.76,5Z" style="fill-rule: evenodd"/>
  <path d="M8.5,12a.5.5,0,0,0,0-1H7V9.5a.5.5,0,0,0-1,0V11H4.5a.5.5,0,0,0,0,1H6v1.5a.5.5,0,0,0,1,0V12Z" style="fill-rule: evenodd"/>
</svg>
