<svg xmlns="http://www.w3.org/2000/svg" viewBox="0 0 24 24">
  <path d="m17.53,16.06c.4.4.4,1.06,0,1.46-.2.2-.46.3-.73.3s-.54-.11-.73-.3L6.47,7.94c-.4-.4-.4-1.06,0-1.46.2-.2.46-.3.73-.3s.54.11.73.3l9.59,9.59Zm-5.45.24c-.25,0-.49.1-.67.28l-1.08,1.08c-.53.53-1.24.83-2,.83s-1.47-.29-2-.83c-1.1-1.1-1.1-2.89,0-3.99l1.08-1.08c.37-.37.37-.96,0-1.33-.18-.18-.41-.28-.67-.28s-.49.1-.67.28l-1.08,1.08c-1.83,1.84-1.83,4.82,0,6.66.89.89,2.07,1.38,3.33,1.38s2.44-.49,3.33-1.38l1.08-1.08c.18-.18.28-.42.28-.67s-.1-.49-.28-.67c-.18-.18-.42-.28-.67-.28Zm6.91-11.3c-.89-.89-2.07-1.38-3.33-1.38s-2.44.49-3.33,1.38l-1.08,1.08c-.37.37-.37.96,0,1.33.18.18.41.28.67.28s.49-.1.67-.28l1.08-1.08c.53-.53,1.24-.83,2-.83s1.46.29,2,.83c.53.53.83,1.24.83,2s-.29,1.46-.83,2l-1.08,1.08c-.37.37-.37.96,0,1.33.18.18.41.28.67.28s.49-.1.67-.28l1.08-1.08c.89-.89,1.38-2.07,1.38-3.33s-.49-2.44-1.38-3.33Z"/>
</svg>
