<svg xmlns="http://www.w3.org/2000/svg" viewBox="0 0 24 24">
  <path d="M17.93,20.15a2.53,2.53,0,1,1,2.53-2.52A2.52,2.52,0,0,1,17.93,20.15Zm-6-7.65,1.23-3c.91.36,1.76.67,2.54.93a11,11,0,0,1-.75,3.15C14,13.3,13,12.94,11.9,12.5Zm2.52,2.21a8.22,8.22,0,0,0-2.31,2.49c-.59-.21-1.2-.43-1.86-.69l1.23-3c1.09.43,2.1.79,3,1.08Zm-2.6,4.59a5.38,5.38,0,0,0,.75-.53l.29.37A5.93,5.93,0,0,1,11.82,19.3ZM9.48,19l-.22,0,.58-1.42c.61.24,1.19.45,1.74.65A3.85,3.85,0,0,1,9.48,19ZM7,15.09a10.6,10.6,0,0,1,.55-3.33c.85.43,1.82.88,2.9,1.33l-1.23,3C8.44,15.76,7.7,15.42,7,15.09Zm1.22,3.44a3.67,3.67,0,0,1-1.11-2.18c.53.25,1.1.5,1.7.75ZM5.16,9.19A6.91,6.91,0,0,1,7.25,6.71c.4.23.87.49,1.39.76A13.07,13.07,0,0,0,7,10.24C6.23,9.83,5.62,9.47,5.16,9.19ZM6,14.56,4.54,13.8a6.91,6.91,0,0,1,.19-3.6c.48.29,1.1.65,1.87,1.06A11.9,11.9,0,0,0,6,14.56Zm-.89.76.91.47A7.64,7.64,0,0,0,6.17,17,7.2,7.2,0,0,1,5.06,15.32Zm5.86-9.93A8.47,8.47,0,0,0,9.38,6.62L8.31,6.06A7,7,0,0,1,10.92,5.39Zm1.2,3.7-1.23,3C9.8,11.63,8.82,11.17,8,10.74A11.69,11.69,0,0,1,9.63,8C10.38,8.33,11.21,8.71,12.12,9.09Zm1.15-3.36.22,0-1,2.34c-.76-.33-1.47-.65-2.12-1A4.57,4.57,0,0,1,13.27,5.73Zm1.23.44A4.2,4.2,0,0,1,15.7,9.3c-.67-.23-1.4-.5-2.16-.8Zm2.24,4.61c.56.18,1.08.33,1.52.45a6.81,6.81,0,0,1,0,2.38l-.29,0a6.05,6.05,0,0,0-2,.33h0A12.23,12.23,0,0,0,16.74,10.78ZM18,10l-1.14-.34a8.21,8.21,0,0,0-.23-2A7.08,7.08,0,0,1,18,10Zm1.37,3.74A8.08,8.08,0,0,0,14.93,5.1v0l-1-.41v0a8.06,8.06,0,0,0-10,4.59,8,8,0,0,0-.31,5.19l0,0h0a8.06,8.06,0,0,0,4.22,5.08v0l1,.42v0a8.08,8.08,0,0,0,2.55.43,7.82,7.82,0,0,0,2.36-.38,6.25,6.25,0,0,0,4.2,1.62c4.25,0,6.06-4,6.06-4A7.66,7.66,0,0,0,19.32,13.75Z" />
  <circle cx="17.93" cy="17.63" r="1.44"/>
</svg>
