<svg xmlns="http://www.w3.org/2000/svg" viewBox="0 0 16 16">
  <path d="m8.39,3.3c-.23-.19-.56-.19-.78,0l-4.2,3.62c-.13.11-.21.28-.21.45v4.87c0,.33.27.6.6.6h.66c.33,0,.6.27.6.6s-.27.6-.6.6h-.66c-.99,0-1.8-.81-1.8-1.8v-4.87c0-.52.23-1.02.62-1.36l4.2-3.62c.68-.58,1.68-.58,2.35,0l4.2,3.62c.4.34.62.84.62,1.36v4.87c0,.99-.81,1.8-1.8,1.8h-.78c-.33,0-.6-.27-.6-.6s.27-.6.6-.6h.78c.33,0,.6-.27.6-.6v-4.87c0-.17-.08-.34-.21-.45l-4.2-3.62Zm.75,9.55v-2.7c0-.63-.51-1.14-1.14-1.14s-1.14.51-1.14,1.14v2.7h2.28Zm-1.14-5.04c-1.29,0-2.34,1.05-2.34,2.34v3.3c0,.33.27.6.6.6h3.48c.33,0,.6-.27.6-.6v-3.3c0-1.29-1.05-2.34-2.34-2.34h0Z" fill-rule="evenodd"/>
</svg>
