<svg xmlns="http://www.w3.org/2000/svg" viewBox="0 0 24 24">
  <title>like-clap</title>
  <path d="M13,5.7a8.57,8.57,0,0,1-1.76,2.09.44.44,0,0,0,0,.6.44.44,0,0,0,.31.14.39.39,0,0,0,.27-.1,9.85,9.85,0,0,0,1.93-2.31c.08-.14.3-.47.64-.43a.41.41,0,0,0,.46-.36.43.43,0,0,0-.35-.48A1.46,1.46,0,0,0,13,5.7" style="fill-rule: evenodd"/>
  <path d="M4.1,15.43a.43.43,0,0,0,.33.15.49.49,0,0,0,.28-.09,12.47,12.47,0,0,1,1.41-1A.42.42,0,0,0,6.31,14a.43.43,0,0,0-.57-.19,12.63,12.63,0,0,0-1.59,1.05.43.43,0,0,0-.05.6" style="fill-rule: evenodd"/>
  <path d="M17.43,13.13A14,14,0,0,1,13,16.22a3.91,3.91,0,0,0-1.68,1.36c-.32.53-.41.71-.45.77a.54.54,0,0,0,.24.71.59.59,0,0,0,.22.05.52.52,0,0,0,.48-.32,6.8,6.8,0,0,1,.39-.68A2.94,2.94,0,0,1,13.46,17a12.53,12.53,0,0,0,4.36-3,14.57,14.57,0,0,0,1.6-2.19c.61-1,.29-1.91-.26-2.06a.07.07,0,0,1-.05-.1,5.52,5.52,0,0,0,.71-1.63A1,1,0,0,0,19,6.61.07.07,0,0,1,19,6.52c.05-.17.09-.38.12-.52a1.18,1.18,0,0,0-.81-1.43,1.23,1.23,0,0,0-1,.2.09.09,0,0,1-.12,0,.82.82,0,0,0-.55-.26,1.25,1.25,0,0,0-1.24.84,8.91,8.91,0,0,1-1.62,2.32,18,18,0,0,1-3.11,2.63c-.15.09-.35.07-.33-.13s.37-2.36.43-3a1.23,1.23,0,0,0-1-1.51c-.49-.07-1.23.07-1.64,1.19a24.21,24.21,0,0,0-1.16,3.45,10.53,10.53,0,0,0-.08,4.26.42.42,0,0,1,0,.29,15.71,15.71,0,0,0-1.07,1.85.52.52,0,0,0,.22.67.54.54,0,0,0,.25.06.5.5,0,0,0,.46-.3c.16-.33.49-.95.61-1.21A7.3,7.3,0,0,0,7.7,15a1.37,1.37,0,0,0,0-.82,8.59,8.59,0,0,1,.08-3.44A38.29,38.29,0,0,1,9,6.9c.13-.31.3-.4.48-.39s.52.1.42.73c-.17,1.13-.42,2.56-.5,3a1,1,0,0,0,.35,1,1.07,1.07,0,0,0,1.13-.19,21.09,21.09,0,0,0,3.55-3,8.41,8.41,0,0,0,1.68-2.53.48.48,0,0,1,.55-.26c.11,0,.25.19.15.51a10.89,10.89,0,0,1-3.06,4.24.38.38,0,0,0-.08.54.36.36,0,0,0,.52,0,12.45,12.45,0,0,0,3.06-4,7.74,7.74,0,0,0,.37-.93c.09-.27.29-.36.44-.33s.33.25.27.59a6.09,6.09,0,0,1-.46,1.27,17.52,17.52,0,0,1-2.89,4,.34.34,0,0,0,0,.5c.16.15.36.09.53-.08a15.84,15.84,0,0,0,2.93-3.91.37.37,0,0,1,.48-.23c.23.09.23.49,0,.93a14.7,14.7,0,0,1-2.88,4,.33.33,0,0,0,0,.48c.13.12.35.11.56-.1a17.3,17.3,0,0,0,1.8-2.09.39.39,0,0,1,.4-.21c.2,0,.23.24.17.47a12.22,12.22,0,0,1-1.58,2.23" style="fill-rule: evenodd"/>
  <path d="M7.5,6h0c.06-.05,0-.12,0-.18a17.19,17.19,0,0,0-.77-1.68A.18.18,0,0,0,6.5,4,1.9,1.9,0,0,0,6,4.36a1.83,1.83,0,0,0-.43.44.17.17,0,0,0,.07.25c.23.16,1.4.81,1.68.93a.16.16,0,0,0,.2,0" style="fill-rule: evenodd"/>
  <path d="M6.72,6.63c-.29-.07-1.56-.27-1.82-.28s-.2.06-.22.16a2.36,2.36,0,0,0,.05.64,2.09,2.09,0,0,0,.16.61.18.18,0,0,0,.25.08c.25-.11,1.38-.75,1.63-.92,0,0,.11-.08.09-.17h0c0-.09-.08-.1-.14-.12" style="fill-rule: evenodd"/>
  <path d="M17.48,18.42c-.08-.26-.59-1.45-.73-1.71a.17.17,0,0,0-.16-.12h0c-.09,0-.11.08-.13.14-.11.27-.44,1.52-.49,1.79a.17.17,0,0,0,.14.22,2,2,0,0,0,.64,0,2.1,2.1,0,0,0,.62-.1.19.19,0,0,0,.11-.24" style="fill-rule: evenodd"/>
  <path d="M18.69,17.54a.17.17,0,0,0,.26,0,1.65,1.65,0,0,0,.33-.52,2.05,2.05,0,0,0,.23-.57.19.19,0,0,0-.16-.22c-.26-.07-1.54-.29-1.84-.31-.06,0-.14,0-.17.07h0a.18.18,0,0,0,.05.19c.19.23,1.1,1.18,1.31,1.36" style="fill-rule: evenodd"/>
</svg>
