<svg xmlns="http://www.w3.org/2000/svg" viewBox="0 0 24 24">
  <path d="M13.45,4A12.33,12.33,0,0,1,11,6.82a.62.62,0,0,0,0,.83.55.55,0,0,0,.42.19.5.5,0,0,0,.37-.14,13.06,13.06,0,0,0,2.65-3.17c.11-.2.42-.65.88-.59a.58.58,0,0,0,.64-.5.59.59,0,0,0-.49-.66,2,2,0,0,0-2,1.17" />
  <path d="M1.24,17.33a.6.6,0,0,0,.46.21.58.58,0,0,0,.37-.13A15.92,15.92,0,0,1,4,16.11a.6.6,0,0,0,.27-.79.61.61,0,0,0-.8-.26A16.8,16.8,0,0,0,1.32,16.5a.59.59,0,0,0-.08.83" />
  <path d="M19.57,14.16c-1.56,1.74-3.13,2.7-6.15,4.26a5.26,5.26,0,0,0-2.31,1.87c-.43.73-.56,1-.61,1.06a.74.74,0,0,0,.32,1,.71.71,0,0,0,1-.37s0,0,.55-.94a4.07,4.07,0,0,1,1.78-1.56,17.46,17.46,0,0,0,6-4.2,19.89,19.89,0,0,0,2.21-3c.84-1.42.4-2.63-.36-2.84a.09.09,0,0,1-.06-.14,7.67,7.67,0,0,0,1-2.24A1.41,1.41,0,0,0,21.79,5.2a.09.09,0,0,1-.07-.12c.06-.24.12-.53.17-.72a1.65,1.65,0,0,0-1.12-2,1.67,1.67,0,0,0-1.36.29.14.14,0,0,1-.17,0,1.11,1.11,0,0,0-.76-.35,1.7,1.7,0,0,0-1.7,1.15,12,12,0,0,1-2.23,3.19,24.34,24.34,0,0,1-4.28,3.61c-.2.13-.48.1-.44-.16.05-.42.5-3.25.58-4.09A1.69,1.69,0,0,0,9,3.92c-.67-.09-1.69.1-2.26,1.63A34.22,34.22,0,0,0,5.13,10.3,14.4,14.4,0,0,0,5,16.16a.58.58,0,0,1-.08.39A23.26,23.26,0,0,0,3.48,19.1a.74.74,0,0,0,.3.92.71.71,0,0,0,.34.08.73.73,0,0,0,.65-.4c.21-.46.66-1.32.84-1.67a12,12,0,0,0,.58-1.29,2,2,0,0,0,0-1.13,11.75,11.75,0,0,1,.11-4.73A49.83,49.83,0,0,1,8,5.6c.17-.42.42-.56.66-.53s.71.14.58,1C9,7.62,8.65,9.58,8.54,10.24A1.33,1.33,0,0,0,9,11.67a1.43,1.43,0,0,0,1.55-.26,29.08,29.08,0,0,0,4.88-4.14,11.24,11.24,0,0,0,2.3-3.49.66.66,0,0,1,.77-.35c.15,0,.34.26.21.7A15.22,15.22,0,0,1,14.52,10a.5.5,0,0,0-.1.73.47.47,0,0,0,.7,0,16.92,16.92,0,0,0,4.22-5.55,11.25,11.25,0,0,0,.5-1.29.58.58,0,0,1,.6-.45c.29.06.47.34.38.82A8,8,0,0,1,20.19,6a24.3,24.3,0,0,1-4,5.45.47.47,0,0,0,0,.69c.23.22.5.12.74-.11a21.71,21.71,0,0,0,4-5.37.51.51,0,0,1,.65-.32c.32.13.32.68,0,1.28a20.38,20.38,0,0,1-4,5.51.44.44,0,0,0,0,.65c.19.17.49.15.77-.13A23,23,0,0,0,21,10.74a.56.56,0,0,1,.56-.28c.28,0,.32.32.23.64a16,16,0,0,1-2.17,3.06" />
  <path d="M5.91,4.34h0a.2.2,0,0,0,0-.25c-.13-.39-.86-2-1.05-2.32a.27.27,0,0,0-.35-.14,2.78,2.78,0,0,0-.71.48,2.7,2.7,0,0,0-.6.6.24.24,0,0,0,.1.35c.32.22,1.92,1.11,2.31,1.28.08,0,.18.08.27,0" />
  <path d="M4.84,5.23c-.39-.1-2.13-.37-2.51-.39A.26.26,0,0,0,2,5.07a3,3,0,0,0,.07.87,2.74,2.74,0,0,0,.22.84.23.23,0,0,0,.34.11c.35-.15,1.9-1,2.24-1.27.06,0,.15-.1.13-.22H5c0-.12-.12-.14-.2-.16" />
  <path d="M19.63,21.44c-.11-.36-.8-2-1-2.36,0-.07-.09-.16-.21-.15h0c-.13,0-.16.1-.19.18-.15.38-.6,2.09-.66,2.46,0,.19.05.28.19.31a2.72,2.72,0,0,0,.87,0,3,3,0,0,0,.86-.14.23.23,0,0,0,.14-.33" />
  <path d="M21.3,20.23a.24.24,0,0,0,.36,0,2.68,2.68,0,0,0,.46-.71,2.73,2.73,0,0,0,.31-.8c0-.13,0-.24-.22-.29A25.18,25.18,0,0,0,19.68,18c-.08,0-.19,0-.24.09h0c-.06.11,0,.19.06.25.26.33,1.51,1.63,1.8,1.88" />
</svg>
