<svg id="Layer_1" data-name="Layer 1" xmlns="http://www.w3.org/2000/svg" viewBox="0 0 24 24">
  <path d="M17.59,19.6h0A.59.59,0,0,1,17,19a5.53,5.53,0,0,0-3.18-5.76l-.29-.16a1.27,1.27,0,0,1-.72-.88,1.26,1.26,0,0,1,.54-1l.18-.16a3.09,3.09,0,0,0,1.24-2.63A2.75,2.75,0,0,0,12,5.6h-.4A2.75,2.75,0,0,0,8.84,8.38,3.09,3.09,0,0,0,10.08,11l.18.16a1.26,1.26,0,0,1,.54,1,1.27,1.27,0,0,1-.72.88l-.29.16A5.53,5.53,0,0,0,6.61,19,.6.6,0,1,1,5.42,19a6.68,6.68,0,0,1,3.81-6.88l.2-.11-.14-.13A4.27,4.27,0,0,1,7.64,8.38a3.93,3.93,0,0,1,4-4H12a3.93,3.93,0,0,1,4,4,4.27,4.27,0,0,1-1.65,3.53l-.14.13.2.11A6.68,6.68,0,0,1,18.18,19,.59.59,0,0,1,17.59,19.6Z"/>
</svg>
