<svg xmlns="http://www.w3.org/2000/svg" viewBox="0 0 24 24">
  <title>reader-following</title>
  <path d="M18.19,15.25a3.38,3.38,0,1,1,3.37-3.37A3.38,3.38,0,0,1,18.19,15.25Zm-12.38,0a3.38,3.38,0,1,1,3.37-3.58,1.48,1.48,0,0,1,0,.21A3.38,3.38,0,0,1,5.81,15.25Zm17.44-4.13H23a4.86,4.86,0,0,0-9.36-.93,3,3,0,0,0-3.27,0A4.85,4.85,0,0,0,1,11.12H.75a.76.76,0,0,0-.75.76.75.75,0,0,0,.75.74H1a4.87,4.87,0,0,0,9.68-.74v0s0,0,.06,0A1.7,1.7,0,0,1,12,11.15a1.71,1.71,0,0,1,1.24.64s0,0,.07.06v0a4.87,4.87,0,0,0,9.68.74h.26a.75.75,0,0,0,.75-.74A.76.76,0,0,0,23.25,11.12Z" style="fill-rule: evenodd"/>
</svg>
