<svg xmlns="http://www.w3.org/2000/svg" viewBox="0 0 24 24">
  <path d="M12,18.09c-6,0-8.58-5.54-8.68-5.78a.75.75,0,0,1,0-.62C3.43,11.45,6.1,5.92,12,5.92s8.57,5.53,8.68,5.77a.75.75,0,0,1,0,.62C20.58,12.55,18,18.09,12,18.09ZM4.84,12c.6,1.1,2.82,4.58,7.16,4.58s6.56-3.5,7.16-4.58c-.62-1.09-2.91-4.59-7.16-4.59S5.46,10.94,4.84,12Z"/>
  <path d="M12,15.66a3.65,3.65,0,1,1,2.59-1.07h0A3.65,3.65,0,0,1,12,15.66Zm0-5.81a2.18,2.18,0,0,0-1.53.63,2.16,2.16,0,0,0,0,3,2.23,2.23,0,0,0,3.06,0h0A2.16,2.16,0,0,0,12,9.85Z"/>
  <path d="M6,18.76a.71.71,0,0,1-.53-.22.74.74,0,0,1,0-1.06l12-12a.75.75,0,0,1,1.06,0,.74.74,0,0,1,0,1.06l-12,12A.74.74,0,0,1,6,18.76Z"/>
</svg>
