<svg xmlns="http://www.w3.org/2000/svg" viewBox="0 0 24 24">
  <path d="M16.87,17.5a1.07,1.07,0,0,1-.46-.11L12,15.07,7.59,17.39a1,1,0,0,1-1-.08,1,1,0,0,1-.4-1L7,11.42,3.42,8a1,1,0,0,1-.26-1A1,1,0,0,1,4,6.24L8.9,5.52l2.2-4.46a1,1,0,0,1,1.8,0l2.2,4.46L20,6.24a1,1,0,0,1,.81.68,1,1,0,0,1-.26,1L17,11.42l.84,4.91a1,1,0,0,1-.4,1A1,1,0,0,1,16.87,17.5ZM12,12.94a1.12,1.12,0,0,1,.47.11l3.08,1.62L15,11.24a1,1,0,0,1,.28-.88l2.5-2.43-3.45-.5a1,1,0,0,1-.75-.55L12,3.76,10.46,6.88a1,1,0,0,1-.75.55l-3.45.5,2.5,2.43a1,1,0,0,1,.28.88l-.59,3.43,3.08-1.62A1.12,1.12,0,0,1,12,12.94Z"/>
  <path d="M12,23.5a1,1,0,0,1-1-1v-4a1,1,0,0,1,2,0v4A1,1,0,0,1,12,23.5Z"/>
  <path d="M8,22.5a1,1,0,0,1-1-1v-2a1,1,0,0,1,2,0v2A1,1,0,0,1,8,22.5Z"/>
  <path d="M16,22.5a1,1,0,0,1-1-1v-2a1,1,0,0,1,2,0v2A1,1,0,0,1,16,22.5Z"/>
</svg>
