<svg xmlns="http://www.w3.org/2000/svg" viewBox="0 0 24 24">
  <title>tab-wallet</title>
  <path d="M18.75,16.51a.75.75,0,1,0,.75.75A.75.75,0,0,0,18.75,16.51Z" style="fill-rule: evenodd"/>
  <path d="M21.5,18.93A1.08,1.08,0,0,1,20.42,20H4.75A2.25,2.25,0,0,1,2.5,17.76V9a3.93,3.93,0,0,0,2,.54H20.42A1.09,1.09,0,0,1,21.5,10.6ZM4.51,3.5H19.43a1.08,1.08,0,0,1,1.08,1.08V7.52h-16a2,2,0,1,1,0-4Zm18,4.84V4.58A3.08,3.08,0,0,0,19.43,1.5H4.51a4,4,0,0,0-4,3.92V17.76A4.25,4.25,0,0,0,4.75,22H20.42a3.08,3.08,0,0,0,3.08-3.08V10.6A3.06,3.06,0,0,0,22.51,8.34Z" style="fill-rule: evenodd"/>
  <path d="M5,6.11H18.25a.5.5,0,0,0,.5-.5.5.5,0,0,0-.5-.5H5a.5.5,0,0,0-.5.5A.5.5,0,0,0,5,6.11Z" style="fill-rule: evenodd"/>
</svg>
