<svg xmlns="http://www.w3.org/2000/svg" viewBox="0 0 24 24">
  <title>tab-reader</title>
  <path d="M18.19,15.38A3.38,3.38,0,1,1,21.56,12,3.39,3.39,0,0,1,18.19,15.38Zm-12.38,0a3.38,3.38,0,1,1,3.37-3.59,1.48,1.48,0,0,1,0,.21A3.39,3.39,0,0,1,5.81,15.38Zm17.44-4.13H23a4.86,4.86,0,0,0-9.37-.95,2.78,2.78,0,0,0-3.25,0,4.87,4.87,0,0,0-9.38,1H.75a.75.75,0,0,0,0,1.5H1A4.87,4.87,0,0,0,10.69,12v0l.06-.05A1.71,1.71,0,0,1,12,11.27a1.68,1.68,0,0,1,1.24.65l.07.06v0a4.87,4.87,0,0,0,9.69.75h.25a.75.75,0,0,0,0-1.5Z" style="fill-rule: evenodd"/>
  <path d="M5.81,13.62A1.62,1.62,0,0,1,4.2,12a.38.38,0,0,0-.38-.38.37.37,0,0,0-.37.38,2.37,2.37,0,0,0,2.36,2.37A.38.38,0,0,0,6.19,14,.37.37,0,0,0,5.81,13.62Z" style="fill-rule: evenodd"/>
</svg>
