<svg xmlns="http://www.w3.org/2000/svg" viewBox="0 0 24 24">
  <title>tab-settings</title>
  <path d="M5.5,3A1.75,1.75,0,1,1,3.75,4.75,1.75,1.75,0,0,1,5.5,3ZM1,5.75H2.94a2.75,2.75,0,0,0,5.12,0H22.5a1,1,0,0,0,0-2H8.06a2.75,2.75,0,0,0-5.12,0H1a1,1,0,0,0,0,2Z" style="fill-rule: evenodd"/>
  <path d="M18,13.41a1.75,1.75,0,1,1,1.75-1.75A1.75,1.75,0,0,1,18,13.41Zm4.5-2.75H20.56a2.75,2.75,0,0,0-5.12,0H1a1,1,0,0,0,0,2H15.44a2.75,2.75,0,0,0,5.12,0H22.5a1,1,0,0,0,0-2Z" style="fill-rule: evenodd"/>
  <path d="M11,20.31a1.75,1.75,0,1,1,1.75-1.75A1.75,1.75,0,0,1,11,20.31ZM22.5,17.56H13.58a2.74,2.74,0,0,0-5.11,0H1a1,1,0,0,0,0,2H8.47a2.74,2.74,0,0,0,5.11,0H22.5a1,1,0,0,0,0-2Z" style="fill-rule: evenodd"/>
</svg>
