<svg width="43" height="40" fill="none" xmlns="http://www.w3.org/2000/svg">
  <g clip-path="url(#prefix__clip0_4246_19192)">
    <mask id="prefix__a" style="mask-type:alpha" maskUnits="userSpaceOnUse" x="35" y="0" width="5" height="6">
      <path d="M35.447.106h3.81v5.498h-3.81V.106z" fill="#fff" />
    </mask>
    <g mask="url(#prefix__a)">
      <path fill-rule="evenodd" clip-rule="evenodd"
        d="M35.675 5.578l.004.002c.206.08.34-.056.448-.16.54-.514 2.632-2.962 3.013-3.523.192-.281.127-.49-.063-.653-.25-.215-.678-.421-1.407-.705-.728-.283-1.183-.421-1.514-.433-.252-.007-.442.102-.494.437-.104.669-.25 3.875-.207 4.615.009.15.014.34.22.42"
        fill="#50E3C2" />
    </g>
    <path fill-rule="evenodd" clip-rule="evenodd"
      d="M42.369 6.575c-.125-.754-.236-1.207-.395-1.487-.12-.214-.311-.314-.629-.182-.634.265-3.49 1.83-4.111 2.256-.125.085-.288.19-.253.404l.002.005c.035.213.22.253.366.29.72.178 3.908.628 4.589.651.341.012.489-.15.534-.395.06-.321.02-.787-.103-1.541v-.001zM6.372 5.42c.109.104.243.24.449.16l.005-.002c.205-.08.21-.27.219-.42.043-.74-.103-3.946-.208-4.615C6.786.207 6.597.1 6.344.107c-.33.01-.787.15-1.515.432-.728.284-1.157.49-1.407.705-.19.164-.254.372-.063.653.383.561 2.473 3.01 3.013 3.523zm-.854 2.15v-.004c.036-.213-.127-.318-.252-.404-.621-.425-3.477-1.99-4.111-2.256-.318-.132-.508-.032-.629.182-.16.28-.27.733-.395 1.487-.124.755-.164 1.22-.104 1.542.046.244.194.407.535.395.681-.023 3.87-.473 4.59-.651.144-.037.33-.077.366-.29"
      fill="#50E3C2" />
    <mask id="prefix__b" style="mask-type:alpha" maskUnits="userSpaceOnUse" x="1" y="3" width="41" height="37">
      <path d="M1.479 3.935H41.02v36.044H1.48V3.935z" fill="#fff" />
    </mask>
    <g mask="url(#prefix__b)">
      <path fill-rule="evenodd" clip-rule="evenodd"
        d="M38.229 24.874a2.104 2.104 0 00-1.446-.74 2.104 2.104 0 00-1.545.5l-.112.094c-.479-.462-1.03-1.006-1.155-1.215-.368-.615-.546-1.174-.71-1.786a35.145 35.145 0 001.604-2.188c.663-.982.713-1.835.638-2.377a2.616 2.616 0 00-1.069-1.79 2.6 2.6 0 00-.54-.294c.157-.29.28-.578.354-.866a2.74 2.74 0 00-1.33-3.086c-.2-.11-.427-.197-.67-.253.473-1.407-.087-2.652-.938-3.303a2.658 2.658 0 00-1.8-.56c-.07-.726-.42-1.436-1.146-1.976-1.185-.885-3.069-.916-4.375.734-.07.088-.141.173-.212.26l-.056-.037c-.877-.59-1.569-1.054-2.31-1.39-1.225-.557-2.579-.176-3.39.917l-.036-.042c-1.59-1.898-3.537-1.823-4.675-.951-.872.67-1.153 1.617-1.036 2.528a2.802 2.802 0 00-2.308 3.544 2.612 2.612 0 00-.864.303c-1.113.627-1.631 1.95-1.263 3.22.077.26.21.553.38.862-.423.156-.809.43-1.11.81-.658.83-.965 2.273.147 3.836.536.751 1.054 1.42 1.585 2.043.023.028.05.052.074.078-.163.603-.341 1.156-.705 1.765-.113.187-.57.646-1.009 1.072a2.107 2.107 0 00-1.484-.452 2.102 2.102 0 00-1.446.74l-2.287 2.692a2.128 2.128 0 00.24 2.993l10.46 8.913a2.105 2.105 0 001.545.5 2.108 2.108 0 001.446-.74l2.287-2.691c.367-.432.544-.982.499-1.547a2.102 2.102 0 00-.604-1.32c.54-.546 1.012-.977 1.381-1.263.62-.482 1.213-.845 1.852-1.183.716.379 1.285.742 1.852 1.183.407.315.938.808 1.55 1.433a2.11 2.11 0 00-.453 1.15 2.113 2.113 0 00.5 1.547l2.287 2.69a2.11 2.11 0 001.62.748c.502 0 .983-.176 1.371-.506l10.458-8.914c.89-.758.999-2.102.24-2.993l-2.287-2.692z"
        fill="#28646E" />
    </g>
    <path fill-rule="evenodd" clip-rule="evenodd"
      d="M18.116 30.959c-.459.356-1.014.865-1.653 1.515l-7.857-6.695c.644-.63.985-1.003 1.175-1.32.425-.71.655-1.357.833-1.978.017 0 .034.003.052.003.613 0 1.273-.22 1.875-.73.52-.443.85-1.028.948-1.66h.006c.648 0 1.31-.26 1.878-.778a3.304 3.304 0 001.024-1.851c.174.034.349.051.522.051.768 0 1.501-.323 2.015-.823.595-.579.972-1.458.828-2.405a3.02 3.02 0 001.805-.915 2.79 2.79 0 00.6-3.023c1.145-1.097 2.23-2.143 3.259-3.442.61-.771 1.365-.757 1.842-.402.406.303.656.888.142 1.624-.558.8-1 1.268-1.613 1.914-.27.288-.578.613-.94 1.013a.919.919 0 00.68 1.534c.25 0 .5-.102.68-.302.347-.385.648-.702.912-.982.608-.643 1.094-1.157 1.686-1.986a1.03 1.03 0 00.112-.102c.461-.503.958-.427 1.27-.189.364.278.607.897.09 1.723-.203.323-.466.678-.766 1.05l-.046.046a.84.84 0 00-.113.15 44.911 44.911 0 01-1.886 2.098.918.918 0 001.332 1.262c.699-.739 1.444-1.548 2.072-2.32.393-.387.8-.498 1.156-.303.294.16.555.549.435 1.02-.205.796-1.362 1.995-2.291 2.956-.154.16-.307.318-.454.473a.918.918 0 001.326 1.267l.446-.463c.241-.25.484-.502.72-.754a.912.912 0 00.15-.154l.048-.06.04-.044c.318-.331.67-.284.909-.113.34.244.538.82-.02 1.647-.587.87-1.541 2.188-2.75 3.524-2.543 2.811-5.133 5.052-6.757 5.847-.608.297-1.151.549-1.677.791-1.52.703-2.72 1.258-4.046 2.286zm5.949 0a13.457 13.457 0 00-.979-.69c.472-.218.994-.461 1.558-.738 1.827-.894 4.52-3.194 7.22-6.162.137.349.308.71.535 1.09.205.341.582.745 1.325 1.465l-7.861 6.699c-.702-.722-1.306-1.282-1.799-1.664h.001zM19.418 6.723c.08-.132.519-.776 1.235-.45.563.255 1.156.646 1.888 1.136a59.91 59.91 0 01-1.544 1.547c-.428-.184-1.233-.713-1.408-.853-.663-.528-.223-1.295-.17-1.38zm-4.992-.74c.482-.37 1.335-.305 2.154.673.25.3.519.607.818.938.06.744.417 1.442 1.05 1.946.402.32 1.302.819 1.785 1.079.395.551.408 1.075.02 1.474a1.292 1.292 0 01-1.826.02c-1.194-1.09-3.198-3.353-4.046-4.567-.513-.735-.297-1.302.045-1.564"
      fill="#fff" />
    <path fill-rule="evenodd" clip-rule="evenodd"
      d="M12.094 9.041c.328-.233.9-.274 1.38.352.927 1.21 2.654 3.106 3.718 4.077.079.072.321.317.367.369.729.805.258 1.381.097 1.537-.262.255-.855.542-1.422-.002-1.42-1.36-3.74-3.897-4.258-4.724-.487-.777-.258-1.34.118-1.609zM10.001 12.5c.417-.235.912-.24 1.487.466.53.65 2.145 2.413 2.798 3.162.525.602.75 1.4.218 1.808-.67.517-1.342.282-1.776-.245-1.312-1.37-2.904-3.318-3.127-4.085-.153-.522.09-.932.4-1.105V12.5zM8.75 18.562c-.444-.623-.531-1.241-.204-1.63.17-.202.729-.37 1.012-.026a37.762 37.762 0 001.838 2.083c.502.665.26 1.107-.042 1.365-.336.286-.878.409-1.118.127a27.804 27.804 0 01-1.486-1.92"
      fill="#fff" />
    <path fill-rule="evenodd" clip-rule="evenodd"
      d="M16.565 35.35l-2.288 2.692a.283.283 0 01-.195.1.281.281 0 01-.21-.068L3.413 29.163a.289.289 0 01-.033-.407l2.287-2.691a.283.283 0 01.197-.1l.023-.001c.047 0 .12.011.187.069l10.458 8.912c.08.068.097.152.1.196a.282.282 0 01-.067.21"
      fill="#50E3C2" />
    <path fill-rule="evenodd" clip-rule="evenodd"
      d="M39.087 29.162l-10.459 8.912a.285.285 0 01-.406-.032l-2.287-2.691a.288.288 0 01.032-.407l10.46-8.912a.285.285 0 01.187-.069h.022a.29.29 0 01.196.1l2.288 2.693a.29.29 0 01-.033.406z"
      fill="#D7ECEC" />
  </g>
  <defs>
    <clipPath id="prefix__clip0_4246_19192">
      <path fill="#fff" d="M0 0h42.5v40H0z" />
    </clipPath>
  </defs>
</svg>