<svg xmlns="http://www.w3.org/2000/svg" viewBox="0 0 68 56">
  <path d="M68,14.61a1.11,1.11,0,0,0,0-.19s0,0,0-.06a2.29,2.29,0,0,0-.1-.23,1.33,1.33,0,0,0-.14-.19l0,0a1.58,1.58,0,0,0-.15-.12l0,0L44.36.4a1,1,0,0,0-1,0L20.2,13.76l0,0L20,13.9s0,0,0,0a.9.9,0,0,0-.15.19,1.09,1.09,0,0,0-.09.23s0,0,0,.06a1.11,1.11,0,0,0,0,.19s0,0,0,0v7.43a1,1,0,0,0,2,0V16.42l19,11a1.06,1.06,0,0,0,.51.14,1,1,0,0,0,.52-1.91l-19-11L43.85,2.48,64.93,14.65l-19,11a1,1,0,0,0-.37,1.4,1,1,0,0,0,.89.51,1.06,1.06,0,0,0,.51-.14l19-11V40.76L44.87,52.93V31a1,1,0,0,0-2,0V52.93L21.74,40.76V35.62a1,1,0,1,0-2,0v5.73a1,1,0,0,0,.51.89L43.33,55.59l0,0,.17.07.07,0a.88.88,0,0,0,.24,0l.24,0,.06,0,.17-.07,0,0L67.49,42.24a1,1,0,0,0,.51-.89V14.65S68,14.62,68,14.61Z" style="fill-rule: evenodd"/>
  <path d="M43,7.56a.9.9,0,1,1,.9.89A.89.89,0,0,1,43,7.56Zm3,0a2.1,2.1,0,1,0-2.09,2.1A2.1,2.1,0,0,0,45.94,7.56Z" style="fill-rule: evenodd"/>
  <path d="M61.67,37.05a.89.89,0,1,1-.89.89A.89.89,0,0,1,61.67,37.05Zm-2.1.89a2.1,2.1,0,1,0,2.1-2.1A2.11,2.11,0,0,0,59.57,37.94Z" style="fill-rule: evenodd"/>
  <path d="M26.19,37.3a.89.89,0,1,1-.89.89A.89.89,0,0,1,26.19,37.3Zm-2.1.89a2.1,2.1,0,1,0,2.1-2.1A2.11,2.11,0,0,0,24.09,38.19Z" style="fill-rule: evenodd"/>
  <circle cx="31.13" cy="41.06" r="0.95"/>
  <circle cx="35.37" cy="43.52" r="0.95"/>
  <circle cx="39.61" cy="45.99" r="0.95"/>
  <circle cx="56.57" cy="41.06" r="0.95"/>
  <circle cx="52.33" cy="43.52" r="0.95"/>
  <circle cx="48.09" cy="45.99" r="0.95"/>
  <circle cx="56.57" cy="14.91" r="0.95"/>
  <circle cx="52.33" cy="12.45" r="0.95"/>
  <circle cx="48.09" cy="9.99" r="0.95"/>
  <circle cx="31.13" cy="14.91" r="0.95"/>
  <circle cx="35.37" cy="12.45" r="0.95"/>
  <circle cx="39.61" cy="9.99" r="0.95"/>
  <circle cx="26.19" cy="32.47" r="0.95"/>
  <circle cx="26.19" cy="27.56" r="0.95"/>
  <circle cx="26.19" cy="22.66" r="0.95"/>
  <circle cx="61.67" cy="32.47" r="0.95"/>
  <circle cx="61.67" cy="27.56" r="0.95"/>
  <circle cx="61.67" cy="22.66" r="0.95"/>
  <path d="M3.36,27.58H1a1,1,0,0,0,0,2.05H3.36a1,1,0,0,0,0-2.05Z" style="fill-rule: evenodd"/>
  <path d="M21,29.17l0-.05a.75.75,0,0,0,.07-.12s0-.05,0-.07,0-.08,0-.12a1.49,1.49,0,0,0,0-.21,1.36,1.36,0,0,0,0-.2s0-.08,0-.12a.64.64,0,0,0,0-.07c0-.05-.05-.09-.07-.13l0,0a1.58,1.58,0,0,0-.12-.15l-4.75-4.74a1,1,0,0,0-1.45,1.45l3,3H7.52a1,1,0,1,0,0,2.05H17.7l-3,3a1,1,0,0,0,0,1.45,1,1,0,0,0,.73.3,1,1,0,0,0,.72-.3l4.75-4.74A1,1,0,0,0,21,29.17Z" style="fill-rule: evenodd"/>
</svg>
