<svg xmlns="http://www.w3.org/2000/svg" viewBox="0 0 68 56">
  <path d="M25.1945 21.2772C25.0885 21.4682 24.4935 22.4842 23.1495 23.7152C22.9515 23.8952 22.9325 24.2082 23.1065 24.4132C23.2015 24.5242 23.3325 24.5802 23.4645 24.5802C23.5765 24.5802 23.6885 24.5392 23.7785 24.4572C25.2355 23.1232 25.9015 21.9852 26.0205 21.7702C26.1145 21.6002 26.3745 21.2112 26.7645 21.2662C27.0255 21.3032 27.2645 21.1132 27.3005 20.8422C27.3355 20.5722 27.1535 20.3222 26.8925 20.2852C26.2255 20.1912 25.5905 20.5612 25.1945 21.2772Z"/>
  <path d="M14.8627 32.6283C14.9617 32.7463 15.1037 32.8073 15.2477 32.8073C15.3607 32.8073 15.4737 32.7693 15.5677 32.6913C16.0107 32.3253 16.9577 31.7233 17.2167 31.5943C17.4637 31.4713 17.5647 31.1733 17.4407 30.9273C17.3167 30.6823 17.0167 30.5823 16.7687 30.7053C16.4247 30.8763 15.4227 31.5183 14.9267 31.9283C14.7147 32.1043 14.6857 32.4173 14.8627 32.6283Z"/>
  <path d="M30.3778 29.9393C29.0528 31.4163 27.7268 32.2263 25.1748 33.5503C24.2848 34.0123 23.6188 34.4563 23.2148 35.1373C22.8478 35.7563 22.7388 35.9593 22.7008 36.0373C22.5558 36.3373 22.6708 36.7173 22.9728 36.8613C23.0568 36.9013 23.1448 36.9203 23.2318 36.9203C23.4678 36.9203 23.6908 36.7803 23.7868 36.5493C23.7908 36.5413 23.7678 36.5593 24.2478 35.7483C24.4798 35.3573 24.9808 34.7753 25.7508 34.4253C28.3018 33.2633 29.3468 32.3433 30.8278 30.8633C31.5038 30.1893 32.4378 28.7423 32.6918 28.3143C33.4048 27.1153 33.0298 26.0863 32.3868 25.9123C32.3338 25.8973 32.3078 25.8383 32.3358 25.7913C32.8338 24.9373 33.0608 24.3483 33.1548 23.8913C33.2808 23.2703 33.1058 22.5163 32.2528 22.3333C32.2068 22.3233 32.1798 22.2763 32.1918 22.2313C32.2458 22.0343 32.2988 21.7863 32.3358 21.6233C32.5138 20.8163 32.0038 20.0853 31.3908 19.9553C30.9598 19.8623 30.5758 19.9613 30.2408 20.1943C30.1938 20.2273 30.1318 20.2183 30.0928 20.1763C29.9608 20.0343 29.7478 19.8843 29.4558 19.8793C28.9208 19.8703 28.3958 20.0343 28.0108 20.8543C27.7358 21.4413 27.3258 22.2293 26.1258 23.5603C25.0128 24.7933 23.4618 25.9963 22.5048 26.6243C22.3368 26.7343 22.1018 26.7093 22.1298 26.4833C22.1748 26.1263 22.5588 23.7243 22.6238 23.0163C22.7298 21.8663 22.1108 21.3413 21.4168 21.2483C20.8458 21.1703 19.9788 21.3353 19.5038 22.6353C19.2248 23.3973 18.6448 24.6483 18.1528 26.6653C17.8068 28.0833 17.7498 29.7363 18.0658 31.6363C18.0848 31.7513 18.0638 31.8693 18.0038 31.9683C17.6248 32.5913 17.0698 33.4113 16.7608 34.1263C16.6368 34.4123 16.7408 34.7583 17.0148 34.9083C17.1068 34.9583 17.2058 34.9813 17.3028 34.9813C17.5278 34.9813 17.7438 34.8543 17.8468 34.6373C18.0298 34.2503 18.4088 33.5213 18.5568 33.2183C18.8148 32.6923 18.9858 32.3443 19.0548 32.1253C19.1188 31.9253 19.1568 31.6943 19.0408 31.1683C18.8468 30.2823 18.7798 28.6193 19.1398 27.1533C19.6198 25.2083 20.4328 23.0343 20.5778 22.6753C20.7228 22.3163 20.9298 22.2043 21.1358 22.2223C21.3418 22.2413 21.7358 22.3413 21.6228 23.0723C21.4208 24.3863 21.1358 26.0523 21.0418 26.6153C20.9958 26.8903 20.9428 27.5343 21.4518 27.8283C21.8488 28.0583 22.2848 27.9303 22.7678 27.6083C23.8538 26.8843 25.7258 25.4103 26.9008 24.0903C28.1348 22.7063 28.5288 21.8813 28.8458 21.1353C28.9908 20.7953 29.3618 20.7983 29.4928 20.8353C29.6248 20.8733 29.7838 21.0513 29.6708 21.4263C29.3978 22.3363 28.2708 24.4223 26.1008 26.3773C25.8548 26.5993 25.8888 26.8613 26.0148 26.9983C26.1328 27.1263 26.3608 27.2173 26.6138 27.0023C28.5648 25.3403 29.6778 23.3543 30.1778 22.2913C30.4278 21.7603 30.5228 21.4443 30.6058 21.2013C30.7128 20.8923 30.9508 20.7823 31.1158 20.8163C31.3538 20.8673 31.5098 21.1103 31.4348 21.5103C31.3688 21.8583 31.1698 22.4263 30.9028 22.9913C30.2778 24.3173 28.9578 26.0923 27.5328 27.6163C27.3808 27.7793 27.3448 28.0263 27.5328 28.2023C27.7268 28.3833 27.9518 28.3053 28.1578 28.1083C29.5708 26.7583 31.0678 24.6503 31.5658 23.5533C31.6718 23.3193 31.8878 23.1893 32.1198 23.2823C32.3918 23.3913 32.3878 23.8583 32.1408 24.3663C31.4908 25.7093 30.5828 27.1883 28.7948 29.0383C28.6218 29.2153 28.6478 29.4503 28.8018 29.5893C28.9598 29.7313 29.2158 29.7223 29.4558 29.4783C30.3848 28.5323 31.0098 27.7953 31.5468 27.0403C31.6848 26.8403 31.8508 26.7633 32.0158 26.7963C32.2508 26.8433 32.2878 27.0683 32.2158 27.3393C32.1008 27.7783 30.8658 29.3953 30.3778 29.9393Z"/>
  <path d="M18.8151 21.6073L18.8161 21.6063C18.8951 21.5413 18.8641 21.4583 18.8421 21.3933C18.7331 21.0663 18.1141 19.7013 17.9521 19.4273C17.8711 19.2893 17.7671 19.2703 17.6561 19.3103C17.5101 19.3623 17.3301 19.4883 17.0541 19.7173C16.7771 19.9453 16.6201 20.0963 16.5461 20.2263C16.4891 20.3243 16.4961 20.4233 16.6311 20.5173C16.8981 20.7043 18.2571 21.4603 18.5861 21.6033C18.6531 21.6323 18.7371 21.6713 18.8151 21.6073Z"/>
  <path d="M17.9093 22.3602C17.5763 22.2722 16.1023 22.0472 15.7883 22.0342C15.6303 22.0282 15.5633 22.1062 15.5433 22.2232C15.5163 22.3772 15.5363 22.6012 15.5963 22.9642C15.6563 23.3272 15.7093 23.5452 15.7843 23.6802C15.8403 23.7832 15.9283 23.8322 16.0753 23.7692C16.3663 23.6432 17.6793 22.8982 17.9653 22.6952C18.0223 22.6542 18.0963 22.6052 18.0793 22.5022V22.5002C18.0623 22.3972 17.9763 22.3782 17.9093 22.3602Z"/>
  <path d="M30.4284 36.1161C30.3364 35.8121 29.7484 34.4231 29.5804 34.1171C29.5464 34.0561 29.5054 33.9761 29.4024 33.9831H29.3994C29.2964 33.9901 29.2674 34.0741 29.2424 34.1391C29.1184 34.4641 28.7304 35.9151 28.6824 36.2281C28.6594 36.3861 28.7284 36.4611 28.8414 36.4931C28.9914 36.5351 29.2144 36.5371 29.5794 36.5141C29.9454 36.4911 30.1664 36.4591 30.3084 36.3981C30.4164 36.3521 30.4744 36.2691 30.4284 36.1161Z"/>
  <path d="M31.8388 35.0848C31.9618 35.1888 32.0608 35.1708 32.1458 35.0938C32.2568 34.9908 32.3698 34.8038 32.5318 34.4848C32.6938 34.1658 32.7778 33.9638 32.7968 33.8118C32.8108 33.6958 32.7678 33.6028 32.6128 33.5598C32.3058 33.4738 30.8178 33.2238 30.4708 33.2018C30.4008 33.1968 30.3118 33.1888 30.2658 33.2788L30.2648 33.2808C30.2188 33.3708 30.2768 33.4408 30.3208 33.4968C30.5378 33.7748 31.5928 34.8768 31.8388 35.0848Z"/>
  <path d="M47.737 34.6537C47.165 34.6537 46.702 35.1177 46.702 35.6887V40.8827L25.421 53.1697V44.1947C25.421 43.6227 24.957 43.1587 24.386 43.1587C23.814 43.1587 23.351 43.6227 23.351 44.1947V53.1697L2.07 40.8827V16.3097L9.843 20.7977C10.006 20.8907 10.184 20.9357 10.359 20.9357C10.717 20.9357 11.065 20.7507 11.256 20.4187C11.542 19.9237 11.372 19.2907 10.877 19.0047L3.105 14.5167L24.386 2.2297L45.667 14.5167L37.894 19.0047C37.399 19.2907 37.229 19.9237 37.516 20.4187C37.707 20.7507 38.055 20.9357 38.413 20.9357C38.588 20.9357 38.766 20.8907 38.929 20.7977L46.702 16.3097V22.0217C46.702 22.5937 47.165 23.0567 47.737 23.0567C48.308 23.0567 48.772 22.5937 48.772 22.0217V14.5167C48.772 14.5037 48.767 14.4907 48.767 14.4767C48.764 14.4137 48.756 14.3517 48.741 14.2887C48.737 14.2677 48.733 14.2467 48.727 14.2257C48.705 14.1487 48.675 14.0717 48.633 13.9997C48.591 13.9267 48.54 13.8627 48.485 13.8047C48.469 13.7887 48.452 13.7747 48.435 13.7597C48.389 13.7167 48.34 13.6787 48.288 13.6467C48.276 13.6387 48.267 13.6277 48.254 13.6207L24.903 0.138704C24.583 -0.0462958 24.189 -0.0462958 23.869 0.138704L0.517 13.6207C0.506 13.6267 0.498 13.6367 0.487 13.6437C0.433 13.6777 0.382 13.7167 0.334 13.7607C0.319 13.7757 0.303 13.7887 0.288 13.8037C0.232 13.8627 0.181 13.9257 0.139 13.9997C0.096 14.0717 0.067 14.1487 0.044 14.2257C0.039 14.2467 0.035 14.2677 0.03 14.2887C0.016 14.3517 0.008 14.4137 0.005 14.4767C0.005 14.4907 0 14.5037 0 14.5167V41.4807C0 41.8497 0.197 42.1917 0.517 42.3767L23.869 55.8587C23.881 55.8647 23.894 55.8677 23.906 55.8737C23.961 55.9037 24.019 55.9267 24.08 55.9457C24.101 55.9527 24.122 55.9607 24.143 55.9657C24.221 55.9847 24.302 55.9967 24.386 55.9967C24.47 55.9967 24.55 55.9847 24.629 55.9657C24.65 55.9597 24.671 55.9527 24.692 55.9457C24.753 55.9267 24.81 55.9037 24.866 55.8737C24.878 55.8677 24.891 55.8647 24.903 55.8587L48.254 42.3767C48.575 42.1917 48.772 41.8497 48.772 41.4807V35.6887C48.772 35.1177 48.308 34.6537 47.737 34.6537Z"/>
  <path d="M24.3859 8.2601C23.8889 8.2601 23.4859 7.8561 23.4859 7.3601C23.4859 6.8641 23.8889 6.4601 24.3859 6.4601C24.8829 6.4601 25.2859 6.8641 25.2859 7.3601C25.2859 7.8561 24.8829 8.2601 24.3859 8.2601ZM24.3859 5.2411C23.2179 5.2411 22.2669 6.1921 22.2669 7.3601C22.2669 8.5281 23.2179 9.4781 24.3859 9.4781C25.5539 9.4781 26.5039 8.5281 26.5039 7.3601C26.5039 6.1921 25.5539 5.2411 24.3859 5.2411Z"/>
  <path d="M42.3832 37.1336C42.8802 37.1336 43.2832 37.5376 43.2832 38.0336C43.2832 38.5306 42.8802 38.9346 42.3832 38.9346C41.8872 38.9346 41.4832 38.5306 41.4832 38.0336C41.4832 37.5376 41.8872 37.1336 42.3832 37.1336ZM40.2652 38.0336C40.2652 39.2016 41.2152 40.1526 42.3832 40.1526C43.5512 40.1526 44.5022 39.2016 44.5022 38.0336C44.5022 36.8656 43.5512 35.9156 42.3832 35.9156C41.2152 35.9156 40.2652 36.8656 40.2652 38.0336Z"/>
  <path d="M6.5634 37.388C7.0604 37.388 7.4634 37.791 7.4634 38.288C7.4634 38.784 7.0604 39.188 6.5634 39.188C6.0674 39.188 5.6634 38.784 5.6634 38.288C5.6634 37.791 6.0674 37.388 6.5634 37.388ZM4.4444 38.288C4.4444 39.456 5.3954 40.407 6.5634 40.407C7.7314 40.407 8.6824 39.456 8.6824 38.288C8.6824 37.12 7.7314 36.169 6.5634 36.169C5.3954 36.169 4.4444 37.12 4.4444 38.288Z"/>
  <path d="M12.0216 40.3719C11.5716 40.1099 10.9936 40.2639 10.7316 40.7149C10.4696 41.1649 10.6236 41.7429 11.0746 42.0049C11.5256 42.2669 12.1026 42.1129 12.3646 41.6619C12.6256 41.2109 12.4726 40.6339 12.0216 40.3719Z"/>
  <path d="M15.3551 44.4891C15.8061 44.7501 16.3841 44.5971 16.6451 44.1461C16.9071 43.6951 16.7531 43.1171 16.3031 42.8561C15.8521 42.5941 15.2741 42.7481 15.0121 43.1981C14.7511 43.6501 14.9041 44.2271 15.3551 44.4891Z"/>
  <path d="M20.5834 45.3402C20.1324 45.0782 19.5544 45.2322 19.2934 45.6832C19.0314 46.1332 19.1854 46.7112 19.6354 46.9732C20.0864 47.2352 20.6644 47.0812 20.9264 46.6302C21.1874 46.1792 21.0344 45.6022 20.5834 45.3402Z"/>
  <path d="M36.4159 41.662C36.6779 42.113 37.2559 42.266 37.7069 42.005C38.1569 41.743 38.3109 41.165 38.0489 40.715C37.7869 40.264 37.2099 40.11 36.7589 40.372C36.3079 40.634 36.1549 41.211 36.4159 41.662Z"/>
  <path d="M33.4254 44.4891C33.8764 44.2271 34.0294 43.6501 33.7684 43.1981C33.5064 42.7481 32.9294 42.5941 32.4774 42.8561C32.0274 43.1171 31.8734 43.6951 32.1354 44.1461C32.3974 44.5971 32.9744 44.7501 33.4254 44.4891Z"/>
  <path d="M29.1449 46.973C29.5959 46.711 29.7489 46.134 29.4869 45.683C29.2259 45.232 28.6479 45.078 28.1969 45.34C27.7469 45.602 27.5929 46.18 27.8549 46.63C28.1159 47.081 28.6939 47.235 29.1449 46.973Z"/>
  <path d="M36.7587 15.598C37.2097 15.86 37.7877 15.706 38.0497 15.255C38.3107 14.805 38.1567 14.227 37.7067 13.965C37.2557 13.703 36.6777 13.857 36.4157 14.307C36.1547 14.759 36.3077 15.336 36.7587 15.598Z"/>
  <path d="M33.4254 11.4808C32.9744 11.2188 32.3974 11.3728 32.1354 11.8238C31.8734 12.2748 32.0274 12.8528 32.4774 13.1138C32.9294 13.3758 33.5064 13.2218 33.7684 12.7718C34.0294 12.3198 33.8764 11.7428 33.4254 11.4808Z"/>
  <path d="M28.1972 10.6297C28.6482 10.8917 29.2262 10.7377 29.4872 10.2867C29.7492 9.83671 29.5952 9.25871 29.1452 8.99671C28.6942 8.73471 28.1162 8.88871 27.8542 9.33971C27.5932 9.79071 27.7462 10.3677 28.1972 10.6297Z"/>
  <path d="M12.3644 14.3075C12.1034 13.8565 11.5254 13.7035 11.0744 13.9655C10.6234 14.2265 10.4704 14.8045 10.7314 15.2555C10.9934 15.7055 11.5714 15.8595 12.0214 15.5985C12.4724 15.3365 12.6264 14.7585 12.3644 14.3075Z"/>
  <path d="M15.3551 11.4808C14.9041 11.7428 14.7511 12.3198 15.0121 12.7718C15.2741 13.2218 15.8521 13.3758 16.3031 13.1138C16.7531 12.8528 16.9071 12.2748 16.6451 11.8238C16.3841 11.3728 15.8061 11.2188 15.3551 11.4808Z"/>
  <path d="M20.5834 10.6297C21.0344 10.3677 21.1874 9.79071 20.9264 9.33971C20.6644 8.88871 20.0864 8.73471 19.6354 8.99671C19.1854 9.25871 19.0314 9.83671 19.2934 10.2867C19.5544 10.7377 20.1324 10.8917 20.5834 10.6297Z"/>
  <path d="M6.56338 33.451C7.08438 33.451 7.50738 33.029 7.50738 32.507C7.50738 31.986 7.08438 31.563 6.56338 31.563C6.04238 31.563 5.61938 31.986 5.61938 32.507C5.61938 33.029 6.04238 33.451 6.56338 33.451Z"/>
  <path d="M6.56338 28.5018C7.08438 28.5018 7.50738 28.0798 7.50738 27.5578C7.50738 27.0368 7.08438 26.6138 6.56338 26.6138C6.04238 26.6138 5.61938 27.0368 5.61938 27.5578C5.61938 28.0798 6.04238 28.5018 6.56338 28.5018Z"/>
  <path d="M6.56338 23.5526C7.08438 23.5526 7.50738 23.1296 7.50738 22.6086C7.50738 22.0876 7.08438 21.6646 6.56338 21.6646C6.04238 21.6646 5.61938 22.0876 5.61938 22.6086C5.61938 23.1296 6.04238 23.5526 6.56338 23.5526Z"/>
  <path d="M42.3837 33.451C42.9047 33.451 43.3277 33.029 43.3277 32.507C43.3277 31.986 42.9047 31.563 42.3837 31.563C41.8627 31.563 41.4397 31.986 41.4397 32.507C41.4397 33.029 41.8627 33.451 42.3837 33.451Z"/>
  <path d="M42.3837 28.5018C42.9047 28.5018 43.3277 28.0798 43.3277 27.5578C43.3277 27.0368 42.9047 26.6138 42.3837 26.6138C41.8627 26.6138 41.4397 27.0368 41.4397 27.5578C41.4397 28.0798 41.8627 28.5018 42.3837 28.5018Z"/>
  <path d="M42.3837 23.5526C42.9047 23.5526 43.3277 23.1296 43.3277 22.6086C43.3277 22.0876 42.9047 21.6646 42.3837 21.6646C41.8627 21.6646 41.4397 22.0876 41.4397 22.6086C41.4397 23.1296 41.8627 23.5526 42.3837 23.5526Z"/>
  <path d="M49.6034 28.0394H47.2494C46.6774 28.0394 46.2144 28.5024 46.2144 29.0744C46.2144 29.6454 46.6774 30.1094 47.2494 30.1094H49.6034C50.1754 30.1094 50.6384 29.6454 50.6384 29.0744C50.6384 28.5024 50.1754 28.0394 49.6034 28.0394Z"/>
  <path d="M67.4389 29.6497C67.4499 29.6337 67.4569 29.6147 67.4679 29.5977C67.4909 29.5567 67.5159 29.5167 67.5339 29.4727C67.5439 29.4497 67.5479 29.4247 67.5559 29.4007C67.5699 29.3607 67.5849 29.3207 67.5939 29.2787C67.6069 29.2117 67.6139 29.1437 67.6139 29.0737C67.6139 29.0047 67.6069 28.9367 67.5939 28.8697C67.5849 28.8267 67.5699 28.7857 67.5559 28.7457C67.5479 28.7227 67.5439 28.6977 67.5339 28.6757C67.5159 28.6317 67.4909 28.5907 67.4669 28.5497C67.4569 28.5327 67.4499 28.5147 67.4389 28.4987C67.4009 28.4417 67.3579 28.3897 67.3099 28.3417L62.5229 23.5547C62.1189 23.1497 61.4629 23.1507 61.0589 23.5547C60.6549 23.9587 60.6549 24.6137 61.0589 25.0177L64.0799 28.0397H53.8059C53.2349 28.0397 52.7709 28.5027 52.7709 29.0737C52.7709 29.6457 53.2349 30.1087 53.8059 30.1087H64.0799L61.0589 33.1297C60.6549 33.5337 60.6549 34.1897 61.0589 34.5937C61.2619 34.7957 61.5259 34.8967 61.7909 34.8967C62.0559 34.8967 62.3209 34.7957 62.5229 34.5937L67.3099 29.8067C67.3579 29.7587 67.4009 29.7067 67.4389 29.6497Z"/>
</svg>
