<svg xmlns="http://www.w3.org/2000/svg" viewBox="0 0 68 57">
  <g style="fill: #28646e">
    <path d="M21.84,26.12,18,26.68a.92.92,0,0,0-.51,1.57L20.26,31l-.66,3.84a.92.92,0,0,0,1.33,1L24.39,34l3.45,1.81a.92.92,0,0,0,1.33-1L28.51,31l2.79-2.72a.92.92,0,0,0-.51-1.57l-3.85-.56-1.73-3.5a.92.92,0,0,0-1.65,0Z" style="fill: #36de00;fill-rule: evenodd"/>
    <path d="M47.74,35.16a1,1,0,0,0-1,1v5.19L25.42,53.67v-9a1,1,0,1,0-2.07,0v9L2.07,41.38V16.81L9.84,21.3a1.1,1.1,0,0,0,.52.14,1.05,1.05,0,0,0,.9-.52,1,1,0,0,0-.38-1.41L3.11,15,24.39,2.73,45.67,15l-7.78,4.49a1,1,0,0,0,.52,1.93,1.07,1.07,0,0,0,.52-.14l7.77-4.49v5.71a1,1,0,1,0,2.07,0V15a1.25,1.25,0,0,0,0-.19s0,0,0-.06a1.08,1.08,0,0,0-.24-.42l-.05-.05-.15-.11,0,0L24.9.64a1,1,0,0,0-1,0L.52,14.12l0,0a.91.91,0,0,0-.16.11l0,.05a.7.7,0,0,0-.15.19,1.6,1.6,0,0,0-.1.23.13.13,0,0,1,0,.06L0,15V42a1,1,0,0,0,.52.9L23.87,56.36l0,0,.17.07.06,0a1,1,0,0,0,.25,0,1,1,0,0,0,.24,0l.06,0,.18-.07,0,0L48.25,42.88a1,1,0,0,0,.52-.9V36.19A1,1,0,0,0,47.74,35.16Z" />
    <path d="M24.39,8.76a.9.9,0,1,1,0-1.8.9.9,0,1,1,0,1.8Zm0-3A2.12,2.12,0,1,0,26.5,7.86,2.12,2.12,0,0,0,24.39,5.74Z" />
    <path d="M42.38,37.64a.9.9,0,0,1,0,1.8.9.9,0,1,1,0-1.8Zm-2.11.9a2.12,2.12,0,1,0,2.11-2.12A2.12,2.12,0,0,0,40.27,38.54Z" />
    <path d="M6.56,37.89a.9.9,0,1,1-.9.9A.9.9,0,0,1,6.56,37.89Zm-2.12.9a2.12,2.12,0,1,0,2.12-2.12A2.13,2.13,0,0,0,4.44,38.79Z" />
    <path d="M12,40.87a.95.95,0,1,0,.34,1.29A.94.94,0,0,0,12,40.87Z" />
    <path d="M15.36,45A.94.94,0,1,0,15,43.7.95.95,0,0,0,15.36,45Z" />
    <path d="M20.58,45.84a.94.94,0,1,0,.35,1.29A.94.94,0,0,0,20.58,45.84Z" />
    <path d="M36.42,42.16a.94.94,0,1,0,.34-1.29A.94.94,0,0,0,36.42,42.16Z" />
    <path d="M33.43,45a.94.94,0,1,0-1.29-.34A.94.94,0,0,0,33.43,45Z" />
    <path d="M29.14,47.47a.94.94,0,1,0-.94-1.63,1,1,0,0,0-.35,1.29A.94.94,0,0,0,29.14,47.47Z" />
    <path d="M36.76,16.1a.94.94,0,1,0-.34-1.29A.94.94,0,0,0,36.76,16.1Z" />
    <path d="M33.43,12a.95.95,0,0,0-1,1.64.95.95,0,0,0,1-1.64Z" />
    <path d="M28.2,11.13a.94.94,0,1,0,.95-1.63.94.94,0,1,0-.95,1.63Z" />
    <path d="M12.36,14.81A.94.94,0,1,0,12,16.1.94.94,0,0,0,12.36,14.81Z" />
    <path d="M15.36,12a.95.95,0,1,0,.94,1.64A.95.95,0,1,0,15.36,12Z" />
    <path d="M20.58,11.13a.94.94,0,1,0-1.29-.34A.95.95,0,0,0,20.58,11.13Z" />
    <path d="M6.56,34A.95.95,0,1,0,5.62,33,.95.95,0,0,0,6.56,34Z" />
    <path d="M6.56,29a.94.94,0,1,0-.94-.94A.95.95,0,0,0,6.56,29Z" />
    <path d="M6.56,24.05a.94.94,0,1,0-.94-.94A.95.95,0,0,0,6.56,24.05Z" />
    <path d="M42.38,34a.95.95,0,1,0-.94-.94A.95.95,0,0,0,42.38,34Z" />
    <path d="M42.38,29a.94.94,0,1,0-.94-.94A.95.95,0,0,0,42.38,29Z" />
    <path d="M42.38,24.05a.94.94,0,1,0-.94-.94A.95.95,0,0,0,42.38,24.05Z" />
    <path d="M49.6,28.54H47.25a1,1,0,1,0,0,2.07H49.6a1,1,0,1,0,0-2.07Z" />
  </g>
  <path d="M67.44,30.15l0,0a.52.52,0,0,0,.06-.13l0-.07,0-.12a.68.68,0,0,0,0-.2.75.75,0,0,0,0-.21l0-.12,0-.07a.52.52,0,0,0-.06-.13l0-.05a1,1,0,0,0-.13-.16l-4.79-4.78a1,1,0,0,0-1.46,1.46l3,3H53.81a1,1,0,1,0,0,2.07H64.08l-3,3a1,1,0,0,0,.73,1.77,1,1,0,0,0,.73-.3l4.79-4.79A1,1,0,0,0,67.44,30.15Z" />
</svg>
