<svg xmlns="http://www.w3.org/2000/svg" viewBox="0 0 68 56">
  <circle cx="25.3" cy="48.6" r="0.9"/>
  <circle cx="25.3" cy="7.9" r="0.9"/>
  <circle cx="30.5" cy="47.91" r="0.9"/>
  <circle cx="20" cy="8.6" r="0.9"/>
  <circle cx="35.5" cy="45.9" r="0.9"/>
  <circle cx="15.1" cy="10.7" r="0.9"/>
  <circle cx="39.65" cy="42.65" r="0.9"/>
  <circle cx="10.95" cy="13.85" r="0.9"/>
  <circle cx="42.9" cy="38.5" r="0.9"/>
  <circle cx="7.7" cy="18.1" r="0.9"/>
  <circle cx="45" cy="33.6" r="0.9"/>
  <circle cx="5.6" cy="23.08" r="0.9"/>
  <circle cx="4.9" cy="28.3" r="0.9"/>
  <circle cx="44.91" cy="23.1" r="0.9"/>
  <circle cx="5.6" cy="33.6" r="0.9"/>
  <circle cx="42.9" cy="18.1" r="0.9"/>
  <circle cx="7.7" cy="38.5" r="0.9"/>
  <circle cx="39.65" cy="13.85" r="0.9"/>
  <circle cx="10.85" cy="42.65" r="0.9"/>
  <circle cx="35.5" cy="10.7" r="0.9"/>
  <circle cx="15.1" cy="45.9" r="0.9"/>
  <circle cx="30.6" cy="8.6" r="0.9"/>
  <circle cx="20.08" cy="47.9" r="0.9"/>
  <path d="M25.3,53.6A25.3,25.3,0,1,1,49.6,21.2a1,1,0,0,1-2,.6A23.46,23.46,0,0,0,25.3,5.1a23.2,23.2,0,0,0,0,46.4A23.46,23.46,0,0,0,47.6,34.8a1,1,0,0,1,2,.6A25.5,25.5,0,0,1,25.3,53.6Z"/>
  <path d="M23.8,24.6a.52.52,0,0,1-.4-.2.53.53,0,0,1,.1-.8A11.43,11.43,0,0,0,26,20.7a2.1,2.1,0,0,1,2.1-1.2c.3,0,.5.3.5.7s-.3.5-.7.5-.8.4-.9.6a12.39,12.39,0,0,1-2.8,3.2A.76.76,0,0,1,23.8,24.6Z"/>
  <path d="M13.9,34.6c-.2,0-.3-.1-.5-.2a.53.53,0,0,1,.1-.8,15.44,15.44,0,0,1,2.2-1.4.67.67,0,0,1,.8.3c.2.3,0,.6-.3.8s-1.4.9-1.9,1.3C14.1,34.5,14,34.6,13.9,34.6Z"/>
  <path d="M28.6,29c.2.2.5.1.8-.1a22.25,22.25,0,0,0,4.1-5.5.52.52,0,0,1,.7-.3c.3.1.3.7,0,1.3a22,22,0,0,1-4,5.6.48.48,0,0,0,0,.7c.2.2.5.2.8-.1a19.57,19.57,0,0,0,2.5-2.9.86.86,0,0,1,.6-.3c.3.1.3.3.2.7a13.76,13.76,0,0,1-2.2,3.1c-1.6,1.8-3.2,2.8-6.3,4.4a6,6,0,0,0-2.4,1.9,6.7,6.7,0,0,0-.6,1.1.78.78,0,0,0,.3,1c.1,0,.2.1.3.1a.84.84,0,0,0,.7-.4l.6-1a4.12,4.12,0,0,1,1.8-1.6,17.34,17.34,0,0,0,6.1-4.3,20.39,20.39,0,0,0,2.2-3.1c.9-1.4.4-2.7-.4-2.9a.1.1,0,0,1-.1-.1,6.87,6.87,0,0,0,1-2.3,1.49,1.49,0,0,0-1.1-1.9.1.1,0,0,1-.1-.1c.1-.2.1-.5.2-.7a1.64,1.64,0,0,0-1.1-2,1.74,1.74,0,0,0-1.4.3h-.2A.53.53,0,0,0,31,19a1.7,1.7,0,0,0-1.7,1.2A10.77,10.77,0,0,1,27,23.5a23.35,23.35,0,0,1-4.4,3.7c-.2.1-.5.1-.5-.2s.5-3.3.6-4.2c.1-1.4-.6-2-1.5-2.1-.7-.1-1.7.1-2.3,1.7a39.62,39.62,0,0,0-1.6,4.9,14.89,14.89,0,0,0-.1,6,.6.6,0,0,1-.1.4,22,22,0,0,0-1.5,2.6.66.66,0,0,0,.3.9.37.37,0,0,0,.3.1,1,1,0,0,0,.7-.4c.2-.5.7-1.3.9-1.7.3-.6.5-1.1.6-1.3a2.21,2.21,0,0,0,0-1.2,13.07,13.07,0,0,1,.1-4.8c.6-2.3,1.6-5,1.7-5.4s.4-.6.7-.5.7.1.6,1c-.2,1.6-.6,3.6-.7,4.3a1.41,1.41,0,0,0,.5,1.5c.5.3,1,.1,1.6-.3a36,36,0,0,0,5-4.2,10,10,0,0,0,2.3-3.6.8.8,0,0,1,.8-.4c.2,0,.4.3.2.7a15.6,15.6,0,0,1-4.3,6c-.3.3-.3.6-.1.7s.4.3.7,0A16.44,16.44,0,0,0,31.8,22a7.91,7.91,0,0,0,.5-1.3.6.6,0,0,1,.6-.5.63.63,0,0,1,.4.8,12.43,12.43,0,0,1-.6,1.8,25.41,25.41,0,0,1-4.1,5.6A.45.45,0,0,0,28.6,29Z"/>
  <path d="M18,21a.19.19,0,0,0,0-.3,17.25,17.25,0,0,0-1-2.4c-.1-.2-.2-.2-.3-.1a2.31,2.31,0,0,0-.7.5l-.6.6c-.1.1-.1.2.1.4A17.1,17.1,0,0,0,17.8,21c0,.1.1.1.2,0Z"/>
  <path d="M17.4,22.1c0-.1-.1-.1-.2-.2a23.36,23.36,0,0,0-2.6-.4c-.2,0-.3.1-.3.2a3.87,3.87,0,0,0,.1.9c.1.4.1.7.2.8s.2.2.4.1a16.65,16.65,0,0,0,2.3-1.2s.1,0,.1-.2Z"/>
  <path d="M31.1,36a.22.22,0,0,0-.2.2c-.1.4-.6,2.2-.7,2.6,0,.2.1.3.2.3s.4.1.9,0,.7-.1.9-.1.2-.2.1-.3a26,26,0,0,0-1-2.5c-.1-.1-.1-.2-.2-.2Z"/>
  <path d="M32.1,35.2c-.1.1,0,.2.1.3l1.9,1.9a.3.3,0,0,0,.4,0,2.49,2.49,0,0,0,.5-.7,2,2,0,0,0,.3-.8c0-.1,0-.2-.2-.3a23.36,23.36,0,0,0-2.6-.4c-.3-.1-.4-.1-.4,0Z"/>
  <path d="M49.6,27.3H47.2a1,1,0,0,0,0,2h2.4a1,1,0,0,0,1-1A.94.94,0,0,0,49.6,27.3Z"/>
  <path d="M67.4,28.9h0c.1-.1.1-.1.1-.2v-.8a.1.1,0,0,0-.1-.1v-.1c0-.1-.1-.1-.1-.2l-4.8-4.8A1.06,1.06,0,0,0,61,24.2l3,3H53.8a1,1,0,0,0,0,2H64.1l-3,3a1.05,1.05,0,0,0,.7,1.8.91.91,0,0,0,.7-.3l4.8-4.8C67.4,29,67.4,28.9,67.4,28.9Z"/>
</svg>
