<svg viewBox="0 0 68 50"><circle cx="25" cy="45.12" r=".75"/><circle cx="25" cy="4.88" r=".75"/><circle cx="30.21" cy="44.43" r=".75"/><circle cx="19.79" cy="5.57" r=".75"/><circle cx="35.06" cy="42.42" r=".75"/><circle cx="14.94" cy="7.58" r=".75"/><circle cx="39.22" cy="39.22" r=".75"/><circle cx="10.78" cy="10.78" r=".75"/><circle cx="42.42" cy="35.06" r=".75"/><circle cx="7.58" cy="14.94" r=".75"/><circle cx="44.43" cy="30.21" r=".75"/><circle cx="5.57" cy="19.79" r=".75"/><circle cx="4.88" cy="25" r=".75"/><circle cx="44.43" cy="19.79" r=".75"/><circle cx="5.57" cy="30.21" r=".75"/><circle cx="42.42" cy="14.94" r=".75"/><circle cx="7.58" cy="35.06" r=".75"/><circle cx="39.22" cy="10.78" r=".75"/><circle cx="10.78" cy="39.22" r=".75"/><circle cx="35.06" cy="7.58" r=".75"/><circle cx="14.94" cy="42.42" r=".75"/><circle cx="30.21" cy="5.57" r=".75"/><circle cx="19.79" cy="44.43" r=".75"/><path class="prefix__a" d="M25 50a25 25 0 1124-32 1 1 0 11-2 .59 22.92 22.92 0 10-22 29.33 23 23 0 0022-16.5 1 1 0 112 .58 25.15 25.15 0 01-24 18z"/><path class="prefix__a" d="M23.48 21.36a.56.56 0 01-.43-.19.57.57 0 01.05-.82 11.91 11.91 0 002.49-2.87 2.07 2.07 0 012.08-1.16.58.58 0 01.5.65.59.59 0 01-.66.5c-.47-.07-.79.39-.91.59a13.62 13.62 0 01-2.73 3.16.57.57 0 01-.39.14zM13.69 31.22a.56.56 0 01-.44-.21.58.58 0 01.07-.82 16.52 16.52 0 012.14-1.43.58.58 0 11.52 1 15.31 15.31 0 00-1.91 1.29.58.58 0 01-.38.17z"/><path class="prefix__a" d="M28.31 25.7c.23.22.5.13.75-.11a22 22 0 004.06-5.43.51.51 0 01.66-.33c.32.13.32.69 0 1.3a20.81 20.81 0 01-4 5.57.44.44 0 000 .66c.18.17.49.16.77-.13a23.57 23.57 0 002.5-2.91.54.54 0 01.56-.29c.28 0 .32.32.24.64a16.2 16.2 0 01-2.2 3.11c-1.58 1.76-3.16 2.72-6.2 4.3A5.46 5.46 0 0023.17 34c-.44.74-.57 1-.62 1.07a.74.74 0 00.33 1 .67.67 0 00.31.07.71.71 0 00.66-.44 6.55 6.55 0 01.55-.95 4.07 4.07 0 011.79-1.58 17.62 17.62 0 006.05-4.25 19.91 19.91 0 002.22-3c.85-1.43.41-2.66-.36-2.87a.1.1 0 01-.06-.14 7.68 7.68 0 001-2.27 1.44 1.44 0 00-1.07-1.86.09.09 0 01-.07-.12c.06-.24.12-.53.17-.73a1.66 1.66 0 00-1.13-2 1.69 1.69 0 00-1.37.29.14.14 0 01-.18 0 1.06 1.06 0 00-.76-.36 1.72 1.72 0 00-1.72 1.17 12 12 0 01-2.24 3.22 24.53 24.53 0 01-4.32 3.66c-.2.13-.48.1-.45-.17s.51-3.29.59-4.13a1.7 1.7 0 00-1.49-2.2c-.68-.1-1.71.1-2.28 1.65a35.56 35.56 0 00-1.61 4.81A14.74 14.74 0 0017 29.8a.56.56 0 01-.08.4 23.62 23.62 0 00-1.48 2.57.72.72 0 00.65 1 .72.72 0 00.65-.41c.21-.46.67-1.33.84-1.69a13.16 13.16 0 00.6-1.31 2 2 0 000-1.14 11.89 11.89 0 01.12-4.79 50.12 50.12 0 011.7-5.32c.17-.43.42-.56.67-.54s.71.14.58 1c-.24 1.57-.58 3.56-.7 4.23a1.38 1.38 0 00.49 1.45 1.46 1.46 0 001.59-.25 29.85 29.85 0 004.93-4.2 11.58 11.58 0 002.32-3.53.67.67 0 01.77-.36c.16.05.35.26.21.71a15.36 15.36 0 01-4.25 5.91.51.51 0 00-.11.74.49.49 0 00.72 0 17.21 17.21 0 004.25-5.62 11.81 11.81 0 00.51-1.3.57.57 0 01.6-.46c.29.06.47.35.38.83a8 8 0 01-.63 1.77 24.19 24.19 0 01-4 5.51.48.48 0 00-.02.7zM17.8 17.82c.09-.08.05-.18 0-.26-.13-.4-.84-2.07-1-2.4a.25.25 0 00-.34-.15 2.83 2.83 0 00-.69.5 3 3 0 00-.59.62.26.26 0 00.1.36c.31.23 1.87 1.15 2.25 1.33a.24.24 0 00.27 0zM17.19 18.92c0-.12-.13-.14-.21-.16-.41-.1-2.2-.36-2.59-.38-.19 0-.27.08-.3.22a2.59 2.59 0 00.07.85 2.68 2.68 0 00.23.83.25.25 0 00.35.1c.36-.15 2-1 2.31-1.24.07 0 .16-.1.14-.22zM30.69 32.62c-.12 0-.15.11-.18.19-.14.39-.59 2.15-.64 2.53a.25.25 0 00.18.32 2.61 2.61 0 00.85 0 2.9 2.9 0 00.85-.14.25.25 0 00.13-.34 24.69 24.69 0 00-1-2.43c0-.07-.08-.17-.2-.16zM31.71 31.8c-.05.11 0 .19.07.26.26.32 1.53 1.62 1.83 1.87a.26.26 0 00.37 0 2.78 2.78 0 00.46-.72 2.62 2.62 0 00.32-.79c0-.14 0-.25-.22-.3-.37-.1-2.16-.4-2.58-.42-.09 0-.19 0-.25.09zM50 24h-2.29a1 1 0 100 2H50a1 1 0 100-2zM67.83 25.57v-.05l.06-.13a.14.14 0 000-.07.56.56 0 000-.12 1 1 0 000-.4.56.56 0 000-.12.64.64 0 000-.07.54.54 0 00-.07-.13v-.05a.64.64 0 00-.13-.15L63 19.54A1 1 0 0061.52 21l3 3H54.35a1 1 0 000 2h10.16l-3 3a1 1 0 000 1.45 1 1 0 001.45 0l4.73-4.74a.64.64 0 00.14-.14z"/></svg>