<svg viewBox="0 0 16 16" fill="none" xmlns="http://www.w3.org/2000/svg">
<path fill-rule="evenodd" clip-rule="evenodd" d="M10.3384 13.1903C10.8557 12.1015 11.2176 10.5457 11.2885 8.4284H13.7563C13.4957 10.532 12.1723 12.3012 10.3384 13.1903ZM1.57574 8.4284H4.04355C4.11441 10.5457 4.47631 12.1015 4.99365 13.1903C3.1605 12.3012 1.83707 10.532 1.57574 8.4284ZM4.99365 2.14193C4.47631 3.23069 4.11441 4.7865 4.04355 6.90459H1.57574C1.83707 4.80021 3.1605 3.03107 4.99365 2.14193ZM5.56888 6.90459C5.69841 3.87221 6.58679 1.52402 7.66641 1.52402C8.74527 1.52402 9.63441 3.87221 9.76393 6.90459H5.56888ZM7.66641 13.809C6.58679 13.809 5.69841 11.46 5.56888 8.4284H9.76393C9.63441 11.46 8.74527 13.809 7.66641 13.809ZM13.7563 6.90459H11.2885C11.2176 4.7865 10.8557 3.23069 10.3384 2.14193C12.1716 3.03107 13.4957 4.80021 13.7563 6.90459ZM7.66641 0.000213623C3.4386 0.000213623 0.00012207 3.43945 0.00012207 7.6665C0.00012207 11.8935 3.4386 15.3328 7.66641 15.3328C11.8935 15.3328 15.3319 11.8935 15.3319 7.6665C15.3319 3.43945 11.8935 0.000213623 7.66641 0.000213623Z" />
</svg>
