<svg xmlns="http://www.w3.org/2000/svg" viewBox="0 0 16 16"><title>qrcode-scan</title><path d="M7.47,10.66H8.53V9.6H7.47Z" style="fill-rule:evenodd"/><path d="M10.67,4.27H12.8V3.21H9.6V5.34h1.07Z" style="fill-rule:evenodd"/><path d="M11.73,7.47H12.8V5.34H11.73Z" style="fill-rule:evenodd"/><path d="M11.73,12.79H12.8V11.73H11.73Z" style="fill-rule:evenodd"/><path d="M3.2,9.6v3.19H6.4V11.73H4.27V10.66H6.4V9.6H3.2Z" style="fill-rule:evenodd"/><path d="M10.67,11.73V10.66H9.6v1.07H7.47v1.06h3.2Z" style="fill-rule:evenodd"/><path d="M11.73,9.6v1.06H12.8V8.53H10.67V7.47H9.6V9.6h2.13Z" style="fill-rule:evenodd"/><path d="M4.27,7.47h3.2V4.27H4.27ZM3.2,8.53H8.53V3.21H3.2Z" style="fill-rule:evenodd"/><path d="M5.33,6.4H6.4V5.34H5.33Z" style="fill-rule:evenodd"/><path d="M.8,5.33a.8.8,0,0,0,.8-.8V2A.43.43,0,0,1,2,1.6h2.5a.8.8,0,0,0,0-1.6H1.6A1.6,1.6,0,0,0,0,1.6V4.53A.8.8,0,0,0,.8,5.33Z" style="fill-rule:evenodd"/><path d="M14.4,0H11.47a.8.8,0,0,0-.8.8.8.8,0,0,0,.8.8H14A.43.43,0,0,1,14.4,2v2.5a.8.8,0,0,0,1.6,0V1.6A1.6,1.6,0,0,0,14.4,0Z" style="fill-rule:evenodd"/><path d="M15.2,10.67a.8.8,0,0,0-.8.8V14a.43.43,0,0,1-.43.43h-2.5a.8.8,0,0,0,0,1.6H14.4A1.6,1.6,0,0,0,16,14.4V11.47A.8.8,0,0,0,15.2,10.67Z" style="fill-rule:evenodd"/><path d="M4.53,14.4H2A.43.43,0,0,1,1.6,14v-2.5a.8.8,0,1,0-1.6,0V14.4A1.6,1.6,0,0,0,1.6,16H4.53a.8.8,0,1,0,0-1.6Z" style="fill-rule:evenodd"/></svg>