<svg xmlns="http://www.w3.org/2000/svg" viewBox="0 0 24 24">
  <path d="M18.5,11.5H16A.75.75,0,0,0,16,13h1.75v6.5H6.25V13H8a.75.75,0,0,0,0-1.5H5.5a.76.76,0,0,0-.75.75v8A.76.76,0,0,0,5.5,21h13a.76.76,0,0,0,.75-.75v-8A.76.76,0,0,0,18.5,11.5Z" />
  <path d="M8,9a.77.77,0,0,0,.56-.25l2.69-3v10a.75.75,0,0,0,1.5,0v-10l2.69,3A.77.77,0,0,0,16,9a.73.73,0,0,0,.5-.19.75.75,0,0,0,.06-1.06l-4-4.5h0l0,0v0s-.06,0-.09,0l-.1-.07,0,0-.13,0L12,3h0l-.12,0-.12,0-.05,0-.1.07a.2.2,0,0,0-.09,0v0l0,0h0l-4,4.5A.75.75,0,0,0,7.5,8.81.73.73,0,0,0,8,9Z" />
</svg>
