<svg xmlns="http://www.w3.org/2000/svg" xmlns:xlink="http://www.w3.org/1999/xlink" viewBox="0 0 540 400">
    <defs>
        <linearGradient id="a" x1="218.8" y1="237.86" x2="378.88" y2="237.86" gradientUnits="userSpaceOnUse">
            <stop offset="0" stop-color="#d4ebed"/>
            <stop offset="1" stop-color="#f0e6b4"/>
        </linearGradient>
        <linearGradient id="b" x1="163.15" y1="36.67" x2="116.68" y2="139.32" gradientUnits="userSpaceOnUse">
            <stop offset="0" stop-color="#d4ebed"/>
            <stop offset="1" stop-color="#f0e6b4"/>
        </linearGradient>
        <linearGradient id="d" x1="103.36" y1="271.79" x2="58.47" y2="370.93" gradientUnits="userSpaceOnUse">
            <stop offset="0" stop-color="#d4ebed"/>
            <stop offset="1" stop-color="#f0e6b4"/>
        </linearGradient>
        <linearGradient id="f" x1="483.2" y1="41.95" x2="450.72" y2="113.68" gradientUnits="userSpaceOnUse">
            <stop offset="0" stop-color="#d4ebed"/>
            <stop offset="1" stop-color="#f0e6b4"/>
        </linearGradient>
        <linearGradient id="h" x1="474.78" y1="322.57" x2="432.98" y2="414.9" gradientUnits="userSpaceOnUse">
            <stop offset="0" stop-color="#d4ebed"/>
            <stop offset="1" stop-color="#f0e6b4"/>
        </linearGradient>
        <clipPath id="c">
            <circle cx="138.7" cy="90.68" r="57.77" />
        </clipPath>
        <clipPath id="e">
            <circle cx="79.74" cy="323.95" r="55.8" />
        </clipPath>
        <clipPath id="g">
            <circle cx="466.11" cy="79.69" r="40.37" />
        </clipPath>
        <clipPath id="i">
            <circle cx="452.78" cy="371.16" r="51.96" />
        </clipPath>
    </defs>
    <circle cx="298.84" cy="237.86" r="80.04" style="fill:url(#a)"/>
    <circle cx="138.7" cy="90.68" r="62.77" style="fill:url(#b)"/>
    <circle cx="79.74" cy="323.95" r="60.63" style="fill:url(#d)"/>
    <circle cx="466.11" cy="79.69" r="43.87" style="fill:url(#f)"/>
    <circle cx="452.78" cy="371.16" r="56.46" style="fill:url(#h)"/>
    <g style="fill:#fff">
        <circle cx="138.7" cy="90.68" r="57.77" />
        <circle cx="79.74" cy="323.95" r="55.8" />
        <circle cx="466.11" cy="79.69" r="40.37" />
        <circle cx="452.78" cy="371.16" r="51.96" />
    </g>
    <g style="fill:#30656b">
        <circle cx="389.37" cy="73.08" r="4.29" />
        <circle cx="49.77" cy="146.05" r="4.29" />
        <circle cx="310.37" cy="392.27" r="2.14" />
        <circle cx="527.54" cy="191.71" r="2.14" />
        <circle cx="253.43" cy="40.86" r="2.14" />
        <circle cx="171.02" cy="249.23" r="2.14" />
        <circle cx="408.49" cy="242.77" r="4.29" />
    </g>
    <g style="fill:#46b6a0">
        <path d="M222.68,190.23a1.89,1.89,0,0,1-1.58-2.92,92.86,92.86,0,0,1,10.16-12.95,1.89,1.89,0,1,1,2.75,2.58,88.81,88.81,0,0,0-9.75,12.43A1.89,1.89,0,0,1,222.68,190.23Z"/>
        <path d="M210.67,217.87a1.75,1.75,0,0,1-.46-.05,1.9,1.9,0,0,1-1.38-2.29,93.71,93.71,0,0,1,6.54-18.06,1.89,1.89,0,0,1,3.39,1.65,89.59,89.59,0,0,0-6.26,17.32A1.9,1.9,0,0,1,210.67,217.87Z"/>
        <path d="M234.34,303.48a1.89,1.89,0,0,1-1.34-.56,92.08,92.08,0,0,1-26.9-65.06,1.89,1.89,0,1,1,3.77,0,88.34,88.34,0,0,0,25.81,62.4,1.89,1.89,0,0,1,0,2.67A1.87,1.87,0,0,1,234.34,303.48Z"/>
        <path d="M298.84,330.6A91.76,91.76,0,0,1,245,313.17a1.89,1.89,0,0,1,2.21-3.07A88.24,88.24,0,0,0,361.28,301a1.89,1.89,0,0,1,2.66,2.68A92.08,92.08,0,0,1,298.84,330.6Z"/>
        <path d="M306,144.88a91.68,91.68,0,0,1,52.29,21.7,1.89,1.89,0,0,1-2.45,2.88,88.26,88.26,0,0,0-114.46-.08A1.88,1.88,0,1,1,239,166.5,92.08,92.08,0,0,1,306,144.88Z"/>
        <path d="M240.86,309.47a1.93,1.93,0,0,1-1.21-.43c-.61-.51-1.21-1-1.81-1.56a1.88,1.88,0,0,1,2.49-2.83c.57.5,1.15,1,1.74,1.49a1.88,1.88,0,0,1-1.21,3.33Z"/>
        <path d="M375,289a1.82,1.82,0,0,1-1-.31,1.89,1.89,0,0,1-.56-2.61A88.4,88.4,0,0,0,380,201.35a1.89,1.89,0,0,1,3.45-1.55,92.19,92.19,0,0,1-6.8,88.34A1.91,1.91,0,0,1,375,289Z"/>
        <path d="M374.24,189.07a1.9,1.9,0,0,1-1.57-.84A89.63,89.63,0,0,0,364.62,178a1.89,1.89,0,0,1,2.79-2.54,93.38,93.38,0,0,1,8.4,10.71,1.9,1.9,0,0,1-1.57,2.94Z"/>
    </g>
    <g style="fill:#2a656e">
        <path d="M298.84,312.9a75,75,0,1,1,75-75A75.13,75.13,0,0,1,298.84,312.9Zm0-143.73a68.69,68.69,0,1,0,68.69,68.69A68.77,68.77,0,0,0,298.84,169.17Z"/>
        <path d="M293.88,224.15a2.13,2.13,0,0,1-1.41-3.73,45.65,45.65,0,0,0,9.17-10.52c1.77-3.09,4.62-4.69,7.61-4.28a2.13,2.13,0,0,1-.58,4.23c-1.74-.23-2.91,1.44-3.33,2.18a50.28,50.28,0,0,1-10,11.59A2.1,2.1,0,0,1,293.88,224.15Zm-34.56,35.68a56.78,56.78,0,0,1,7-4.71,2.13,2.13,0,1,0-1.9-3.82,59.08,59.08,0,0,0-7.86,5.25,2.13,2.13,0,0,0,2.73,3.28Zm52.29-19.75c.85.79,1.83.45,2.74-.42,6.18-5.91,12.73-15.14,14.91-19.94a1.87,1.87,0,0,1,2.42-1.19c1.19.48,1.17,2.52.1,4.75-2.85,5.88-6.82,12.36-14.65,20.45a1.63,1.63,0,0,0,0,2.42c.69.62,1.81.58,2.85-.49A86.49,86.49,0,0,0,329.18,235a2,2,0,0,1,2.05-1.07c1,.2,1.19,1.19.87,2.38-.5,1.92-5.91,9-8,11.38-5.8,6.47-11.6,10-22.76,15.82-3.9,2-6.81,4-8.58,6.94-1.61,2.71-2.08,3.6-2.25,3.94a2.71,2.71,0,0,0,1.19,3.61,2.55,2.55,0,0,0,1.13.26,2.63,2.63,0,0,0,2.43-1.62s-.08,0,2-3.51a15.11,15.11,0,0,1,6.57-5.79c11.17-5.09,15.74-9.12,22.22-15.6,3-2.95,7-9.29,8.15-11.16,3.12-5.26,1.48-9.76-1.33-10.52a.37.37,0,0,1-.23-.53,28.38,28.38,0,0,0,3.59-8.32c.55-2.72-.22-6-3.95-6.83a.34.34,0,0,1-.26-.44c.23-.86.47-2,.62-2.67.79-3.53-1.45-6.73-4.13-7.3a6.25,6.25,0,0,0-5,1,.51.51,0,0,1-.65-.08,3.89,3.89,0,0,0-2.79-1.3c-2.33,0-4.63.68-6.32,4.27-1.2,2.57-3,6-8.24,11.85a90.9,90.9,0,0,1-15.85,13.42c-.73.48-1.76.37-1.64-.62.2-1.57,1.88-12.09,2.16-15.18.47-5-2.24-7.34-5.28-7.75-2.5-.33-6.29.39-8.37,6.08a126.91,126.91,0,0,0-5.91,17.64,54.33,54.33,0,0,0-.38,21.78,2.11,2.11,0,0,1-.27,1.45,84.72,84.72,0,0,0-5.44,9.45,2.69,2.69,0,0,0,1.11,3.42,2.65,2.65,0,0,0,1.26.32,2.62,2.62,0,0,0,2.38-1.5c.8-1.7,2.46-4.89,3.11-6.22a45.92,45.92,0,0,0,2.18-4.79,7.35,7.35,0,0,0-.06-4.19,43.47,43.47,0,0,1,.43-17.58,184.37,184.37,0,0,1,6.29-19.61c.64-1.57,1.54-2.06,2.44-2s2.63.52,2.14,3.72c-.89,5.75-2.14,13-2.55,15.52-.2,1.2-.43,4,1.79,5.31,1.74,1,3.65.44,5.76-1a109.34,109.34,0,0,0,18.09-15.41c5.4-6.06,7.12-9.67,8.51-12.94a2.41,2.41,0,0,1,2.83-1.31c.57.16,1.27.94.78,2.58-1.2,4-6.13,13.12-15.62,21.69a1.86,1.86,0,0,0-.38,2.71,1.77,1.77,0,0,0,2.62,0,62.69,62.69,0,0,0,15.59-20.63,38.61,38.61,0,0,0,1.88-4.77c.46-1.36,1.5-1.84,2.23-1.68,1,.21,1.72,1.28,1.39,3a30.89,30.89,0,0,1-2.32,6.49c-2.74,5.8-8.52,13.58-14.75,20.25A1.76,1.76,0,0,0,311.61,240.08ZM273,211.16c.34-.29.21-.67.11-1-.46-1.47-3.08-7.61-3.76-8.84a.92.92,0,0,0-1.25-.52,9.57,9.57,0,0,0-2.55,1.83,9.92,9.92,0,0,0-2.15,2.28.92.92,0,0,0,.36,1.31c1.13.84,6.88,4.24,8.27,4.89.28.13.64.3,1,0Zm-2.23,4c-.08-.43-.47-.51-.77-.59-1.49-.37-8.09-1.32-9.5-1.37a.92.92,0,0,0-1.1.79,9.8,9.8,0,0,0,.24,3.13,9.41,9.41,0,0,0,.84,3,.91.91,0,0,0,1.3.37c1.31-.52,7.19-3.66,8.47-4.52.26-.17.59-.38.52-.82Zm49.56,50.28c-.44,0-.56.41-.67.7-.52,1.44-2.17,7.91-2.37,9.3a.93.93,0,0,0,.67,1.18,15.83,15.83,0,0,0,6.23-.42.92.92,0,0,0,.51-1.26c-.39-1.35-2.89-7.54-3.6-8.9-.14-.27-.32-.63-.76-.6Zm3.74-3c-.21.39.05.69.24.93,1,1.2,5.63,6,6.72,6.86a.91.91,0,0,0,1.35,0,16.18,16.18,0,0,0,2.88-5.54c.07-.5-.12-.9-.81-1.09-1.36-.37-7.94-1.45-9.47-1.55-.31,0-.71-.05-.91.34Z"/>
        <circle cx="298.84" cy="298.38" r="2.38"/>
        <circle cx="298.84" cy="177.34" r="2.38"/>
        <circle cx="314.51" cy="296.32" r="2.38"/>
        <circle cx="283.18" cy="179.4" r="2.38"/>
        <circle cx="329.1" cy="290.27" r="2.38"/>
        <circle cx="268.58" cy="185.45" r="2.38"/>
        <circle cx="341.64" cy="280.65" r="2.38"/>
        <circle cx="256.05" cy="195.07" r="2.38"/>
        <circle cx="351.25" cy="268.12" r="2.38"/>
        <circle cx="246.43" cy="207.6" r="2.38"/>
        <circle cx="357.3" cy="253.52" r="2.38"/>
        <circle cx="240.39" cy="222.2" r="2.38"/>
        <circle cx="359.36" cy="237.86" r="2.38"/>
        <circle cx="238.33" cy="237.86" r="2.38"/>
        <circle cx="357.3" cy="222.2" r="2.38"/>
        <circle cx="240.39" cy="253.52" r="2.38"/>
        <circle cx="351.25" cy="207.6" r="2.38"/>
        <circle cx="246.43" cy="268.12" r="2.38"/>
        <circle cx="341.64" cy="195.07" r="2.38"/>
        <circle cx="256.05" cy="280.65" r="2.38"/>
        <circle cx="329.1" cy="185.45" r="2.38"/>
        <circle cx="268.58" cy="290.27" r="2.38"/>
        <circle cx="314.51" cy="179.4" r="2.38"/>
        <circle cx="283.18" cy="296.32" r="2.38"/>
    </g>
    <g style="fill:none;stroke-linecap:round;stroke-miterlimit:10;stroke-linejoin:round;">
        <g style="stroke:#2a656e;stroke-width:3.34584295749664px">
            <line x1="129.5" y1="61.59" x2="127.5" y2="56.59" />
            <line x1="139.5" y1="58.59" x2="139.5" y2="54.59" />
            <line x1="148.5" y1="61.59" x2="150.5" y2="57.59" />
            <line x1="116.5" y1="64.59" x2="120.88" y2="66.96" />
        </g>
        <g style="stroke:#30656b;stroke-width:6.65468523498698px">
            <line x1="213.21" y1="303.68" x2="160.98" y2="339.19" />
            <line x1="386.58" y1="296.69" x2="405.35" y2="309.47" />
            <line x1="386.58" y1="170.85" x2="434.69" y2="135.72" />
            <line x1="215.05" y1="170.79" x2="191.98" y2="155.1" />
        </g>
        <g style="stroke:#4ab7a1;stroke-width:4.83977104720953px">
            <line x1="34.52" y1="169.94" x2="121.18" y2="192.39"/>
            <line x1="-16.02" y1="155.69" x2="9.97" y2="162.42"/>
            <line x1="505.7" y1="290" x2="574.98" y2="307.28"/>
            <line x1="468.89" y1="280.82" x2="479.64" y2="283.5"/>
            <line x1="424.37" y1="269.72" x2="455.98" y2="277.6"/>
            <line x1="350.7" y1="353.83" x2="378.03" y2="414.65"/>
            <line x1="216.91" y1="73.08" x2="199.37" y2="37.68"/>
            <line x1="229.61" y1="98.71" x2="224.23" y2="87.85"/>
            <line x1="222.28" y1="399.45" x2="218.32" y2="407.78"/>
            <line x1="216.87" y1="356.81" x2="204.47" y2="374.73"/>
            <line x1="107.72" y1="232.35" x2="57.81" y2="230.77"/>
        </g>
        <g style="stroke:#4ab7a1;stroke-width:2.72237110137067px">
            <line x1="382.97" y1="385.21" x2="387.01" y2="392.27"/>
            <line x1="158.86" y1="292.14" x2="151.58" y2="294.93"/>
            <line x1="237.19" y1="76.71" x2="223.57" y2="40.97"/>
            <line x1="488.2" y1="21.88" x2="503.84" y2="4"/>
            <line x1="394.53" y1="129" x2="414.76" y2="105.86"/>
            <line x1="382.36" y1="142.91" x2="388.65" y2="135.72"/>
            <line x1="521.83" y1="267.71" x2="537.14" y2="269.72"/>
            <line x1="400.32" y1="181.16" x2="411.6" y2="174.8"/>
            <line x1="353.6" y1="397.15" x2="365.57" y2="431.84"/>
            <line x1="86.42" y1="195.7" x2="108.61" y2="200.12"/>
        </g>
        <g style="stroke:#fff;stroke-width:.756202732642544px">
            <line x1="295.82" y1="230.07" x2="308.42" y2="239.32" />
            <line x1="308.4" y1="230.75" x2="295.42" y2="240.69" />
        </g>
    </g>
    <g style="fill:#2a656e">
        <g style="clip-path:url(#c)">
            <path d="M102,148.65a2.17,2.17,0,0,1-2.16-2c-1.67-28.09,17.77-37.75,24.16-40.92.65-.32,1.17-.58,1.53-.79a14.6,14.6,0,0,0,1.55-1,14.42,14.42,0,0,0-1.26-1.21l-1.06-.87c-3.85-3.14-10.29-8.38-10.29-20.58,0-12.87,10.64-23,24.22-23a2.17,2.17,0,1,1,0,4.34c-9.78,0-19.88,7-19.88,18.62,0,10.14,5.22,14.4,8.68,17.22l1.15.94c1.54,1.33,3.18,2.92,3,4.94s-2.17,3.27-3.92,4.29c-.42.25-1,.55-1.79.93-6.36,3.16-23.27,11.56-21.77,36.78a2.16,2.16,0,0,1-2,2.29Z" />
            <path d="M175.39,148.65h-.13a2.16,2.16,0,0,1-2-2.29c1.5-25.22-15.4-33.62-21.76-36.78-.76-.38-1.37-.68-1.79-.93-1.75-1-3.73-2.19-3.92-4.29s1.45-3.61,3-4.94c.35-.29.73-.61,1.15-.94,3.45-2.82,8.68-7.08,8.68-17.22,0-11.66-10.11-18.62-19.88-18.62a2.17,2.17,0,1,1,0-4.34c13.58,0,24.22,10.09,24.22,23,0,12.2-6.44,17.44-10.29,20.58l-1.06.87a13,13,0,0,0-1.26,1.21,14.6,14.6,0,0,0,1.55,1c.36.21.88.47,1.52.79,6.39,3.17,25.84,12.83,24.17,40.92A2.17,2.17,0,0,1,175.39,148.65Z" />
            <path d="M133.9,86a2.16,2.16,0,0,1-2.16-2.16V79a2.17,2.17,0,1,1,4.33,0v4.87A2.17,2.17,0,0,1,133.9,86Z" />
            <path d="M149.93,86a2.17,2.17,0,0,1-2.17-2.16V79a2.17,2.17,0,0,1,4.34,0v4.87A2.17,2.17,0,0,1,149.93,86Z" />
            <path d="M142.89,95.68c-3.41,0-6.34-1.41-7.59-3a1.08,1.08,0,0,1,1.7-1.34c.92,1.18,4,2.64,7.57,2a1.08,1.08,0,0,1,.35,2.13A11.83,11.83,0,0,1,142.89,95.68Z" />
        </g>
        <g style="clip-path:url(#e)">
            <path d="M44.3,379.94a2.09,2.09,0,0,1-2.08-2c-1.62-27.13,17.17-36.46,23.34-39.52.62-.31,1.12-.56,1.47-.76a15.9,15.9,0,0,0,1.5-1,12.48,12.48,0,0,0-1.22-1.16c-.31-.27-.66-.55-1-.85-3.71-3-9.93-8.09-9.93-19.88,0-12.43,10.28-22.17,23.39-22.17a2.1,2.1,0,0,1,0,4.19c-9.44,0-19.2,6.73-19.2,18,0,9.8,5.05,13.91,8.39,16.63.39.33.77.63,1.1.92,1.5,1.28,3.08,2.81,2.9,4.76s-2.1,3.16-3.79,4.15c-.4.24-1,.53-1.72.89-6.15,3.06-22.47,11.17-21,35.53a2.11,2.11,0,0,1-2,2.21Z" />
            <path d="M115.18,379.94h-.13a2.09,2.09,0,0,1-2-2.21c1.44-24.36-14.88-32.47-21-35.53-.73-.36-1.32-.65-1.72-.89-1.69-1-3.61-2.11-3.79-4.15s1.4-3.48,2.9-4.76l1.11-.92c3.34-2.72,8.39-6.83,8.39-16.63,0-11.25-9.77-18-19.21-18a2.1,2.1,0,0,1,0-4.19c13.12,0,23.39,9.74,23.39,22.17,0,11.79-6.22,16.85-9.93,19.88l-1,.85A12.48,12.48,0,0,0,91,336.73a15.9,15.9,0,0,0,1.5,1c.35.2.85.45,1.47.76,6.18,3.06,25,12.39,23.34,39.52A2.08,2.08,0,0,1,115.18,379.94Z" />
            <path d="M75.11,319.43a2.1,2.1,0,0,1-2.09-2.1v-4.7a2.09,2.09,0,0,1,4.18,0v4.7A2.09,2.09,0,0,1,75.11,319.43Z" />
            <path d="M90.59,319.43a2.1,2.1,0,0,1-2.1-2.1v-4.7a2.1,2.1,0,0,1,4.19,0v4.7A2.1,2.1,0,0,1,90.59,319.43Z" />
            <path d="M83.79,328.78c-3.29,0-6.12-1.36-7.33-2.89a1,1,0,0,1,1.64-1.3c.89,1.13,3.84,2.55,7.31,2a1,1,0,0,1,.34,2.06A12,12,0,0,1,83.79,328.78Z" />
            <path d="M86.47,295.49c4.49.79,12-.19,15-3.9a6.38,6.38,0,0,0,.84-6.17,5.29,5.29,0,0,0-3.77-3.8,6.19,6.19,0,0,0-6.39,2.5,3.82,3.82,0,0,0-.6,3,3,3,0,0,0,1.94,2.18,3.09,3.09,0,0,0,2.82-.6" style="fill:none;stroke:#2a656e;stroke-linecap:round;stroke-linejoin:round;stroke-width:3.34584295749664px"/>
        </g>
        <g style="clip-path:url(#g)">
            <path d="M440.47,120.2a1.52,1.52,0,0,1-1.51-1.43c-1.16-19.63,12.42-26.38,16.89-28.59.45-.23.81-.41,1.06-.55a12.53,12.53,0,0,0,1.09-.69,8.28,8.28,0,0,0-.88-.85l-.74-.61c-2.69-2.19-7.19-5.85-7.19-14.38,0-9,7.43-16,16.92-16a1.52,1.52,0,1,1,0,3c-6.83,0-13.89,4.86-13.89,13,0,7.09,3.65,10.06,6.07,12l.8.66c1.08.93,2.22,2,2.1,3.45s-1.52,2.28-2.75,3c-.29.17-.71.39-1.24.65-4.45,2.21-16.26,8.08-15.21,25.7a1.51,1.51,0,0,1-1.43,1.6Z" />
            <path d="M491.75,120.2h-.09a1.51,1.51,0,0,1-1.42-1.6C491.29,101,479.47,95.1,475,92.89c-.53-.26-1-.48-1.25-.65-1.22-.72-2.61-1.53-2.74-3s1-2.52,2.1-3.45c.24-.21.51-.42.8-.66,2.41-2,6.07-4.94,6.07-12,0-8.15-7.07-13-13.9-13a1.52,1.52,0,0,1,0-3c9.49,0,16.93,7,16.93,16,0,8.53-4.5,12.19-7.19,14.38l-.74.61a8.71,8.71,0,0,0-.89.85,12.53,12.53,0,0,0,1.09.69c.25.14.61.32,1.06.55,4.47,2.21,18.06,9,16.89,28.59A1.51,1.51,0,0,1,491.75,120.2Z" />
            <path d="M462.76,76.41a1.51,1.51,0,0,1-1.51-1.51V71.5a1.52,1.52,0,1,1,3,0v3.4A1.51,1.51,0,0,1,462.76,76.41Z" />
            <path d="M474,76.41a1.5,1.5,0,0,1-1.51-1.51V71.5a1.51,1.51,0,1,1,3,0v3.4A1.5,1.5,0,0,1,474,76.41Z" />
            <path d="M469,83.19a7.05,7.05,0,0,1-5.31-2.1.76.76,0,0,1,.13-1.06.75.75,0,0,1,1.06.12,6.05,6.05,0,0,0,5.29,1.42.76.76,0,0,1,.25,1.5A8.69,8.69,0,0,1,469,83.19Z" />
            <g style="fill:none;stroke:#2a656e;stroke-linecap:round;stroke-linejoin:round;stroke-width:3px">
                <line x1="468" y1="58.09" x2="468" y2="54.09" />
                <circle cx="468" cy="50.09" r="3.5" />
            </g>
        </g>
        <g style="clip-path:url(#i)">
            <path d="M419.78,423.29a2,2,0,0,1-1.94-1.83c-1.5-25.27,16-33.95,21.73-36.81.58-.29,1.05-.52,1.37-.7.64-.38,1.11-.68,1.4-.89a10.23,10.23,0,0,0-1.13-1.09c-.29-.25-.62-.51-1-.79-3.46-2.82-9.25-7.53-9.25-18.51,0-11.58,9.57-20.65,21.78-20.65a1.95,1.95,0,1,1,0,3.9c-8.79,0-17.88,6.27-17.88,16.75,0,9.12,4.7,12.95,7.81,15.49.37.3.72.58,1,.85,1.39,1.19,2.87,2.62,2.7,4.44s-1.95,2.94-3.53,3.86c-.37.22-.92.49-1.6.83-5.72,2.85-20.93,10.4-19.58,33.08a2,2,0,0,1-1.83,2.07Z" />
            <path d="M485.78,423.29h-.11a2,2,0,0,1-1.83-2.07c1.34-22.68-13.86-30.23-19.58-33.08-.68-.34-1.23-.61-1.61-.83-1.57-.92-3.36-2-3.53-3.86s1.31-3.25,2.71-4.44c.31-.27.65-.55,1-.85,3.12-2.54,7.82-6.37,7.82-15.49,0-10.48-9.1-16.75-17.89-16.75a1.95,1.95,0,1,1,0-3.9c12.22,0,21.78,9.07,21.78,20.65,0,11-5.79,15.69-9.24,18.51-.35.28-.67.54-1,.79a10.62,10.62,0,0,0-1.14,1.09c.29.21.76.51,1.4.89.32.18.79.41,1.37.7,5.75,2.86,23.24,11.54,21.74,36.81A2,2,0,0,1,485.78,423.29Z" />
            <path d="M448.47,366.94a2,2,0,0,1-2-1.95v-4.38a2,2,0,1,1,3.9,0V365A2,2,0,0,1,448.47,366.94Z" />
            <path d="M462.88,366.94a1.94,1.94,0,0,1-1.94-1.95v-4.38a1.95,1.95,0,1,1,3.89,0V365A2,2,0,0,1,462.88,366.94Z" />
            <path d="M456.55,375.65c-3.06,0-5.7-1.26-6.83-2.7a1,1,0,0,1,.17-1.36,1,1,0,0,1,1.36.16c.84,1.05,3.58,2.37,6.81,1.83a1,1,0,0,1,1.12.8,1,1,0,0,1-.8,1.12A10.42,10.42,0,0,1,456.55,375.65Z" />
            <path d="M462.3,346.21a23.29,23.29,0,0,0,6.65-5.62s2.36,8.64-2.68,12.69" style="fill:#f4f3f4;stroke:#2a656e;stroke-linecap:round;stroke-linejoin:round;stroke-width:3.34584295749664px"/>
            <path d="M459.5,348.59s.14,0,.17,0l.49-.12a2.26,2.26,0,0,1,.57-.09,2.74,2.74,0,0,0,.7-.08,7.71,7.71,0,0,0,2-.76s0,0,0,0l0,0c.08.12.15.26.24.37l.29.26.64.65c.05.05.79.82.81.81l-.81.58Z" style="fill:#f4f3f4"/>
        </g>
    </g>
</svg>
